<?xml version="1.0" standalone="no"?><!DOCTYPE svg PUBLIC "-//W3C//DTD SVG 1.1//EN" 	"http://www.w3.org/Graphics/SVG/1.1/DTD/svg11.dtd"><svg width="630" height="741" version="1.1"	xmlns="http://www.w3.org/2000/svg"><title>Krona (snapshot) - all</title><defs>	<style type="text/css">	text {font-size: 16px; font-family: sans-serif; dominant-baseline:central}	path {stroke-width:0.39999999999999997;}	path.wedge {stroke:none}	path.line {fill:none;stroke:black;}	line {stroke:black;stroke-width:0.39999999999999997;}	line.tick {stroke-width:0.7999999999999999;}	line.pattern {stroke-width:0.26666666666666666;}	circle {fill:none;stroke:black;stroke-width:0.39999999999999997;}	rect {stroke:black;stroke-width:0.39999999999999997;}	.highlight {stroke:black;stroke-width:2;}	.searchHighlight {fill:rgb(255, 255, 100);stroke:none;}	</style><pattern id="hiddenPattern" patternUnits="userSpaceOnUse" x="0" y="0" width="9.6" height="9.6"><line class="pattern" x1="0" y1="0" x2="4.8" y2="4.8"/><line class="pattern" x1="4.8" y1="9.6" x2="9.6" y2="4.8"/></pattern></defs><path class="wedge" fill="rgb(207,112,112)" d=" M 282.5,435.475 L 282.5,630.4 A 259.9,259.9 0 1,1 537.0945603974876,422.74576361782863 L 346.1486400993719,383.5614409044572 A 64.975,64.975 0 1 0 282.5,435.475 Z "/><path class="wedge" fill="rgb(207,112,112)" d=" M 282.5,435.475 L 282.5,630.4 A 259.9,259.9 0 1,1 537.0945603974876,422.74576361782863 L 346.1486400993719,383.5614409044572 A 64.975,64.975 0 1 0 282.5,435.475 Z "/><path class="wedge" fill="rgb(207,112,112)" d=" M 282.5,435.475 L 282.5,630.4 A 259.9,259.9 0 1,1 537.0945603974876,422.74576361782863 L 346.1486400993719,383.5614409044572 A 64.975,64.975 0 1 0 282.5,435.475 Z "/><path class="wedge" fill="rgb(207,112,112)" d=" M 282.5,435.475 L 282.5,630.4 A 259.9,259.9 0 1,1 537.0945603974876,422.74576361782863 L 346.1486400993719,383.5614409044572 A 64.975,64.975 0 1 0 282.5,435.475 Z "/><path class="wedge" fill="rgb(207,112,112)" d=" M 282.5,435.475 L 282.5,630.4 A 259.9,259.9 0 1,1 537.0945603974876,422.74576361782863 L 346.1486400993719,383.5614409044572 A 64.975,64.975 0 1 0 282.5,435.475 Z "/><path class="wedge" fill="rgb(207,112,112)" d=" M 282.5,435.475 L 282.5,630.4 A 259.9,259.9 0 1,1 537.0945603974876,422.74576361782863 L 346.1486400993719,383.5614409044572 A 64.975,64.975 0 1 0 282.5,435.475 Z "/><path class="wedge" fill="rgb(112,207,207)" d=" M 346.1486400993719,383.5614409044572 L 537.0945603974876,422.74576361782863 A 259.9,259.9 0 0,1 282.50000000000006,630.4 L 282.5,435.475 A 64.975,64.975 0 0 0 346.1486400993719,383.5614409044572 Z "/><path class="wedge" fill="rgb(123,211,211)" d=" M 384.2210777283137,391.37434772230387 L 537.0945603974876,422.74576361782863 A 259.9,259.9 0 0,1 364.39306653278743,617.1607703990572 L 315.2196738735736,469.05119983363096 A 103.84082071633141,103.84082071633141 0 0 0 384.2210777283137,391.37434772230387 Z "/><path class="wedge" fill="rgb(134,214,214)" d=" M 415.43402861718556,397.7796081151767 L 537.0945603974876,422.74576361782863 A 259.9,259.9 0 0,1 368.4034706564831,615.7928937600328 L 327.3536465537037,498.57725549115946 A 135.70421136911088,135.70421136911088 0 0 0 415.43402861718556,397.7796081151767 Z "/><path class="wedge" fill="rgb(145,218,218)" d=" M 441.4841488554099,403.12539563733503 L 537.0945603974876,422.74576361782863 A 259.9,259.9 0 0,1 502.039924034115,509.60511045642784 L 419.5939265467887,457.36559348646324 A 162.29718428787288,162.29718428787288 0 0 0 441.4841488554099,403.12539563733503 Z "/><path class="wedge" fill="rgb(156,222,222)" d=" M 463.5522025249089,407.6540168055255 L 537.0945603974876,422.74576361782863 A 259.9,259.9 0 0,1 502.2461521064678,509.27910013543516 L 438.7701291541115,469.19127488315877 A 184.8251092354767,184.8251092354767 0 0 0 463.5522025249089,407.6540168055255 Z "/><path class="wedge" fill="rgb(167,225,225)" d=" M 482.4849718887197,411.5392411845075 L 537.0945603974876,422.74576361782863 A 259.9,259.9 0 0,1 502.5214476175417,508.8422299526842 L 455.3276635133627,479.1683349593802 A 204.15241438281396,204.15241438281396 0 0 0 482.4849718887197,411.5392411845075 Z "/><path class="wedge" fill="rgb(167,218,225)" d=" M 455.3276635133627,479.1683349593802 L 502.5214476175417,508.8422299526842 A 259.9,259.9 0 0,1 502.2461521064678,509.27910013543516 L 455.11141786790483,479.51149810897806 A 204.15241438281396,204.15241438281396 0 0 0 455.3276635133627,479.1683349593802 Z "/><path class="wedge" fill="url(#hiddenPattern)" d=" M 455.3276635133627,479.1683349593802 L 502.5214476175417,508.8422299526842 A 259.9,259.9 0 0,1 502.2461521064678,509.27910013543516 L 455.11141786790483,479.51149810897806 A 204.15241438281396,204.15241438281396 0 0 0 455.3276635133627,479.1683349593802 Z "/><path class="wedge" fill="rgb(145,209,218)" d=" M 438.7701291541115,469.19127488315877 L 502.2461521064678,509.27910013543516 A 259.9,259.9 0 0,1 502.039924034115,509.60511045642784 L 438.6234722629995,469.42311364110174 A 184.8251092354767,184.8251092354767 0 0 0 438.7701291541115,469.19127488315877 Z "/><path class="wedge" fill="url(#hiddenPattern)" d=" M 438.7701291541115,469.19127488315877 L 502.2461521064678,509.27910013543516 A 259.9,259.9 0 0,1 502.039924034115,509.60511045642784 L 438.6234722629995,469.42311364110174 A 184.8251092354767,184.8251092354767 0 0 0 438.7701291541115,469.19127488315877 Z "/><path class="wedge" fill="rgb(145,209,218)" d=" M 419.5939265467887,457.36559348646324 L 502.039924034115,509.60511045642784 A 259.9,259.9 0 0,1 439.33914460110134,577.742593886476 L 380.43979051511076,499.9147343297045 A 162.29718428787288,162.29718428787288 0 0 0 419.5939265467887,457.36559348646324 Z "/><path class="wedge" fill="rgb(156,213,222)" d=" M 438.6234722629995,469.42311364110174 L 502.039924034115,509.60511045642784 A 259.9,259.9 0 0,1 439.33914460110134,577.742593886476 L 394.0344826213824,517.8783572655309 A 184.8251092354767,184.8251092354767 0 0 0 438.6234722629995,469.42311364110174 Z "/><path class="wedge" fill="rgb(167,218,225)" d=" M 454.9494249518436,479.76758042580906 L 502.039924034115,509.60511045642784 A 259.9,259.9 0 0,1 439.33914460110134,577.742593886476 L 405.69773005021204,533.2898264905004 A 204.15241438281396,204.15241438281396 0 0 0 454.9494249518436,479.76758042580906 Z "/><path class="wedge" fill="rgb(167,210,225)" d=" M 405.69773005021204,533.2898264905004 L 439.33914460110134,577.742593886476 A 259.9,259.9 0 0,1 439.33914460110134,577.742593886476 L 405.69773005021204,533.2898264905004 A 204.15241438281396,204.15241438281396 0 0 0 405.69773005021204,533.2898264905004 Z "/><path class="wedge" fill="url(#hiddenPattern)" d=" M 405.69773005021204,533.2898264905004 L 439.33914460110134,577.742593886476 A 259.9,259.9 0 0,1 439.33914460110134,577.742593886476 L 405.69773005021204,533.2898264905004 A 204.15241438281396,204.15241438281396 0 0 0 405.69773005021204,533.2898264905004 Z "/><path class="wedge" fill="rgb(156,205,222)" d=" M 394.0344826213824,517.8783572655309 L 439.33914460110134,577.742593886476 A 259.9,259.9 0 0,1 439.33914460110134,577.742593886476 L 394.0344826213824,517.8783572655309 A 184.8251092354767,184.8251092354767 0 0 0 394.0344826213824,517.8783572655309 Z "/><path class="wedge" fill="url(#hiddenPattern)" d=" M 394.0344826213824,517.8783572655309 L 439.33914460110134,577.742593886476 A 259.9,259.9 0 0,1 439.33914460110134,577.742593886476 L 394.0344826213824,517.8783572655309 A 184.8251092354767,184.8251092354767 0 0 0 394.0344826213824,517.8783572655309 Z "/><path class="wedge" fill="rgb(145,199,218)" d=" M 380.43979051511076,499.9147343297045 L 439.33914460110134,577.742593886476 A 259.9,259.9 0 0,1 392.6818331609644,605.8889836871925 L 351.30416037591647,517.4910321847457 A 162.29718428787288,162.29718428787288 0 0 0 380.43979051511076,499.9147343297045 Z "/><path class="wedge" fill="rgb(156,205,222)" d=" M 394.0344826213824,517.8783572655309 L 439.33914460110134,577.742593886476 A 259.9,259.9 0 0,1 416.14886595283826,593.4035455741345 L 377.54296363574804,529.0154757972854 A 184.8251092354767,184.8251092354767 0 0 0 394.0344826213824,517.8783572655309 Z "/><path class="wedge" fill="rgb(167,210,225)" d=" M 405.69773005021204,533.2898264905004 L 439.33914460110134,577.742593886476 A 259.9,259.9 0 0,1 416.14886595283826,593.4035455741345 L 387.4816801223432,545.5915621525555 A 204.15241438281396,204.15241438281396 0 0 0 405.69773005021204,533.2898264905004 Z "/><path class="wedge" fill="rgb(167,208,225)" d=" M 387.4816801223432,545.5915621525555 L 416.14886595283826,593.4035455741345 A 259.9,259.9 0 0,1 416.14886595283826,593.4035455741345 L 387.4816801223432,545.5915621525555 A 204.15241438281396,204.15241438281396 0 0 0 387.4816801223432,545.5915621525555 Z "/><path class="wedge" fill="url(#hiddenPattern)" d=" M 387.4816801223432,545.5915621525555 L 416.14886595283826,593.4035455741345 A 259.9,259.9 0 0,1 416.14886595283826,593.4035455741345 L 387.4816801223432,545.5915621525555 A 204.15241438281396,204.15241438281396 0 0 0 387.4816801223432,545.5915621525555 Z "/><path class="wedge" fill="rgb(145,195,218)" d=" M 377.54296363574804,529.0154757972854 L 416.14886595283826,593.4035455741345 A 259.9,259.9 0 0,1 392.6818331609644,605.8889836871925 L 360.85463389665375,537.8943617653451 A 184.8251092354767,184.8251092354767 0 0 0 377.54296363574804,529.0154757972854 Z "/><path class="wedge" fill="url(#hiddenPattern)" d=" M 377.54296363574804,529.0154757972854 L 416.14886595283826,593.4035455741345 A 259.9,259.9 0 0,1 392.6818331609644,605.8889836871925 L 360.85463389665375,537.8943617653451 A 184.8251092354767,184.8251092354767 0 0 0 377.54296363574804,529.0154757972854 Z "/><path class="wedge" fill="rgb(134,186,214)" d=" M 351.30416037591647,517.4910321847457 L 392.6818331609644,605.8889836871925 A 259.9,259.9 0 0,1 368.4034706564831,615.7928937600328 L 336.1432912970493,523.6756290229998 A 162.29718428787288,162.29718428787288 0 0 0 351.30416037591647,517.4910321847457 Z "/><path class="wedge" fill="url(#hiddenPattern)" d=" M 351.30416037591647,517.4910321847457 L 392.6818331609644,605.8889836871925 A 259.9,259.9 0 0,1 368.4034706564831,615.7928937600328 L 336.1432912970493,523.6756290229998 A 162.29718428787288,162.29718428787288 0 0 0 351.30416037591647,517.4910321847457 Z "/><path class="wedge" fill="rgb(123,178,211)" d=" M 327.3536465537037,498.57725549115946 L 368.4034706564831,615.7928937600328 A 259.9,259.9 0 0,1 364.39306653278743,617.1607703990572 L 325.2596537530975,499.2914787329796 A 135.70421136911088,135.70421136911088 0 0 0 327.3536465537037,498.57725549115946 Z "/><path class="wedge" fill="url(#hiddenPattern)" d=" M 327.3536465537037,498.57725549115946 L 368.4034706564831,615.7928937600328 A 259.9,259.9 0 0,1 364.39306653278743,617.1607703990572 L 325.2596537530975,499.2914787329796 A 135.70421136911088,135.70421136911088 0 0 0 327.3536465537037,498.57725549115946 Z "/><path class="wedge" fill="rgb(112,171,207)" d=" M 315.2196738735736,469.05119983363096 L 364.39306653278743,617.1607703990572 A 259.9,259.9 0 0,1 285.03931017939374,630.3875947478309 L 283.51455965017925,474.3358643039943 A 103.84082071633141,103.84082071633141 0 0 0 315.2196738735736,469.05119983363096 Z "/><path class="wedge" fill="url(#hiddenPattern)" d=" M 315.2196738735736,469.05119983363096 L 364.39306653278743,617.1607703990572 A 259.9,259.9 0 0,1 285.03931017939374,630.3875947478309 L 283.51455965017925,474.3358643039943 A 103.84082071633141,103.84082071633141 0 0 0 315.2196738735736,469.05119983363096 Z "/><path class="wedge" fill="rgb(112,160,207)" d=" M 283.51455965017925,474.3358643039943 L 285.03931017939374,630.3875947478309 A 259.9,259.9 0 0,1 282.50000000000006,630.4 L 282.50000000000006,474.3408207163314 A 103.84082071633141,103.84082071633141 0 0 0 283.51455965017925,474.3358643039943 Z "/><path class="wedge" fill="url(#hiddenPattern)" d=" M 283.51455965017925,474.3358643039943 L 285.03931017939374,630.3875947478309 A 259.9,259.9 0 0,1 282.50000000000006,630.4 L 282.50000000000006,474.3408207163314 A 103.84082071633141,103.84082071633141 0 0 0 283.51455965017925,474.3358643039943 Z "/><circle cx="282.5" cy="370.5" r="64.975"/><circle cx="282.5" cy="370.5" r="259.9"/><text x="282.5" y="370.5" text-anchor="middle" style="font-color:black;font-weight:bold" transform="rotate(360,282.5,370.5)">all</text><line x1="537.0945603974876" y1="422.74576361782863" x2="346.1486400993719" y2="383.5614409044572"/><path class="line" d=" M 346.1486400993719,383.5614409044572 A 64.975,64.975 0 1 0 282.5,435.475"/><text x="120.0625" y="370.5" text-anchor="end" style="font-color:black;font-weight:normal" transform="rotate(50.798380991531054,282.5,370.5)">unidentified&#160;&#160;&#160;78%</text><path class="line" d=" M 282.5,435.475 A 64.975,64.975 0 0 0 346.1486400993719,383.5614409044572"/><line x1="282.50000000000006" y1="630.4" x2="282.5" y2="435.475"/><text x="282.5" y="447.13474621489945" text-anchor="middle" style="font-color:black;font-weight:normal" transform="rotate(320.7983809915311,282.5,370.5)">Fungi</text><path class="line" d=" M 315.2196738735736,469.05119983363096 A 103.84082071633141,103.84082071633141 0 0 0 384.2210777283137,391.37434772230387"/><line x1="364.39306653278743" y1="617.1607703990572" x2="315.2196738735736" y2="469.05119983363096"/><text x="282.5" y="490.2725160427211" text-anchor="middle" style="font-color:black;font-weight:normal" transform="rotate(311.6151209141148,282.5,370.5)">Basidiomycota</text><path class="line" d=" M 327.3536465537037,498.57725549115946 A 135.70421136911088,135.70421136911088 0 0 0 415.43402861718556,397.7796081151767"/><line x1="368.4034706564831" y1="615.7928937600328" x2="327.3536465537037" y2="498.57725549115946"/><text x="282.5" y="519.5006978284919" text-anchor="middle" style="font-color:black;font-weight:normal" transform="rotate(311.1480563156025,282.5,370.5)">Agaricomycetes</text><path class="line" d=" M 419.5939265467887,457.36559348646324 A 162.29718428787288,162.29718428787288 0 0 0 441.4841488554099,403.12539563733503"/><line x1="502.039924034115" y1="509.60511045642784" x2="419.5939265467887" y2="457.36559348646324"/><text x="282.5" y="544.0611467616748" text-anchor="middle" style="font-color:black;font-weight:normal" transform="rotate(291.9779841633294,282.5,370.5)">The...les</text><path class="line" d=" M 438.7701291541115,469.19127488315877 A 184.8251092354767,184.8251092354767 0 0 0 463.5522025249089,407.6540168055255"/><line x1="502.2461521064678" y1="509.27910013543516" x2="438.7701291541115" y2="469.19127488315877"/><text x="282.5" y="564.9887618091453" text-anchor="middle" style="font-color:black;font-weight:normal" transform="rotate(291.93546287013146,282.5,370.5)">The...eae</text><path class="line" d=" M 455.3276635133627,479.1683349593802 A 204.15241438281396,204.15241438281396 0 0 0 482.4849718887197,411.5392411845075"/><line x1="502.5214476175417" y1="508.8422299526842" x2="455.3276635133627" y2="479.1683349593802"/><text x="514.5262071914069" y="370.5" text-anchor="start" style="font-color:black;font-weight:normal" transform="rotate(381.8785446036461,282.5,370.5)">6%&#160;&#160;&#160;Tomentella</text><path class="line" d=" M 455.11141786790483,479.51149810897806 A 204.15241438281396,204.15241438281396 0 0 0 455.3276635133627,479.1683349593802"/><path class="line" d=" M 438.6234722629995,469.42311364110174 A 184.8251092354767,184.8251092354767 0 0 0 438.7701291541115,469.19127488315877"/><path class="line" d=" M 380.43979051511076,499.9147343297045 A 162.29718428787288,162.29718428787288 0 0 0 419.5939265467887,457.36559348646324"/><line x1="439.33914460110134" y1="577.742593886476" x2="380.43979051511076" y2="499.9147343297045"/><text x="282.5" y="544.0611467616748" text-anchor="middle" style="font-color:black;font-weight:normal" transform="rotate(312.6205653509123,282.5,370.5)">Ca...es</text><path class="line" d=" M 394.0344826213824,517.8783572655309 A 184.8251092354767,184.8251092354767 0 0 0 438.6234722629995,469.42311364110174"/><text x="282.5" y="564.9887618091453" text-anchor="middle" style="font-color:black;font-weight:normal" transform="rotate(312.6205653509123,282.5,370.5)">H...e</text><path class="line" d=" M 405.69773005021204,533.2898264905004 A 204.15241438281396,204.15241438281396 0 0 0 454.9494249518436,479.76758042580906"/><text x="514.5262071914069" y="370.5" text-anchor="start" style="font-color:black;font-weight:normal" transform="rotate(402.6205653509122,282.5,370.5)">6%&#160;&#160;&#160;Clavulina</text><path class="line" d=" M 405.69773005021204,533.2898264905004 A 204.15241438281396,204.15241438281396 0 0 0 405.69773005021204,533.2898264905004"/><path class="line" d=" M 394.0344826213824,517.8783572655309 A 184.8251092354767,184.8251092354767 0 0 0 394.0344826213824,517.8783572655309"/><path class="line" d=" M 351.30416037591647,517.4910321847457 A 162.29718428787288,162.29718428787288 0 0 0 380.43979051511076,499.9147343297045"/><line x1="392.6818331609644" y1="605.8889836871925" x2="351.30416037591647" y2="517.4910321847457"/><text x="282.5" y="544.0611467616748" text-anchor="middle" style="font-color:black;font-weight:normal" transform="rotate(328.8991895657285,282.5,370.5)">Ag...es</text><path class="line" d=" M 377.54296363574804,529.0154757972854 A 184.8251092354767,184.8251092354767 0 0 0 394.0344826213824,517.8783572655309"/><line x1="416.14886595283826" y1="593.4035455741345" x2="377.54296363574804" y2="529.0154757972854"/><text x="282.5" y="564.9887618091453" text-anchor="middle" style="font-color:black;font-weight:normal" transform="rotate(325.9678988417318,282.5,370.5)">I...e</text><path class="line" d=" M 387.4816801223432,545.5915621525555 A 204.15241438281396,204.15241438281396 0 0 0 405.69773005021204,533.2898264905004"/><text x="514.5262071914069" y="370.5" text-anchor="start" style="font-color:black;font-weight:normal" transform="rotate(415.9678988417318,282.5,370.5)">2%&#160;&#160;&#160;Inocybe</text><path class="line" d=" M 387.4816801223432,545.5915621525555 A 204.15241438281396,204.15241438281396 0 0 0 387.4816801223432,545.5915621525555"/><line x1="530.4" y1="370.5" x2="554.4" y2="370.5" class="tick" transform="rotate(421.9851640492324,282.5,370.5)"/><text x="558.4" y="370.5" text-anchor="start" style="font-color:black;font-weight:normal" transform="rotate(421.9851640492324,282.5,370.5)">8 more</text><path class="line" d=" M 360.85463389665375,537.8943617653451 A 184.8251092354767,184.8251092354767 0 0 0 377.54296363574804,529.0154757972854"/><line x1="530.4" y1="370.5" x2="554.4" y2="370.5" class="tick" transform="rotate(427.80790271068594,282.5,370.5)"/><text x="558.4" y="370.5" text-anchor="start" style="font-color:black;font-weight:normal" transform="rotate(427.80790271068594,282.5,370.5)">7 more</text><path class="line" d=" M 336.1432912970493,523.6756290229998 A 162.29718428787288,162.29718428787288 0 0 0 351.30416037591647,517.4910321847457"/><path class="line" d=" M 325.2596537530975,499.2914787329796 A 135.70421136911088,135.70421136911088 0 0 0 327.3536465537037,498.57725549115946"/><path class="line" d=" M 283.51455965017925,474.3358643039943 A 103.84082071633141,103.84082071633141 0 0 0 315.2196738735736,469.05119983363096"/><line x1="285.03931017939374" y1="630.3875947478309" x2="283.51455965017925" y2="474.3358643039943"/><text x="464.3704103581657" y="370.5" text-anchor="start" style="font-color:black;font-weight:normal" transform="rotate(440.53683597680856,282.5,370.5)">5%&#160;&#160;&#160;Ascomycota</text><path class="line" d=" M 282.50000000000006,474.3408207163314 A 103.84082071633141,103.84082071633141 0 0 0 283.51455965017925,474.3358643039943"/></svg>