<?xml version="1.0" standalone="no"?><!DOCTYPE svg PUBLIC "-//W3C//DTD SVG 1.1//EN" 	"http://www.w3.org/Graphics/SVG/1.1/DTD/svg11.dtd"><svg width="1263" height="1212" version="1.1"	xmlns="http://www.w3.org/2000/svg"><title>Krona (snapshot) - all</title><defs>	<style type="text/css">	text {font-size: 13px; font-family: sans-serif; dominant-baseline:central}	path {stroke-width:0.325;}	path.wedge {stroke:none}	path.line {fill:none;stroke:black;}	line {stroke:black;stroke-width:0.325;}	line.tick {stroke-width:0.65;}	line.pattern {stroke-width:0.21666666666666667;}	circle {fill:none;stroke:black;stroke-width:0.325;}	rect {stroke:black;stroke-width:0.325;}	.highlight {stroke:black;stroke-width:1.625;}	.searchHighlight {fill:rgb(255, 255, 100);stroke:none;}	</style><pattern id="hiddenPattern" patternUnits="userSpaceOnUse" x="0" y="0" width="7.8" height="7.8"><line class="pattern" x1="0" y1="0" x2="3.9" y2="3.9"/><line class="pattern" x1="3.9" y1="7.8" x2="7.8" y2="3.9"/></pattern></defs><path class="wedge" fill="rgb(207,112,112)" d=" M 556.5,710 L 556.5,1051.2 A 445.2,445.2 0 1,1 992.6119595573739,695.4952441810593 L 658.3770076234656,626.9063463495736 A 104,104 0 1 0 556.5,710 Z "/><path class="wedge" fill="rgb(207,112,112)" d=" M 556.5,710 L 556.5,1051.2 A 445.2,445.2 0 1,1 992.6119595573739,695.4952441810593 L 658.3770076234656,626.9063463495736 A 104,104 0 1 0 556.5,710 Z "/><path class="wedge" fill="rgb(207,112,112)" d=" M 556.5,710 L 556.5,1051.2 A 445.2,445.2 0 1,1 992.6119595573739,695.4952441810593 L 658.3770076234656,626.9063463495736 A 104,104 0 1 0 556.5,710 Z "/><path class="wedge" fill="rgb(207,112,112)" d=" M 556.5,710 L 556.5,1051.2 A 445.2,445.2 0 1,1 992.6119595573739,695.4952441810593 L 658.3770076234656,626.9063463495736 A 104,104 0 1 0 556.5,710 Z "/><path class="wedge" fill="rgb(207,112,112)" d=" M 556.5,710 L 556.5,1051.2 A 445.2,445.2 0 1,1 992.6119595573739,695.4952441810593 L 658.3770076234656,626.9063463495736 A 104,104 0 1 0 556.5,710 Z "/><path class="wedge" fill="rgb(207,112,112)" d=" M 556.5,710 L 556.5,1051.2 A 445.2,445.2 0 1,1 992.6119595573739,695.4952441810593 L 658.3770076234656,626.9063463495736 A 104,104 0 1 0 556.5,710 Z "/><path class="wedge" fill="rgb(112,207,207)" d=" M 658.3770076234656,626.9063463495736 L 992.6119595573739,695.4952441810593 A 445.2,445.2 0 0,1 556.5000000000001,1051.2 L 556.5,710 A 104,104 0 0 0 658.3770076234656,626.9063463495736 Z "/><path class="wedge" fill="rgb(123,211,211)" d=" M 725.8106825825121,640.7445204106821 L 992.6119595573739,695.4952441810593 A 445.2,445.2 0 0,1 696.7800816483145,1028.5216428690278 L 610.9605940197383,770.0345470751259 A 172.8389103620029,172.8389103620029 0 0 0 725.8106825825121,640.7445204106821 Z "/><path class="wedge" fill="rgb(134,214,214)" d=" M 781.0948754483992,652.0894795007903 L 992.6119595573739,695.4952441810593 A 445.2,445.2 0 0,1 703.6497696662803,1026.1785159752467 L 632.2811921140653,822.3892537075417 A 229.2751582669516,229.2751582669516 0 0 0 781.0948754483992,652.0894795007903 Z "/><path class="wedge" fill="rgb(145,218,218)" d=" M 827.2346933898993,661.5579065472193 L 992.6119595573739,695.4952441810593 A 445.2,445.2 0 0,1 932.5645409003001,844.2823977499103 L 789.9577530934729,753.9237394922784 A 276.3764736457002,276.3764736457002 0 0 0 827.2346933898993,661.5579065472193 Z "/><path class="wedge" fill="rgb(156,222,222)" d=" M 866.3214987221788,669.5789734104628 L 992.6119595573739,695.4952441810593 A 445.2,445.2 0 0,1 932.9178026848767,843.723952983054 L 823.9137345187739,774.8832185893793 A 316.27780024906167,316.27780024906167 0 0 0 866.3214987221788,669.5789734104628 Z "/><path class="wedge" fill="rgb(167,225,225)" d=" M 899.8551071503213,676.4604597095191 L 992.6119595573739,695.4952441810593 A 445.2,445.2 0 0,1 933.3893746799906,842.9756089839746 L 853.228600973029,792.5731581800402 A 350.5102081091011,350.5102081091011 0 0 0 899.8551071503213,676.4604597095191 Z "/><path class="wedge" fill="rgb(167,218,225)" d=" M 853.228600973029,792.5731581800402 L 933.3893746799906,842.9756089839746 A 445.2,445.2 0 0,1 932.9178026848767,843.723952983054 L 852.8573278415245,793.1623365512319 A 350.5102081091011,350.5102081091011 0 0 0 853.228600973029,792.5731581800402 Z "/><path class="wedge" fill="url(#hiddenPattern)" d=" M 853.228600973029,792.5731581800402 L 933.3893746799906,842.9756089839746 A 445.2,445.2 0 0,1 932.9178026848767,843.723952983054 L 852.8573278415245,793.1623365512319 A 350.5102081091011,350.5102081091011 0 0 0 853.228600973029,792.5731581800402 Z "/><path class="wedge" fill="rgb(145,209,218)" d=" M 823.9137345187739,774.8832185893793 L 932.9178026848767,843.723952983054 A 445.2,445.2 0 0,1 932.5645409003001,844.2823977499103 L 823.6627712210696,775.2799474357897 A 316.27780024906167,316.27780024906167 0 0 0 823.9137345187739,774.8832185893793 Z "/><path class="wedge" fill="url(#hiddenPattern)" d=" M 823.9137345187739,774.8832185893793 L 932.9178026848767,843.723952983054 A 445.2,445.2 0 0,1 932.5645409003001,844.2823977499103 L 823.6627712210696,775.2799474357897 A 316.27780024906167,316.27780024906167 0 0 0 823.9137345187739,774.8832185893793 Z "/><path class="wedge" fill="rgb(145,209,218)" d=" M 789.9577530934729,753.9237394922784 L 932.5645409003001,844.2823977499103 A 445.2,445.2 0 0,1 825.1602046033486,960.9996260033056 L 723.2820304519447,826.3808283475652 A 276.3764736457002,276.3764736457002 0 0 0 789.9577530934729,753.9237394922784 Z "/><path class="wedge" fill="rgb(156,213,222)" d=" M 823.6627712210696,775.2799474357897 L 932.5645409003001,844.2823977499103 A 445.2,445.2 0 0,1 825.1602046033486,960.9996260033056 L 747.360868208468,858.1978903898587 A 316.27780024906167,316.27780024906167 0 0 0 823.6627712210696,775.2799474357897 Z "/><path class="wedge" fill="rgb(167,218,225)" d=" M 852.5792014676949,793.6020054448712 L 932.5645409003001,844.2823977499103 A 445.2,445.2 0 0,1 825.1602046033486,960.9996260033056 L 768.0187426463464,885.4945929673668 A 350.5102081091011,350.5102081091011 0 0 0 852.5792014676949,793.6020054448712 Z "/><path class="wedge" fill="rgb(167,210,225)" d=" M 768.0187426463464,885.4945929673668 L 825.1602046033486,960.9996260033056 A 445.2,445.2 0 0,1 825.1602046033486,960.9996260033056 L 768.0187426463464,885.4945929673668 A 350.5102081091011,350.5102081091011 0 0 0 768.0187426463464,885.4945929673668 Z "/><path class="wedge" fill="url(#hiddenPattern)" d=" M 768.0187426463464,885.4945929673668 L 825.1602046033486,960.9996260033056 A 445.2,445.2 0 0,1 825.1602046033486,960.9996260033056 L 768.0187426463464,885.4945929673668 A 350.5102081091011,350.5102081091011 0 0 0 768.0187426463464,885.4945929673668 Z "/><path class="wedge" fill="rgb(156,205,222)" d=" M 747.360868208468,858.1978903898587 L 825.1602046033486,960.9996260033056 A 445.2,445.2 0 0,1 825.1602046033486,960.9996260033056 L 747.360868208468,858.1978903898587 A 316.27780024906167,316.27780024906167 0 0 0 747.360868208468,858.1978903898587 Z "/><path class="wedge" fill="url(#hiddenPattern)" d=" M 747.360868208468,858.1978903898587 L 825.1602046033486,960.9996260033056 A 445.2,445.2 0 0,1 825.1602046033486,960.9996260033056 L 747.360868208468,858.1978903898587 A 316.27780024906167,316.27780024906167 0 0 0 747.360868208468,858.1978903898587 Z "/><path class="wedge" fill="rgb(145,199,218)" d=" M 723.2820304519447,826.3808283475652 L 825.1602046033486,960.9996260033056 A 445.2,445.2 0 0,1 745.2377919325177,1009.2134495480498 L 673.6668584411166,856.3115707830378 A 276.3764736457002,276.3764736457002 0 0 0 723.2820304519447,826.3808283475652 Z "/><path class="wedge" fill="rgb(156,205,222)" d=" M 747.360868208468,858.1978903898587 L 825.1602046033486,960.9996260033056 A 445.2,445.2 0 0,1 785.4360335598446,987.8263120030961 L 719.1401282391128,877.2560333278327 A 316.27780024906167,316.27780024906167 0 0 0 747.360868208468,858.1978903898587 Z "/><path class="wedge" fill="rgb(167,210,225)" d=" M 768.0187426463464,885.4945929673668 L 825.1602046033486,960.9996260033056 A 445.2,445.2 0 0,1 785.4360335598446,987.8263120030961 L 736.7435237348008,906.6154988358845 A 350.5102081091011,350.5102081091011 0 0 0 768.0187426463464,885.4945929673668 Z "/><path class="wedge" fill="rgb(167,208,225)" d=" M 736.7435237348008,906.6154988358845 L 785.4360335598446,987.8263120030961 A 445.2,445.2 0 0,1 785.4360335598446,987.8263120030961 L 736.7435237348008,906.6154988358845 A 350.5102081091011,350.5102081091011 0 0 0 736.7435237348008,906.6154988358845 Z "/><path class="wedge" fill="url(#hiddenPattern)" d=" M 736.7435237348008,906.6154988358845 L 785.4360335598446,987.8263120030961 A 445.2,445.2 0 0,1 785.4360335598446,987.8263120030961 L 736.7435237348008,906.6154988358845 A 350.5102081091011,350.5102081091011 0 0 0 736.7435237348008,906.6154988358845 Z "/><path class="wedge" fill="rgb(145,195,218)" d=" M 719.1401282391128,877.2560333278327 L 785.4360335598446,987.8263120030961 A 445.2,445.2 0 0,1 745.2377919325177,1009.2134495480498 L 690.5826003061136,892.4498267158427 A 316.27780024906167,316.27780024906167 0 0 0 719.1401282391128,877.2560333278327 Z "/><path class="wedge" fill="url(#hiddenPattern)" d=" M 719.1401282391128,877.2560333278327 L 785.4360335598446,987.8263120030961 A 445.2,445.2 0 0,1 745.2377919325177,1009.2134495480498 L 690.5826003061136,892.4498267158427 A 316.27780024906167,316.27780024906167 0 0 0 719.1401282391128,877.2560333278327 Z "/><path class="wedge" fill="rgb(134,186,214)" d=" M 673.6668584411166,856.3115707830378 L 745.2377919325177,1009.2134495480498 A 445.2,445.2 0 0,1 703.6497696662803,1026.1785159752467 L 647.8493585762435,866.8433435465458 A 276.3764736457002,276.3764736457002 0 0 0 673.6668584411166,856.3115707830378 Z "/><path class="wedge" fill="url(#hiddenPattern)" d=" M 673.6668584411166,856.3115707830378 L 745.2377919325177,1009.2134495480498 A 445.2,445.2 0 0,1 703.6497696662803,1026.1785159752467 L 647.8493585762435,866.8433435465458 A 276.3764736457002,276.3764736457002 0 0 0 673.6668584411166,856.3115707830378 Z "/><path class="wedge" fill="rgb(123,178,211)" d=" M 632.2811921140653,822.3892537075417 L 703.6497696662803,1026.1785159752467 A 445.2,445.2 0 0,1 696.7800816483145,1028.5216428690278 L 628.7433466343625,823.5959491015469 A 229.2751582669516,229.2751582669516 0 0 0 632.2811921140653,822.3892537075417 Z "/><path class="wedge" fill="url(#hiddenPattern)" d=" M 632.2811921140653,822.3892537075417 L 703.6497696662803,1026.1785159752467 A 445.2,445.2 0 0,1 696.7800816483145,1028.5216428690278 L 628.7433466343625,823.5959491015469 A 229.2751582669516,229.2751582669516 0 0 0 632.2811921140653,822.3892537075417 Z "/><path class="wedge" fill="rgb(123,177,211)" d=" M 610.9605940197383,770.0345470751259 L 696.7800816483145,1028.5216428690278 A 445.2,445.2 0 0,1 560.8497533353832,1051.1787502182929 L 558.1886941303484,778.8306606110692 A 172.8389103620029,172.8389103620029 0 0 0 610.9605940197383,770.0345470751259 Z "/><path class="wedge" fill="rgb(134,184,214)" d=" M 628.7433466343625,823.5959491015469 L 696.7800816483145,1028.5216428690278 A 445.2,445.2 0 0,1 658.4329187111352,1039.3736495024 L 608.9948024935037,829.1846632488526 A 229.2751582669516,229.2751582669516 0 0 0 628.7433466343625,823.5959491015469 Z "/><path class="wedge" fill="rgb(134,184,214)" d=" M 643.584713137224,868.2979373205969 L 696.7800816483145,1028.5216428690278 A 445.2,445.2 0 0,1 677.3174009131425,1034.4929353403543 L 631.5024420921229,872.0048662431764 A 276.3764736457002,276.3764736457002 0 0 0 643.584713137224,868.2979373205969 Z "/><path class="wedge" fill="url(#hiddenPattern)" d=" M 643.584713137224,868.2979373205969 L 696.7800816483145,1028.5216428690278 A 445.2,445.2 0 0,1 677.3174009131425,1034.4929353403543 L 631.5024420921229,872.0048662431764 A 276.3764736457002,276.3764736457002 0 0 0 643.584713137224,868.2979373205969 Z "/><path class="wedge" fill="rgb(134,182,214)" d=" M 631.5024420921229,872.0048662431764 L 677.3174009131425,1034.4929353403543 A 445.2,445.2 0 0,1 658.4329187111352,1039.3736495024 L 619.7791119087991,875.0347731815834 A 276.3764736457002,276.3764736457002 0 0 0 631.5024420921229,872.0048662431764 Z "/><path class="wedge" fill="url(#hiddenPattern)" d=" M 631.5024420921229,872.0048662431764 L 677.3174009131425,1034.4929353403543 A 445.2,445.2 0 0,1 658.4329187111352,1039.3736495024 L 619.7791119087991,875.0347731815834 A 276.3764736457002,276.3764736457002 0 0 0 631.5024420921229,872.0048662431764 Z "/><path class="wedge" fill="rgb(134,181,214)" d=" M 608.9948024935037,829.1846632488526 L 658.4329187111352,1039.3736495024 A 445.2,445.2 0 0,1 622.9755023843616,1046.2090952976173 L 590.7344594116119,832.7048742024097 A 229.2751582669516,229.2751582669516 0 0 0 608.9948024935037,829.1846632488526 Z "/><path class="wedge" fill="rgb(145,188,218)" d=" M 619.7791119087991,875.0347731815834 L 658.4329187111352,1039.3736495024 A 445.2,445.2 0 0,1 632.6001574552748,1044.6477015046157 L 603.742347622128,878.3088609942438 A 276.3764736457002,276.3764736457002 0 0 0 619.7791119087991,875.0347731815834 Z "/><path class="wedge" fill="rgb(156,194,222)" d=" M 628.9149130793447,913.8761557738701 L 658.4329187111352,1039.3736495024 A 445.2,445.2 0 0,1 640.6407025031859,1043.1766029675769 L 616.2750141489631,916.577839862854 A 316.27780024906167,316.27780024906167 0 0 0 628.9149130793447,913.8761557738701 Z "/><path class="wedge" fill="rgb(156,194,222)" d=" M 628.9149130793447,913.8761557738701 L 658.4329187111352,1039.3736495024 A 445.2,445.2 0 0,1 640.6407025031859,1043.1766029675769 L 616.2750141489631,916.577839862854 A 316.27780024906167,316.27780024906167 0 0 0 628.9149130793447,913.8761557738701 Z "/><path class="wedge" fill="rgb(145,186,218)" d=" M 616.2750141489631,916.577839862854 L 640.6407025031859,1043.1766029675769 A 445.2,445.2 0 0,1 632.6001574552748,1044.6477015046157 L 610.5628715151877,917.6229337740047 A 316.27780024906167,316.27780024906167 0 0 0 616.2750141489631,916.577839862854 Z "/><path class="wedge" fill="url(#hiddenPattern)" d=" M 616.2750141489631,916.577839862854 L 640.6407025031859,1043.1766029675769 A 445.2,445.2 0 0,1 632.6001574552748,1044.6477015046157 L 610.5628715151877,917.6229337740047 A 316.27780024906167,316.27780024906167 0 0 0 616.2750141489631,916.577839862854 Z "/><path class="wedge" fill="rgb(134,179,214)" d=" M 603.742347622128,878.3088609942438 L 632.6001574552748,1044.6477015046157 A 445.2,445.2 0 0,1 622.9755023843616,1046.2090952976173 L 597.7674414483741,879.278161332254 A 276.3764736457002,276.3764736457002 0 0 0 603.742347622128,878.3088609942438 Z "/><path class="wedge" fill="url(#hiddenPattern)" d=" M 603.742347622128,878.3088609942438 L 632.6001574552748,1044.6477015046157 A 445.2,445.2 0 0,1 622.9755023843616,1046.2090952976173 L 597.7674414483741,879.278161332254 A 276.3764736457002,276.3764736457002 0 0 0 603.742347622128,878.3088609942438 Z "/><path class="wedge" fill="rgb(134,179,214)" d=" M 590.7344594116119,832.7048742024097 L 622.9755023843616,1046.2090952976173 A 445.2,445.2 0 0,1 595.281795180806,1049.507623793046 L 576.472376972048,834.4035953228891 A 229.2751582669516,229.2751582669516 0 0 0 590.7344594116119,832.7048742024097 Z "/><path class="wedge" fill="rgb(145,186,218)" d=" M 597.7674414483741,879.278161332254 L 622.9755023843616,1046.2090952976173 A 445.2,445.2 0 0,1 595.281795180806,1049.507623793046 L 580.5754173264172,881.3258605096719 A 276.3764736457002,276.3764736457002 0 0 0 597.7674414483741,879.278161332254 Z "/><path class="wedge" fill="rgb(156,193,222)" d=" M 603.725349650892,918.7321750008086 L 622.9755023843616,1046.2090952976173 A 445.2,445.2 0 0,1 598.3752907489969,1049.226240225787 L 586.2489327108774,920.8756070783335 A 316.27780024906167,316.27780024906167 0 0 0 603.725349650892,918.7321750008086 Z "/><path class="wedge" fill="rgb(167,199,225)" d=" M 608.8367973380495,952.5808212135826 L 622.9755023843616,1046.2090952976173 A 445.2,445.2 0 0,1 599.8979809320514,1049.079739156533 L 590.6676444923812,954.8409065154597 A 350.5102081091011,350.5102081091011 0 0 0 608.8367973380495,952.5808212135826 Z "/><path class="wedge" fill="rgb(167,198,225)" d=" M 590.6676444923812,954.8409065154597 L 599.8979809320514,1049.079739156533 A 445.2,445.2 0 0,1 598.3752907489969,1049.226240225787 L 589.4688159817161,954.9562482051999 A 350.5102081091011,350.5102081091011 0 0 0 590.6676444923812,954.8409065154597 Z "/><path class="wedge" fill="url(#hiddenPattern)" d=" M 590.6676444923812,954.8409065154597 L 599.8979809320514,1049.079739156533 A 445.2,445.2 0 0,1 598.3752907489969,1049.226240225787 L 589.4688159817161,954.9562482051999 A 350.5102081091011,350.5102081091011 0 0 0 590.6676444923812,954.8409065154597 Z "/><path class="wedge" fill="rgb(145,184,218)" d=" M 586.2489327108774,920.8756070783335 L 598.3752907489969,1049.226240225787 A 445.2,445.2 0 0,1 595.281795180806,1049.507623793046 L 584.0512598146787,921.0755068440094 A 316.27780024906167,316.27780024906167 0 0 0 586.2489327108774,920.8756070783335 Z "/><path class="wedge" fill="url(#hiddenPattern)" d=" M 586.2489327108774,920.8756070783335 L 598.3752907489969,1049.226240225787 A 445.2,445.2 0 0,1 595.281795180806,1049.507623793046 L 584.0512598146787,921.0755068440094 A 316.27780024906167,316.27780024906167 0 0 0 586.2489327108774,920.8756070783335 Z "/><path class="wedge" fill="rgb(145,184,218)" d=" M 580.5754173264172,881.3258605096719 L 595.281795180806,1049.507623793046 A 445.2,445.2 0 0,1 595.281795180806,1049.507623793046 L 580.5754173264172,881.3258605096719 A 276.3764736457002,276.3764736457002 0 0 0 580.5754173264172,881.3258605096719 Z "/><path class="wedge" fill="url(#hiddenPattern)" d=" M 580.5754173264172,881.3258605096719 L 595.281795180806,1049.507623793046 A 445.2,445.2 0 0,1 595.281795180806,1049.507623793046 L 580.5754173264172,881.3258605096719 A 276.3764736457002,276.3764736457002 0 0 0 580.5754173264172,881.3258605096719 Z "/><path class="wedge" fill="rgb(134,177,214)" d=" M 576.472376972048,834.4035953228891 L 595.281795180806,1049.507623793046 A 445.2,445.2 0 0,1 571.0401817836704,1050.9624963001913 L 563.9881008079094,835.1528453775477 A 229.2751582669516,229.2751582669516 0 0 0 576.472376972048,834.4035953228891 Z "/><path class="wedge" fill="rgb(145,184,218)" d=" M 580.5754173264172,881.3258605096719 L 595.281795180806,1049.507623793046 A 445.2,445.2 0 0,1 571.0401817836704,1050.9624963001913 L 565.526424455387,882.229033315442 A 276.3764736457002,276.3764736457002 0 0 0 580.5754173264172,881.3258605096719 Z "/><path class="wedge" fill="rgb(145,184,218)" d=" M 580.5754173264172,881.3258605096719 L 595.281795180806,1049.507623793046 A 445.2,445.2 0 0,1 571.0401817836704,1050.9624963001913 L 565.526424455387,882.229033315442 A 276.3764736457002,276.3764736457002 0 0 0 580.5754173264172,881.3258605096719 Z "/><path class="wedge" fill="rgb(156,191,222)" d=" M 584.0512598146787,921.0755068440094 L 595.281795180806,1049.507623793046 A 445.2,445.2 0 0,1 571.0401817836704,1050.9624963001913 L 566.829597281583,922.1090735021469 A 316.27780024906167,316.27780024906167 0 0 0 584.0512598146787,921.0755068440094 Z "/><path class="wedge" fill="rgb(156,190,222)" d=" M 566.829597281583,922.1090735021469 L 571.0401817836704,1050.9624963001913 A 445.2,445.2 0 0,1 571.0401817836704,1050.9624963001913 L 566.829597281583,922.1090735021469 A 316.27780024906167,316.27780024906167 0 0 0 566.829597281583,922.1090735021469 Z "/><path class="wedge" fill="url(#hiddenPattern)" d=" M 566.829597281583,922.1090735021469 L 571.0401817836704,1050.9624963001913 A 445.2,445.2 0 0,1 571.0401817836704,1050.9624963001913 L 566.829597281583,922.1090735021469 A 316.27780024906167,316.27780024906167 0 0 0 566.829597281583,922.1090735021469 Z "/><path class="wedge" fill="rgb(145,183,218)" d=" M 565.526424455387,882.229033315442 L 571.0401817836704,1050.9624963001913 A 445.2,445.2 0 0,1 571.0401817836704,1050.9624963001913 L 565.526424455387,882.229033315442 A 276.3764736457002,276.3764736457002 0 0 0 565.526424455387,882.229033315442 Z "/><path class="wedge" fill="url(#hiddenPattern)" d=" M 565.526424455387,882.229033315442 L 571.0401817836704,1050.9624963001913 A 445.2,445.2 0 0,1 571.0401817836704,1050.9624963001913 L 565.526424455387,882.229033315442 A 276.3764736457002,276.3764736457002 0 0 0 565.526424455387,882.229033315442 Z "/><path class="wedge" fill="rgb(123,168,211)" d=" M 563.9881008079094,835.1528453775477 L 571.0401817836704,1050.9624963001913 A 445.2,445.2 0 0,1 560.8497533353832,1051.1787502182929 L 558.7400952030373,835.2642147650108 A 229.2751582669516,229.2751582669516 0 0 0 563.9881008079094,835.1528453775477 Z "/><path class="wedge" fill="url(#hiddenPattern)" d=" M 563.9881008079094,835.1528453775477 L 571.0401817836704,1050.9624963001913 A 445.2,445.2 0 0,1 560.8497533353832,1051.1787502182929 L 558.7400952030373,835.2642147650108 A 229.2751582669516,229.2751582669516 0 0 0 563.9881008079094,835.1528453775477 Z "/><path class="wedge" fill="rgb(112,160,207)" d=" M 558.1886941303484,778.8306606110692 L 560.8497533353832,1051.1787502182929 A 445.2,445.2 0 0,1 556.5000000000001,1051.2 L 556.5,778.8389103620029 A 172.8389103620029,172.8389103620029 0 0 0 558.1886941303484,778.8306606110692 Z "/><path class="wedge" fill="url(#hiddenPattern)" d=" M 558.1886941303484,778.8306606110692 L 560.8497533353832,1051.1787502182929 A 445.2,445.2 0 0,1 556.5000000000001,1051.2 L 556.5,778.8389103620029 A 172.8389103620029,172.8389103620029 0 0 0 558.1886941303484,778.8306606110692 Z "/><circle cx="556.5" cy="606" r="104"/><circle cx="556.5" cy="606" r="445.2"/><text x="556.5" y="606" text-anchor="middle" style="font-color:black;font-weight:bold" transform="rotate(360,556.5,606)">all</text><line x1="992.6119595573739" y1="695.4952441810593" x2="658.3770076234656" y2="626.9063463495736"/><path class="line" d=" M 658.3770076234656,626.9063463495736 A 104,104 0 1 0 556.5,710"/><text x="281.9" y="606" text-anchor="end" style="font-color:black;font-weight:normal" transform="rotate(50.798380991531054,556.5,606)">unidentified&#160;&#160;&#160;78%</text><path class="line" d=" M 556.5,710 A 104,104 0 0 0 658.3770076234656,626.9063463495736"/><line x1="556.5000000000001" y1="1051.2" x2="556.5" y2="710"/><text x="556.5" y="744.4194551810015" text-anchor="middle" style="font-color:black;font-weight:normal" transform="rotate(320.7983809915311,556.5,606)">Fungi</text><path class="line" d=" M 610.9605940197383,770.0345470751259 A 172.8389103620029,172.8389103620029 0 0 0 725.8106825825121,640.7445204106821"/><line x1="696.7800816483145" y1="1028.5216428690278" x2="610.9605940197383" y2="770.0345470751259"/><text x="556.5" y="795.7697847334875" text-anchor="middle" style="font-color:black;font-weight:normal" transform="rotate(311.6151209141148,556.5,606)">Basidiomycota</text><path class="line" d=" M 632.2811921140653,822.3892537075417 A 229.2751582669516,229.2751582669516 0 0 0 781.0948754483992,652.0894795007903"/><line x1="703.6497696662803" y1="1026.1785159752467" x2="632.2811921140653" y2="822.3892537075417"/><text x="556.5" y="849.4055528805761" text-anchor="middle" style="font-color:black;font-weight:normal" transform="rotate(311.1480563156025,556.5,606)">Agaricomycetes</text><path class="line" d=" M 789.9577530934729,753.9237394922784 A 276.3764736457002,276.3764736457002 0 0 0 827.2346933898993,661.5579065472193"/><line x1="932.5645409003001" y1="844.2823977499103" x2="789.9577530934729" y2="753.9237394922784"/><text x="556.5" y="894.3468716267087" text-anchor="middle" style="font-color:black;font-weight:normal" transform="rotate(291.9779841633294,556.5,606)">Thelephorales</text><path class="line" d=" M 823.9137345187739,774.8832185893793 A 316.27780024906167,316.27780024906167 0 0 0 866.3214987221788,669.5789734104628"/><line x1="932.9178026848767" y1="843.723952983054" x2="823.9137345187739" y2="774.8832185893793"/><text x="556.5" y="932.5475226070735" text-anchor="middle" style="font-color:black;font-weight:normal" transform="rotate(291.93546287013146,556.5,606)">Thelephoraceae</text><path class="line" d=" M 853.228600973029,792.5731581800402 A 350.5102081091011,350.5102081091011 0 0 0 899.8551071503213,676.4604597095191"/><line x1="933.3893746799906" y1="842.9756089839746" x2="853.228600973029" y2="792.5731581800402"/><text x="954.3551040545506" y="606" text-anchor="start" style="font-color:black;font-weight:normal" transform="rotate(381.8785446036461,556.5,606)">6%&#160;&#160;&#160;Tomentella</text><path class="line" d=" M 852.8573278415245,793.1623365512319 A 350.5102081091011,350.5102081091011 0 0 0 853.228600973029,792.5731581800402"/><path class="line" d=" M 823.6627712210696,775.2799474357897 A 316.27780024906167,316.27780024906167 0 0 0 823.9137345187739,774.8832185893793"/><path class="line" d=" M 723.2820304519447,826.3808283475652 A 276.3764736457002,276.3764736457002 0 0 0 789.9577530934729,753.9237394922784"/><line x1="825.1602046033486" y1="960.9996260033056" x2="723.2820304519447" y2="826.3808283475652"/><text x="556.5" y="910.3074022680532" text-anchor="middle" style="font-color:black;font-weight:normal" transform="rotate(312.6205653509123,556.5,606)">Cantharellales</text><path class="line" d=" M 747.360868208468,858.1978903898587 A 316.27780024906167,316.27780024906167 0 0 0 823.6627712210696,775.2799474357897"/><text x="556.5" y="946.2404857510892" text-anchor="middle" style="font-color:black;font-weight:normal" transform="rotate(312.6205653509123,556.5,606)">Hydnaceae</text><path class="line" d=" M 768.0187426463464,885.4945929673668 A 350.5102081091011,350.5102081091011 0 0 0 852.5792014676949,793.6020054448712"/><text x="954.3551040545506" y="606" text-anchor="start" style="font-color:black;font-weight:normal" transform="rotate(402.6205653509122,556.5,606)">6%&#160;&#160;&#160;Clavulina</text><path class="line" d=" M 768.0187426463464,885.4945929673668 A 350.5102081091011,350.5102081091011 0 0 0 768.0187426463464,885.4945929673668"/><path class="line" d=" M 747.360868208468,858.1978903898587 A 316.27780024906167,316.27780024906167 0 0 0 747.360868208468,858.1978903898587"/><path class="line" d=" M 673.6668584411166,856.3115707830378 A 276.3764736457002,276.3764736457002 0 0 0 723.2820304519447,826.3808283475652"/><line x1="745.2377919325177" y1="1009.2134495480498" x2="673.6668584411166" y2="856.3115707830378"/><text x="556.5" y="894.3468716267087" text-anchor="middle" style="font-color:black;font-weight:normal" transform="rotate(328.8991895657285,556.5,606)">Agaricales</text><path class="line" d=" M 719.1401282391128,877.2560333278327 A 316.27780024906167,316.27780024906167 0 0 0 747.360868208468,858.1978903898587"/><line x1="785.4360335598446" y1="987.8263120030961" x2="719.1401282391128" y2="877.2560333278327"/><text x="556.5" y="932.5475226070735" text-anchor="middle" style="font-color:black;font-weight:normal" transform="rotate(325.9678988417318,556.5,606)">Inocybaceae</text><path class="line" d=" M 736.7435237348008,906.6154988358845 A 350.5102081091011,350.5102081091011 0 0 0 768.0187426463464,885.4945929673668"/><text x="954.3551040545506" y="606" text-anchor="start" style="font-color:black;font-weight:normal" transform="rotate(415.9678988417318,556.5,606)">2%&#160;&#160;&#160;Inocybe</text><path class="line" d=" M 736.7435237348008,906.6154988358845 A 350.5102081091011,350.5102081091011 0 0 0 736.7435237348008,906.6154988358845"/><line x1="991.95" y1="606" x2="1011.45" y2="606" class="tick" transform="rotate(421.9851640492324,556.5,606)"/><text x="1014.7" y="606" text-anchor="start" style="font-color:black;font-weight:normal" transform="rotate(421.9851640492324,556.5,606)">8 more</text><path class="line" d=" M 690.5826003061136,892.4498267158427 A 316.27780024906167,316.27780024906167 0 0 0 719.1401282391128,877.2560333278327"/><line x1="991.95" y1="606" x2="1011.45" y2="606" class="tick" transform="rotate(427.80790271068594,556.5,606)"/><text x="1014.7" y="606" text-anchor="start" style="font-color:black;font-weight:normal" transform="rotate(427.80790271068594,556.5,606)">7 more</text><path class="line" d=" M 647.8493585762435,866.8433435465458 A 276.3764736457002,276.3764736457002 0 0 0 673.6668584411166,856.3115707830378"/><path class="line" d=" M 628.7433466343625,823.5959491015469 A 229.2751582669516,229.2751582669516 0 0 0 632.2811921140653,822.3892537075417"/><path class="line" d=" M 558.1886941303484,778.8306606110692 A 172.8389103620029,172.8389103620029 0 0 0 610.9605940197383,770.0345470751259"/><line x1="560.8497533353832" y1="1051.1787502182929" x2="558.1886941303484" y2="778.8306606110692"/><text x="556.5" y="818.344283895467" text-anchor="middle" style="font-color:black;font-weight:normal" transform="rotate(350.5368359768086,556.5,606)">Ascomycota</text><path class="line" d=" M 608.9948024935037,829.1846632488526 A 229.2751582669516,229.2751582669516 0 0 0 628.7433466343625,823.5959491015469"/><line x1="658.4329187111352" y1="1039.3736495024" x2="608.9948024935037" y2="829.1846632488526"/><text x="556.5" y="868.2460790320756" text-anchor="middle" style="font-color:black;font-weight:normal" transform="rotate(344.1988195969963,556.5,606)">L...s</text><path class="line" d=" M 631.5024420921229,872.0048662431764 A 276.3764736457002,276.3764736457002 0 0 0 643.584713137224,868.2979373205969"/><line x1="677.3174009131425" y1="1034.4929353403543" x2="631.5024420921229" y2="872.0048662431764"/><text x="917.2882368228501" y="606" text-anchor="start" style="font-color:black;font-weight:normal" transform="rotate(432.9436044143278,556.5,606)">0.7%&#160;&#160;&#160;Helotiales</text><line x1="991.95" y1="606" x2="1011.45" y2="606" class="tick" transform="rotate(435.50894416615665,556.5,606)"/><text x="1014.7" y="606" text-anchor="start" style="font-color:black;font-weight:normal" transform="rotate(435.50894416615665,556.5,606)">3 more</text><path class="line" d=" M 619.7791119087991,875.0347731815834 A 276.3764736457002,276.3764736457002 0 0 0 631.5024420921229,872.0048662431764"/><path class="line" d=" M 590.7344594116119,832.7048742024097 A 229.2751582669516,229.2751582669516 0 0 0 608.9948024935037,829.1846632488526"/><line x1="622.9755023843616" y1="1046.2090952976173" x2="590.7344594116119" y2="832.7048742024097"/><text x="556.5" y="849.4055528805761" text-anchor="middle" style="font-color:black;font-weight:normal" transform="rotate(349.08843350142206,556.5,606)">S...s</text><path class="line" d=" M 603.742347622128,878.3088609942438 A 276.3764736457002,276.3764736457002 0 0 0 619.7791119087991,875.0347731815834"/><line x1="632.6001574552748" y1="1044.6477015046157" x2="603.742347622128" y2="878.3088609942438"/><text x="556.5" y="910.3074022680532" text-anchor="middle" style="font-color:black;font-weight:normal" transform="rotate(348.4609933167539,556.5,606)">Hy...es</text><line x1="640.6407025031859" y1="1043.1766029675769" x2="616.2750141489631" y2="916.577839862854"/><path class="line" d=" M 616.2750141489631,916.577839862854 A 316.27780024906167,316.27780024906167 0 0 0 628.9149130793447,913.8761557738701"/><text x="937.2389001245308" y="606" text-anchor="start" style="font-color:black;font-weight:normal" transform="rotate(437.93500157176254,556.5,606)">0.7%&#160;&#160;&#160;unidentified</text><path class="line" d=" M 610.5628715151877,917.6229337740047 A 316.27780024906167,316.27780024906167 0 0 0 616.2750141489631,916.577839862854"/><path class="line" d=" M 597.7674414483741,879.278161332254 A 276.3764736457002,276.3764736457002 0 0 0 603.742347622128,878.3088609942438"/><path class="line" d=" M 576.472376972048,834.4035953228891 A 229.2751582669516,229.2751582669516 0 0 0 590.7344594116119,832.7048742024097"/><line x1="595.281795180806" y1="1049.507623793046" x2="576.472376972048" y2="834.4035953228891"/><text x="556.5" y="868.2460790320756" text-anchor="middle" style="font-color:black;font-weight:normal" transform="rotate(353.20764192830154,556.5,606)">Eu...es</text><path class="line" d=" M 580.5754173264172,881.3258605096719 A 276.3764736457002,276.3764736457002 0 0 0 597.7674414483741,879.278161332254"/><text x="556.5" y="894.3468716267087" text-anchor="middle" style="font-color:black;font-weight:normal" transform="rotate(353.20764192830154,556.5,606)">Eurotiales</text><path class="line" d=" M 586.2489327108774,920.8756070783335 A 316.27780024906167,316.27780024906167 0 0 0 603.725349650892,918.7321750008086"/><line x1="598.3752907489969" y1="1049.226240225787" x2="586.2489327108774" y2="920.8756070783335"/><text x="556.5" y="946.2404857510892" text-anchor="middle" style="font-color:black;font-weight:normal" transform="rotate(353.00775836893825,556.5,606)">Aspergillaceae</text><path class="line" d=" M 590.6676444923812,954.8409065154597 A 350.5102081091011,350.5102081091011 0 0 0 608.8367973380495,952.5808212135826"/><line x1="599.8979809320514" y1="1049.079739156533" x2="590.6676444923812" y2="954.8409065154597"/><text x="954.3551040545506" y="606" text-anchor="start" style="font-color:black;font-weight:normal" transform="rotate(442.90932324925177,556.5,606)">0.8%&#160;&#160;&#160;Penicillium</text><path class="line" d=" M 589.4688159817161,954.9562482051999 A 350.5102081091011,350.5102081091011 0 0 0 590.6676444923812,954.8409065154597"/><path class="line" d=" M 584.0512598146787,921.0755068440094 A 316.27780024906167,316.27780024906167 0 0 0 586.2489327108774,920.8756070783335"/><path class="line" d=" M 580.5754173264172,881.3258605096719 A 276.3764736457002,276.3764736457002 0 0 0 580.5754173264172,881.3258605096719"/><path class="line" d=" M 563.9881008079094,835.1528453775477 A 229.2751582669516,229.2751582669516 0 0 0 576.472376972048,834.4035953228891"/><line x1="571.0401817836704" y1="1050.9624963001913" x2="563.9881008079094" y2="835.1528453775477"/><text x="556.5" y="849.4055528805761" text-anchor="middle" style="font-color:black;font-weight:normal" transform="rotate(356.5654848376062,556.5,606)">A...s</text><path class="line" d=" M 565.526424455387,882.229033315442 A 276.3764736457002,276.3764736457002 0 0 0 580.5754173264172,881.3258605096719"/><text x="556.5" y="910.3074022680532" text-anchor="middle" style="font-color:black;font-weight:normal" transform="rotate(356.5654848376062,556.5,606)">Ar...ae</text><path class="line" d=" M 566.829597281583,922.1090735021469 A 316.27780024906167,316.27780024906167 0 0 0 584.0512598146787,921.0755068440094"/><text x="937.2389001245308" y="606" text-anchor="start" style="font-color:black;font-weight:normal" transform="rotate(446.5654848376062,556.5,606)">0.9%&#160;&#160;&#160;Archaeorhizomyces</text><path class="line" d=" M 566.829597281583,922.1090735021469 A 316.27780024906167,316.27780024906167 0 0 0 566.829597281583,922.1090735021469"/><path class="line" d=" M 565.526424455387,882.229033315442 A 276.3764736457002,276.3764736457002 0 0 0 565.526424455387,882.229033315442"/><path class="line" d=" M 558.7400952030373,835.2642147650108 A 229.2751582669516,229.2751582669516 0 0 0 563.9881008079094,835.1528453775477"/><path class="line" d=" M 556.5,778.8389103620029 A 172.8389103620029,172.8389103620029 0 0 0 558.1886941303484,778.8306606110692"/></svg>