<?xml version="1.0" standalone="no"?><!DOCTYPE svg PUBLIC "-//W3C//DTD SVG 1.1//EN" 	"http://www.w3.org/Graphics/SVG/1.1/DTD/svg11.dtd"><svg width="1263" height="1212" version="1.1"	xmlns="http://www.w3.org/2000/svg"><title>Krona (snapshot) - all</title><defs>	<style type="text/css">	text {font-size: 13px; font-family: sans-serif; dominant-baseline:central}	path {stroke-width:0.325;}	path.wedge {stroke:none}	path.line {fill:none;stroke:black;}	line {stroke:black;stroke-width:0.325;}	line.tick {stroke-width:0.65;}	line.pattern {stroke-width:0.21666666666666667;}	circle {fill:none;stroke:black;stroke-width:0.325;}	rect {stroke:black;stroke-width:0.325;}	.highlight {stroke:black;stroke-width:1.625;}	.searchHighlight {fill:rgb(255, 255, 100);stroke:none;}	</style><pattern id="hiddenPattern" patternUnits="userSpaceOnUse" x="0" y="0" width="7.8" height="7.8"><line class="pattern" x1="0" y1="0" x2="3.9" y2="3.9"/><line class="pattern" x1="3.9" y1="7.8" x2="7.8" y2="3.9"/></pattern></defs><path class="wedge" fill="rgb(207,112,112)" d=" M 556.5,710 L 556.5,1051.2 A 445.2,445.2 0 1,1 666.3642419694847,174.56879072502124 L 582.164602796106,505.21642910018465 A 104,104 0 1 0 556.5,710 Z "/><path class="wedge" fill="rgb(207,112,112)" d=" M 556.5,710 L 556.5,1051.2 A 445.2,445.2 0 1,1 666.3642419694847,174.56879072502124 L 582.164602796106,505.21642910018465 A 104,104 0 1 0 556.5,710 Z "/><path class="wedge" fill="rgb(207,112,112)" d=" M 556.5,710 L 556.5,1051.2 A 445.2,445.2 0 1,1 666.3642419694847,174.56879072502124 L 582.164602796106,505.21642910018465 A 104,104 0 1 0 556.5,710 Z "/><path class="wedge" fill="rgb(207,112,112)" d=" M 556.5,710 L 556.5,1051.2 A 445.2,445.2 0 1,1 666.3642419694847,174.56879072502124 L 582.164602796106,505.21642910018465 A 104,104 0 1 0 556.5,710 Z "/><path class="wedge" fill="rgb(207,112,112)" d=" M 556.5,710 L 556.5,1051.2 A 445.2,445.2 0 1,1 666.3642419694847,174.56879072502124 L 582.164602796106,505.21642910018465 A 104,104 0 1 0 556.5,710 Z "/><path class="wedge" fill="rgb(207,112,112)" d=" M 556.5,710 L 556.5,1051.2 A 445.2,445.2 0 1,1 666.3642419694847,174.56879072502124 L 582.164602796106,505.21642910018465 A 104,104 0 1 0 556.5,710 Z "/><path class="wedge" fill="rgb(112,207,207)" d=" M 582.164602796106,505.21642910018465 L 666.3642419694847,174.56879072502124 A 445.2,445.2 0 0,1 556.5000000000001,1051.2 L 556.5,710 A 104,104 0 0 0 582.164602796106,505.21642910018465 Z "/><path class="wedge" fill="rgb(123,211,211)" d=" M 599.1523267514672,438.5065136854255 L 666.3642419694847,174.56879072502124 A 445.2,445.2 0 0,1 1001.5973365873336,615.5603850791605 L 729.2990535956523,609.7116049859013 A 172.8389103620029,172.8389103620029 0 0 0 599.1523267514672,438.5065136854255 Z "/><path class="wedge" fill="rgb(134,214,214)" d=" M 613.0793833455352,383.8156810695798 L 666.3642419694847,174.56879072502124 A 445.2,445.2 0 0,1 912.1694677297712,338.2272050322864 L 739.6675056254846,468.09871979827824 A 229.2751582669516,229.2751582669516 0 0 0 613.0793833455352,383.8156810695798 Z "/><path class="wedge" fill="rgb(145,218,218)" d=" M 624.7028117144747,338.17107762776567 L 666.3642419694847,174.56879072502124 A 445.2,445.2 0 0,1 905.2911506588032,329.32731753548927 L 773.0266582612448,434.24388963693167 A 276.3764736457002,276.3764736457002 0 0 0 624.7028117144747,338.17107762776567 Z "/><path class="wedge" fill="rgb(156,222,222)" d=" M 634.5494626597917,299.5037874477025 L 666.3642419694847,174.56879072502124 A 445.2,445.2 0 0,1 881.9414622303912,302.205835043948 L 787.6992582750813,390.179357096135 A 316.27780024906167,316.27780024906167 0 0 0 634.5494626597917,299.5037874477025 Z "/><path class="wedge" fill="rgb(167,225,225)" d=" M 642.997166029813,266.3300922108402 L 666.3642419694847,174.56879072502124 A 445.2,445.2 0 0,1 809.1024532205195,239.40070836542077 L 755.3763217591953,317.3728795968432 A 350.5102081091011,350.5102081091011 0 0 0 642.997166029813,266.3300922108402 Z "/><path class="wedge" fill="rgb(167,222,225)" d=" M 755.3763217591953,317.3728795968432 L 809.1024532205195,239.40070836542077 A 445.2,445.2 0 0,1 881.9414622303912,302.205835043948 L 812.7231685842421,366.8199551188761 A 350.5102081091011,350.5102081091011 0 0 0 755.3763217591953,317.3728795968432 Z "/><path class="wedge" fill="rgb(167,220,225)" d=" M 812.7231685842421,366.8199551188761 L 881.9414622303912,302.205835043948 A 445.2,445.2 0 0,1 881.9414622303912,302.205835043948 L 812.7231685842421,366.8199551188761 A 350.5102081091011,350.5102081091011 0 0 0 812.7231685842421,366.8199551188761 Z "/><path class="wedge" fill="url(#hiddenPattern)" d=" M 812.7231685842421,366.8199551188761 L 881.9414622303912,302.205835043948 A 445.2,445.2 0 0,1 881.9414622303912,302.205835043948 L 812.7231685842421,366.8199551188761 A 350.5102081091011,350.5102081091011 0 0 0 812.7231685842421,366.8199551188761 Z "/><path class="wedge" fill="rgb(156,215,222)" d=" M 787.6992582750813,390.179357096135 L 881.9414622303912,302.205835043948 A 445.2,445.2 0 0,1 903.7798144366897,327.4326464123651 L 803.2136023830606,408.1009213524265 A 316.27780024906167,316.27780024906167 0 0 0 787.6992582750813,390.179357096135 Z "/><path class="wedge" fill="rgb(156,215,222)" d=" M 787.6992582750813,390.179357096135 L 881.9414622303912,302.205835043948 A 445.2,445.2 0 0,1 903.7798144366897,327.4326464123651 L 803.2136023830606,408.1009213524265 A 316.27780024906167,316.27780024906167 0 0 0 787.6992582750813,390.179357096135 Z "/><path class="wedge" fill="rgb(145,210,218)" d=" M 803.2136023830606,408.1009213524265 L 903.7798144366897,327.4326464123651 A 445.2,445.2 0 0,1 905.2911506588032,329.32731753548927 L 804.2872818434532,409.44692857393846 A 316.27780024906167,316.27780024906167 0 0 0 803.2136023830606,408.1009213524265 Z "/><path class="wedge" fill="url(#hiddenPattern)" d=" M 803.2136023830606,408.1009213524265 L 903.7798144366897,327.4326464123651 A 445.2,445.2 0 0,1 905.2911506588032,329.32731753548927 L 804.2872818434532,409.44692857393846 A 316.27780024906167,316.27780024906167 0 0 0 803.2136023830606,408.1009213524265 Z "/><path class="wedge" fill="rgb(134,205,214)" d=" M 773.0266582612448,434.24388963693167 L 905.2911506588032,329.32731753548927 A 445.2,445.2 0 0,1 912.1694677297712,338.2272050322864 L 777.2966605449176,439.7688661019098 A 276.3764736457002,276.3764736457002 0 0 0 773.0266582612448,434.24388963693167 Z "/><path class="wedge" fill="url(#hiddenPattern)" d=" M 773.0266582612448,434.24388963693167 L 905.2911506588032,329.32731753548927 A 445.2,445.2 0 0,1 912.1694677297712,338.2272050322864 L 777.2966605449176,439.7688661019098 A 276.3764736457002,276.3764736457002 0 0 0 773.0266582612448,434.24388963693167 Z "/><path class="wedge" fill="rgb(134,205,214)" d=" M 739.6675056254846,468.09871979827824 L 912.1694677297712,338.2272050322864 A 445.2,445.2 0 0,1 980.4715425077361,470.16491195714207 L 774.8426381607026,536.0457966998392 A 229.2751582669516,229.2751582669516 0 0 0 739.6675056254846,468.09871979827824 Z "/><path class="wedge" fill="rgb(145,210,218)" d=" M 777.2966605449176,439.7688661019098 L 912.1694677297712,338.2272050322864 A 445.2,445.2 0 0,1 978.2338533596594,463.3690183360809 L 818.3088841162523,517.4558675990601 A 276.3764736457002,276.3764736457002 0 0 0 777.2966605449176,439.7688661019098 Z "/><path class="wedge" fill="rgb(145,210,218)" d=" M 777.2966605449176,439.7688661019098 L 912.1694677297712,338.2272050322864 A 445.2,445.2 0 0,1 978.2338533596594,463.3690183360809 L 818.3088841162523,517.4558675990601 A 276.3764736457002,276.3764736457002 0 0 0 777.2966605449176,439.7688661019098 Z "/><path class="wedge" fill="rgb(156,214,222)" d=" M 809.1737575681193,415.7695629853291 L 912.1694677297712,338.2272050322864 A 445.2,445.2 0 0,1 978.2338533596594,463.3690183360809 L 856.1070427474247,504.6724772506097 A 316.27780024906167,316.27780024906167 0 0 0 809.1737575681193,415.7695629853291 Z "/><path class="wedge" fill="rgb(156,211,222)" d=" M 856.1070427474247,504.6724772506097 L 978.2338533596594,463.3690183360809 A 445.2,445.2 0 0,1 978.2338533596594,463.3690183360809 L 856.1070427474247,504.6724772506097 A 316.27780024906167,316.27780024906167 0 0 0 856.1070427474247,504.6724772506097 Z "/><path class="wedge" fill="url(#hiddenPattern)" d=" M 856.1070427474247,504.6724772506097 L 978.2338533596594,463.3690183360809 A 445.2,445.2 0 0,1 978.2338533596594,463.3690183360809 L 856.1070427474247,504.6724772506097 A 316.27780024906167,316.27780024906167 0 0 0 856.1070427474247,504.6724772506097 Z "/><path class="wedge" fill="rgb(134,201,214)" d=" M 818.3088841162523,517.4558675990601 L 978.2338533596594,463.3690183360809 A 445.2,445.2 0 0,1 980.4715425077361,470.16491195714207 L 819.6980230108179,521.6747020875151 A 276.3764736457002,276.3764736457002 0 0 0 818.3088841162523,517.4558675990601 Z "/><path class="wedge" fill="url(#hiddenPattern)" d=" M 818.3088841162523,517.4558675990601 L 978.2338533596594,463.3690183360809 A 445.2,445.2 0 0,1 980.4715425077361,470.16491195714207 L 819.6980230108179,521.6747020875151 A 276.3764736457002,276.3764736457002 0 0 0 818.3088841162523,517.4558675990601 Z "/><path class="wedge" fill="rgb(134,201,214)" d=" M 774.8426381607026,536.0457966998392 L 980.4715425077361,470.16491195714207 A 445.2,445.2 0 0,1 999.0391943092084,557.3985442588732 L 784.4048603202448,580.9705605187531 A 229.2751582669516,229.2751582669516 0 0 0 774.8426381607026,536.0457966998392 Z "/><path class="wedge" fill="rgb(145,205,218)" d=" M 819.6980230108179,521.6747020875151 L 980.4715425077361,470.16491195714207 A 445.2,445.2 0 0,1 997.3366083465017,543.8218306674037 L 830.1677162370547,567.4003073272952 A 276.3764736457002,276.3764736457002 0 0 0 819.6980230108179,521.6747020875151 Z "/><path class="wedge" fill="rgb(156,210,222)" d=" M 857.696735922166,509.50039792715023 L 980.4715425077361,470.16491195714207 A 445.2,445.2 0 0,1 989.2860153787311,501.60026392465977 L 863.958690302205,531.8326170878454 A 316.27780024906167,316.27780024906167 0 0 0 857.696735922166,509.50039792715023 Z "/><path class="wedge" fill="rgb(156,210,222)" d=" M 857.696735922166,509.50039792715023 L 980.4715425077361,470.16491195714207 A 445.2,445.2 0 0,1 989.2860153787311,501.60026392465977 L 863.958690302205,531.8326170878454 A 316.27780024906167,316.27780024906167 0 0 0 857.696735922166,509.50039792715023 Z "/><path class="wedge" fill="rgb(156,210,222)" d=" M 863.958690302205,531.8326170878454 L 989.2860153787311,501.60026392465977 A 445.2,445.2 0 0,1 995.0129388107972,529.1271016838964 L 868.0271960193853,551.388159977118 A 316.27780024906167,316.27780024906167 0 0 0 863.958690302205,531.8326170878454 Z "/><path class="wedge" fill="rgb(156,210,222)" d=" M 863.958690302205,531.8326170878454 L 989.2860153787311,501.60026392465977 A 445.2,445.2 0 0,1 995.0129388107972,529.1271016838964 L 868.0271960193853,551.388159977118 A 316.27780024906167,316.27780024906167 0 0 0 863.958690302205,531.8326170878454 Z "/><path class="wedge" fill="rgb(145,204,218)" d=" M 868.0271960193853,551.388159977118 L 995.0129388107972,529.1271016838964 A 445.2,445.2 0 0,1 997.3366083465017,543.8218306674037 L 869.6779711524904,561.8275502694805 A 316.27780024906167,316.27780024906167 0 0 0 868.0271960193853,551.388159977118 Z "/><path class="wedge" fill="url(#hiddenPattern)" d=" M 868.0271960193853,551.388159977118 L 995.0129388107972,529.1271016838964 A 445.2,445.2 0 0,1 997.3366083465017,543.8218306674037 L 869.6779711524904,561.8275502694805 A 316.27780024906167,316.27780024906167 0 0 0 868.0271960193853,551.388159977118 Z "/><path class="wedge" fill="rgb(134,198,214)" d=" M 830.1677162370547,567.4003073272952 L 997.3366083465017,543.8218306674037 A 445.2,445.2 0 0,1 999.0391943092084,557.3985442588732 L 831.2246675049154,575.8286187066932 A 276.3764736457002,276.3764736457002 0 0 0 830.1677162370547,567.4003073272952 Z "/><path class="wedge" fill="url(#hiddenPattern)" d=" M 830.1677162370547,567.4003073272952 L 997.3366083465017,543.8218306674037 A 445.2,445.2 0 0,1 999.0391943092084,557.3985442588732 L 831.2246675049154,575.8286187066932 A 276.3764736457002,276.3764736457002 0 0 0 830.1677162370547,567.4003073272952 Z "/><path class="wedge" fill="rgb(123,193,211)" d=" M 784.4048603202448,580.9705605187531 L 999.0391943092084,557.3985442588732 A 445.2,445.2 0 0,1 1001.6887854394853,602.8400444756427 L 785.7693828398696,604.3726430751043 A 229.2751582669516,229.2751582669516 0 0 0 784.4048603202448,580.9705605187531 Z "/><path class="wedge" fill="url(#hiddenPattern)" d=" M 784.4048603202448,580.9705605187531 L 999.0391943092084,557.3985442588732 A 445.2,445.2 0 0,1 1001.6887854394853,602.8400444756427 L 785.7693828398696,604.3726430751043 A 229.2751582669516,229.2751582669516 0 0 0 784.4048603202448,580.9705605187531 Z "/><path class="wedge" fill="rgb(123,191,211)" d=" M 785.7693828398696,604.3726430751043 L 1001.6887854394853,602.8400444756427 A 445.2,445.2 0 0,1 1001.5973365873336,615.5603850791605 L 785.722287264734,610.9235372913691 A 229.2751582669516,229.2751582669516 0 0 0 785.7693828398696,604.3726430751043 Z "/><path class="wedge" fill="url(#hiddenPattern)" d=" M 785.7693828398696,604.3726430751043 L 1001.6887854394853,602.8400444756427 A 445.2,445.2 0 0,1 1001.5973365873336,615.5603850791605 L 785.722287264734,610.9235372913691 A 229.2751582669516,229.2751582669516 0 0 0 785.7693828398696,604.3726430751043 Z "/><path class="wedge" fill="rgb(123,190,211)" d=" M 729.2990535956523,609.7116049859013 L 1001.5973365873336,615.5603850791605 A 445.2,445.2 0 0,1 668.7898171998869,1036.8062638277397 L 600.094001908304,773.2508652675473 A 172.8389103620029,172.8389103620029 0 0 0 729.2990535956523,609.7116049859013 Z "/><path class="wedge" fill="rgb(134,196,214)" d=" M 785.722287264734,610.9235372913691 L 1001.5973365873336,615.5603850791605 A 445.2,445.2 0 0,1 690.5503952475635,1030.5391990546598 L 625.5350979023642,824.6349776589891 A 229.2751582669516,229.2751582669516 0 0 0 785.722287264734,610.9235372913691 Z "/><path class="wedge" fill="rgb(145,201,218)" d=" M 832.8127410491926,611.9350078950434 L 1001.5973365873336,615.5603850791605 A 445.2,445.2 0 0,1 947.5956822511181,818.7139095699491 L 799.2889611828914,738.0510337428861 A 276.3764736457002,276.3764736457002 0 0 0 832.8127410491926,611.9350078950434 Z "/><path class="wedge" fill="rgb(156,206,222)" d=" M 872.7048663804089,612.7918633476434 L 1001.5973365873336,615.5603850791605 A 445.2,445.2 0 0,1 977.4586900079726,750.902799513231 L 855.5563532602162,708.9414615453179 A 316.27780024906167,316.27780024906167 0 0 0 872.7048663804089,612.7918633476434 Z "/><path class="wedge" fill="rgb(167,212,225)" d=" M 906.9293802246921,613.5269823982472 L 1001.5973365873336,615.5603850791605 A 445.2,445.2 0 0,1 978.8246138187226,746.8721426076387 L 889.0001982910965,716.9099820803648 A 350.5102081091011,350.5102081091011 0 0 0 906.9293802246921,613.5269823982472 Z "/><path class="wedge" fill="rgb(167,209,225)" d=" M 889.0001982910965,716.9099820803648 L 978.8246138187226,746.8721426076387 A 445.2,445.2 0 0,1 977.4586900079726,750.902799513231 L 887.9247934412153,720.0833567227627 A 350.5102081091011,350.5102081091011 0 0 0 889.0001982910965,716.9099820803648 Z "/><path class="wedge" fill="url(#hiddenPattern)" d=" M 889.0001982910965,716.9099820803648 L 978.8246138187226,746.8721426076387 A 445.2,445.2 0 0,1 977.4586900079726,750.902799513231 L 887.9247934412153,720.0833567227627 A 350.5102081091011,350.5102081091011 0 0 0 889.0001982910965,716.9099820803648 Z "/><path class="wedge" fill="rgb(156,203,222)" d=" M 855.5563532602162,708.9414615453179 L 977.4586900079726,750.902799513231 A 445.2,445.2 0 0,1 962.8131100010619,787.9689441670334 L 845.1518792531242,735.2738934743793 A 316.27780024906167,316.27780024906167 0 0 0 855.5563532602162,708.9414615453179 Z "/><path class="wedge" fill="rgb(156,203,222)" d=" M 855.5563532602162,708.9414615453179 L 977.4586900079726,750.902799513231 A 445.2,445.2 0 0,1 962.8131100010619,787.9689441670334 L 845.1518792531242,735.2738934743793 A 316.27780024906167,316.27780024906167 0 0 0 855.5563532602162,708.9414615453179 Z "/><path class="wedge" fill="rgb(145,196,218)" d=" M 845.1518792531242,735.2738934743793 L 962.8131100010619,787.9689441670334 A 445.2,445.2 0 0,1 947.5956822511181,818.7139095699491 L 834.3411546929237,757.1156500475322 A 316.27780024906167,316.27780024906167 0 0 0 845.1518792531242,735.2738934743793 Z "/><path class="wedge" fill="url(#hiddenPattern)" d=" M 845.1518792531242,735.2738934743793 L 962.8131100010619,787.9689441670334 A 445.2,445.2 0 0,1 947.5956822511181,818.7139095699491 L 834.3411546929237,757.1156500475322 A 316.27780024906167,316.27780024906167 0 0 0 845.1518792531242,735.2738934743793 Z "/><path class="wedge" fill="rgb(145,195,218)" d=" M 799.2889611828914,738.0510337428861 L 947.5956822511181,818.7139095699491 A 445.2,445.2 0 0,1 819.1642071874066,965.4586961844311 L 719.5597649043104,829.1489821939222 A 276.3764736457002,276.3764736457002 0 0 0 799.2889611828914,738.0510337428861 Z "/><path class="wedge" fill="rgb(156,201,222)" d=" M 834.3411546929237,757.1156500475322 L 947.5956822511181,818.7139095699491 A 445.2,445.2 0 0,1 838.1004946318359,950.8248851563723 L 756.553874643317,850.9695780511967 A 316.27780024906167,316.27780024906167 0 0 0 834.3411546929237,757.1156500475322 Z "/><path class="wedge" fill="rgb(167,207,225)" d=" M 864.4133624807059,773.471690725659 L 947.5956822511181,818.7139095699491 A 445.2,445.2 0 0,1 857.8229590178428,933.7308566014672 L 793.7344408656654,864.0256306180463 A 350.5102081091011,350.5102081091011 0 0 0 864.4133624807059,773.471690725659 Z "/><path class="wedge" fill="rgb(167,204,225)" d=" M 793.7344408656654,864.0256306180463 L 857.8229590178428,933.7308566014672 A 445.2,445.2 0 0,1 840.0986658656066,949.1833864266275 L 779.7799357412786,876.1915547978061 A 350.5102081091011,350.5102081091011 0 0 0 793.7344408656654,864.0256306180463 Z "/><path class="wedge" fill="rgb(167,203,225)" d=" M 779.7799357412786,876.1915547978061 L 840.0986658656066,949.1833864266275 A 445.2,445.2 0 0,1 838.1004946318359,950.8248851563723 L 778.2067564623329,877.4839224109545 A 350.5102081091011,350.5102081091011 0 0 0 779.7799357412786,876.1915547978061 Z "/><path class="wedge" fill="url(#hiddenPattern)" d=" M 779.7799357412786,876.1915547978061 L 840.0986658656066,949.1833864266275 A 445.2,445.2 0 0,1 838.1004946318359,950.8248851563723 L 778.2067564623329,877.4839224109545 A 350.5102081091011,350.5102081091011 0 0 0 779.7799357412786,876.1915547978061 Z "/><path class="wedge" fill="rgb(145,190,218)" d=" M 756.553874643317,850.9695780511967 L 838.1004946318359,950.8248851563723 A 445.2,445.2 0 0,1 819.1642071874066,965.4586961844311 L 743.1012076671086,861.3656911716254 A 316.27780024906167,316.27780024906167 0 0 0 756.553874643317,850.9695780511967 Z "/><path class="wedge" fill="url(#hiddenPattern)" d=" M 756.553874643317,850.9695780511967 L 838.1004946318359,950.8248851563723 A 445.2,445.2 0 0,1 819.1642071874066,965.4586961844311 L 743.1012076671086,861.3656911716254 A 316.27780024906167,316.27780024906167 0 0 0 756.553874643317,850.9695780511967 Z "/><path class="wedge" fill="rgb(145,190,218)" d=" M 719.5597649043104,829.1489821939222 L 819.1642071874066,965.4586961844311 A 445.2,445.2 0 0,1 760.1169250416381,1001.9080547760906 L 682.9037010727511,851.7764421988873 A 276.3764736457002,276.3764736457002 0 0 0 719.5597649043104,829.1489821939222 Z "/><path class="wedge" fill="rgb(156,196,222)" d=" M 743.1012076671086,861.3656911716254 L 819.1642071874066,965.4586961844311 A 445.2,445.2 0 0,1 760.1169250416381,1001.9080547760906 L 701.1529944870786,887.2599475864038 A 316.27780024906167,316.27780024906167 0 0 0 743.1012076671086,861.3656911716254 Z "/><path class="wedge" fill="rgb(167,203,225)" d=" M 763.2980366668238,889.0052614695217 L 819.1642071874066,965.4586961844311 A 445.2,445.2 0 0,1 770.0334942355453,996.6488024294434 L 724.6169575533794,913.5615297329634 A 350.5102081091011,350.5102081091011 0 0 0 763.2980366668238,889.0052614695217 Z "/><path class="wedge" fill="rgb(167,201,225)" d=" M 724.6169575533794,913.5615297329634 L 770.0334942355453,996.6488024294434 A 445.2,445.2 0 0,1 760.1169250416381,1001.9080547760906 L 716.8095480028746,917.7021892893911 A 350.5102081091011,350.5102081091011 0 0 0 724.6169575533794,913.5615297329634 Z "/><path class="wedge" fill="url(#hiddenPattern)" d=" M 724.6169575533794,913.5615297329634 L 770.0334942355453,996.6488024294434 A 445.2,445.2 0 0,1 760.1169250416381,1001.9080547760906 L 716.8095480028746,917.7021892893911 A 350.5102081091011,350.5102081091011 0 0 0 724.6169575533794,913.5615297329634 Z "/><path class="wedge" fill="rgb(156,195,222)" d=" M 701.1529944870786,887.2599475864038 L 760.1169250416381,1001.9080547760906 A 445.2,445.2 0 0,1 760.1169250416381,1001.9080547760906 L 701.1529944870786,887.2599475864038 A 316.27780024906167,316.27780024906167 0 0 0 701.1529944870786,887.2599475864038 Z "/><path class="wedge" fill="url(#hiddenPattern)" d=" M 701.1529944870786,887.2599475864038 L 760.1169250416381,1001.9080547760906 A 445.2,445.2 0 0,1 760.1169250416381,1001.9080547760906 L 701.1529944870786,887.2599475864038 A 316.27780024906167,316.27780024906167 0 0 0 701.1529944870786,887.2599475864038 Z "/><path class="wedge" fill="rgb(145,188,218)" d=" M 682.9037010727511,851.7764421988873 L 760.1169250416381,1001.9080547760906 A 445.2,445.2 0 0,1 733.7631844255066,1014.3880549763041 L 666.5435171130479,859.5239229860226 A 276.3764736457002,276.3764736457002 0 0 0 682.9037010727511,851.7764421988873 Z "/><path class="wedge" fill="rgb(145,188,218)" d=" M 701.1529944870786,887.2599475864038 L 760.1169250416381,1001.9080547760906 A 445.2,445.2 0 0,1 742.1391592377989,1010.6494069654411 L 688.3812779061462,893.4699557662108 A 316.27780024906167,316.27780024906167 0 0 0 701.1529944870786,887.2599475864038 Z "/><path class="wedge" fill="url(#hiddenPattern)" d=" M 701.1529944870786,887.2599475864038 L 760.1169250416381,1001.9080547760906 A 445.2,445.2 0 0,1 742.1391592377989,1010.6494069654411 L 688.3812779061462,893.4699557662108 A 316.27780024906167,316.27780024906167 0 0 0 701.1529944870786,887.2599475864038 Z "/><path class="wedge" fill="rgb(145,187,218)" d=" M 688.3812779061462,893.4699557662108 L 742.1391592377989,1010.6494069654411 A 445.2,445.2 0 0,1 733.7631844255066,1014.3880549763041 L 682.4308401510398,896.1259561453243 A 316.27780024906167,316.27780024906167 0 0 0 688.3812779061462,893.4699557662108 Z "/><path class="wedge" fill="url(#hiddenPattern)" d=" M 688.3812779061462,893.4699557662108 L 742.1391592377989,1010.6494069654411 A 445.2,445.2 0 0,1 733.7631844255066,1014.3880549763041 L 682.4308401510398,896.1259561453243 A 316.27780024906167,316.27780024906167 0 0 0 688.3812779061462,893.4699557662108 Z "/><path class="wedge" fill="rgb(145,187,218)" d=" M 666.5435171130479,859.5239229860226 L 733.7631844255066,1014.3880549763041 A 445.2,445.2 0 0,1 714.4931117075632,1022.2225566364243 L 654.5808155302055,864.3875167452217 A 276.3764736457002,276.3764736457002 0 0 0 666.5435171130479,859.5239229860226 Z "/><path class="wedge" fill="rgb(156,194,222)" d=" M 682.4308401510398,896.1259561453243 L 733.7631844255066,1014.3880549763041 A 445.2,445.2 0 0,1 716.5510496512966,1021.4355563809122 L 670.2030411304255,901.1326233544473 A 316.27780024906167,316.27780024906167 0 0 0 682.4308401510398,896.1259561453243 Z "/><path class="wedge" fill="rgb(156,194,222)" d=" M 682.4308401510398,896.1259561453243 L 733.7631844255066,1014.3880549763041 A 445.2,445.2 0 0,1 716.5510496512966,1021.4355563809122 L 670.2030411304255,901.1326233544473 A 316.27780024906167,316.27780024906167 0 0 0 682.4308401510398,896.1259561453243 Z "/><path class="wedge" fill="rgb(145,187,218)" d=" M 670.2030411304255,901.1326233544473 L 716.5510496512966,1021.4355563809122 A 445.2,445.2 0 0,1 714.4931117075632,1022.2225566364243 L 668.7410463283296,901.6917219833979 A 316.27780024906167,316.27780024906167 0 0 0 670.2030411304255,901.1326233544473 Z "/><path class="wedge" fill="url(#hiddenPattern)" d=" M 670.2030411304255,901.1326233544473 L 716.5510496512966,1021.4355563809122 A 445.2,445.2 0 0,1 714.4931117075632,1022.2225566364243 L 668.7410463283296,901.6917219833979 A 316.27780024906167,316.27780024906167 0 0 0 670.2030411304255,901.1326233544473 Z "/><path class="wedge" fill="rgb(134,179,214)" d=" M 654.5808155302055,864.3875167452217 L 714.4931117075632,1022.2225566364243 A 445.2,445.2 0 0,1 690.5503952475635,1030.5391990546598 L 639.7173754028166,869.5504194948267 A 276.3764736457002,276.3764736457002 0 0 0 654.5808155302055,864.3875167452217 Z "/><path class="wedge" fill="url(#hiddenPattern)" d=" M 654.5808155302055,864.3875167452217 L 714.4931117075632,1022.2225566364243 A 445.2,445.2 0 0,1 690.5503952475635,1030.5391990546598 L 639.7173754028166,869.5504194948267 A 276.3764736457002,276.3764736457002 0 0 0 654.5808155302055,864.3875167452217 Z "/><path class="wedge" fill="rgb(123,171,211)" d=" M 625.5350979023642,824.6349776589891 L 690.5503952475635,1030.5391990546598 A 445.2,445.2 0 0,1 668.7898171998869,1036.8062638277397 L 614.3285391066288,827.8624760141489 A 229.2751582669516,229.2751582669516 0 0 0 625.5350979023642,824.6349776589891 Z "/><path class="wedge" fill="url(#hiddenPattern)" d=" M 625.5350979023642,824.6349776589891 L 690.5503952475635,1030.5391990546598 A 445.2,445.2 0 0,1 668.7898171998869,1036.8062638277397 L 614.3285391066288,827.8624760141489 A 229.2751582669516,229.2751582669516 0 0 0 625.5350979023642,824.6349776589891 Z "/><path class="wedge" fill="rgb(123,171,211)" d=" M 600.094001908304,773.2508652675473 L 668.7898171998869,1036.8062638277397 A 445.2,445.2 0 0,1 596.1414428029484,1049.4316136818625 L 571.8899006721457,778.1523740539931 A 172.8389103620029,172.8389103620029 0 0 0 600.094001908304,773.2508652675473 Z "/><path class="wedge" fill="rgb(123,171,211)" d=" M 600.094001908304,773.2508652675473 L 668.7898171998869,1036.8062638277397 A 445.2,445.2 0 0,1 596.1414428029484,1049.4316136818625 L 571.8899006721457,778.1523740539931 A 172.8389103620029,172.8389103620029 0 0 0 600.094001908304,773.2508652675473 Z "/><path class="wedge" fill="rgb(123,171,211)" d=" M 600.094001908304,773.2508652675473 L 668.7898171998869,1036.8062638277397 A 445.2,445.2 0 0,1 596.1414428029484,1049.4316136818625 L 571.8899006721457,778.1523740539931 A 172.8389103620029,172.8389103620029 0 0 0 600.094001908304,773.2508652675473 Z "/><path class="wedge" fill="rgb(123,171,211)" d=" M 600.094001908304,773.2508652675473 L 668.7898171998869,1036.8062638277397 A 445.2,445.2 0 0,1 596.1414428029484,1049.4316136818625 L 571.8899006721457,778.1523740539931 A 172.8389103620029,172.8389103620029 0 0 0 600.094001908304,773.2508652675473 Z "/><path class="wedge" fill="rgb(134,178,214)" d=" M 614.3285391066288,827.8624760141489 L 668.7898171998869,1036.8062638277397 A 445.2,445.2 0 0,1 613.4320859592165,1047.5447628364902 L 585.819660868749,833.3927344592989 A 229.2751582669516,229.2751582669516 0 0 0 614.3285391066288,827.8624760141489 Z "/><path class="wedge" fill="rgb(134,176,214)" d=" M 585.819660868749,833.3927344592989 L 613.4320859592165,1047.5447628364902 A 445.2,445.2 0 0,1 596.1414428029484,1049.4316136818625 L 576.9150900102792,834.3644506008059 A 229.2751582669516,229.2751582669516 0 0 0 585.819660868749,833.3927344592989 Z "/><path class="wedge" fill="url(#hiddenPattern)" d=" M 585.819660868749,833.3927344592989 L 613.4320859592165,1047.5447628364902 A 445.2,445.2 0 0,1 596.1414428029484,1049.4316136818625 L 576.9150900102792,834.3644506008059 A 229.2751582669516,229.2751582669516 0 0 0 585.819660868749,833.3927344592989 Z "/><path class="wedge" fill="rgb(123,168,211)" d=" M 571.8899006721457,778.1523740539931 L 596.1414428029484,1049.4316136818625 A 445.2,445.2 0 0,1 567.8167350166718,1051.0561442206617 L 560.8934684392118,778.7830615835885 A 172.8389103620029,172.8389103620029 0 0 0 571.8899006721457,778.1523740539931 Z "/><path class="wedge" fill="rgb(123,168,211)" d=" M 571.8899006721457,778.1523740539931 L 596.1414428029484,1049.4316136818625 A 445.2,445.2 0 0,1 567.8167350166718,1051.0561442206617 L 560.8934684392118,778.7830615835885 A 172.8389103620029,172.8389103620029 0 0 0 571.8899006721457,778.1523740539931 Z "/><path class="wedge" fill="rgb(134,176,214)" d=" M 576.9150900102792,834.3644506008059 L 596.1414428029484,1049.4316136818625 A 445.2,445.2 0 0,1 569.4048344724583,1051.0129270563255 L 563.1459073811359,835.1788168950549 A 229.2751582669516,229.2751582669516 0 0 0 576.9150900102792,834.3644506008059 Z "/><path class="wedge" fill="rgb(145,183,218)" d=" M 581.1090794521712,881.2786740620296 L 596.1414428029484,1049.4316136818625 A 445.2,445.2 0 0,1 570.4480233089524,1050.981452024433 L 565.158817377485,882.2408008720938 A 276.3764736457002,276.3764736457002 0 0 0 581.1090794521712,881.2786740620296 Z "/><path class="wedge" fill="rgb(145,183,218)" d=" M 581.1090794521712,881.2786740620296 L 596.1414428029484,1049.4316136818625 A 445.2,445.2 0 0,1 570.4480233089524,1050.981452024433 L 565.158817377485,882.2408008720938 A 276.3764736457002,276.3764736457002 0 0 0 581.1090794521712,881.2786740620296 Z "/><path class="wedge" fill="rgb(134,175,214)" d=" M 565.158817377485,882.2408008720938 L 570.4480233089524,1050.981452024433 A 445.2,445.2 0 0,1 569.4048344724583,1051.0129270563255 L 564.5112143856234,882.2603403112723 A 276.3764736457002,276.3764736457002 0 0 0 565.158817377485,882.2408008720938 Z "/><path class="wedge" fill="url(#hiddenPattern)" d=" M 565.158817377485,882.2408008720938 L 570.4480233089524,1050.981452024433 A 445.2,445.2 0 0,1 569.4048344724583,1051.0129270563255 L 564.5112143856234,882.2603403112723 A 276.3764736457002,276.3764736457002 0 0 0 565.158817377485,882.2408008720938 Z "/><path class="wedge" fill="rgb(123,168,211)" d=" M 563.1459073811359,835.1788168950549 L 569.4048344724583,1051.0129270563255 A 445.2,445.2 0 0,1 567.8167350166718,1051.0561442206617 L 562.3280462983212,835.2010734588307 A 229.2751582669516,229.2751582669516 0 0 0 563.1459073811359,835.1788168950549 Z "/><path class="wedge" fill="url(#hiddenPattern)" d=" M 563.1459073811359,835.1788168950549 L 569.4048344724583,1051.0129270563255 A 445.2,445.2 0 0,1 567.8167350166718,1051.0561442206617 L 562.3280462983212,835.2010734588307 A 229.2751582669516,229.2751582669516 0 0 0 563.1459073811359,835.1788168950549 Z "/><path class="wedge" fill="rgb(112,160,207)" d=" M 560.8934684392118,778.7830615835885 L 567.8167350166718,1051.0561442206617 A 445.2,445.2 0 0,1 556.5000000000001,1051.2 L 556.5,778.8389103620029 A 172.8389103620029,172.8389103620029 0 0 0 560.8934684392118,778.7830615835885 Z "/><path class="wedge" fill="url(#hiddenPattern)" d=" M 560.8934684392118,778.7830615835885 L 567.8167350166718,1051.0561442206617 A 445.2,445.2 0 0,1 556.5000000000001,1051.2 L 556.5,778.8389103620029 A 172.8389103620029,172.8389103620029 0 0 0 560.8934684392118,778.7830615835885 Z "/><circle cx="556.5" cy="606" r="104"/><circle cx="556.5" cy="606" r="445.2"/><text x="556.5" y="606" text-anchor="middle" style="font-color:black;font-weight:bold" transform="rotate(360,556.5,606)">all</text><line x1="666.3642419694847" y1="174.56879072502124" x2="582.164602796106" y2="505.21642910018465"/><path class="line" d=" M 582.164602796106,505.21642910018465 A 104,104 0 1 0 556.5,710"/><text x="281.9" y="606" text-anchor="end" style="font-color:black;font-weight:normal" transform="rotate(7.143378298828467,556.5,606)">unidentified&#160;&#160;&#160;54%</text><path class="line" d=" M 556.5,710 A 104,104 0 0 0 582.164602796106,505.21642910018465"/><line x1="556.5000000000001" y1="1051.2" x2="556.5" y2="710"/><text x="556.5" y="744.4194551810015" text-anchor="middle" style="font-color:black;font-weight:normal" transform="rotate(277.14337829882845,556.5,606)">Fungi</text><path class="line" d=" M 729.2990535956523,609.7116049859013 A 172.8389103620029,172.8389103620029 0 0 0 599.1523267514672,438.5065136854255"/><line x1="1001.5973365873336" y1="615.5603850791605" x2="729.2990535956523" y2="609.7116049859013"/><text x="556.5" y="416.23021526651246" text-anchor="middle" style="font-color:black;font-weight:normal" transform="rotate(412.7586206896552,556.5,606)">Ascomycota</text><path class="line" d=" M 739.6675056254846,468.09871979827824 A 229.2751582669516,229.2751582669516 0 0 0 613.0793833455352,383.8156810695798"/><line x1="912.1694677297712" y1="338.2272050322864" x2="739.6675056254846" y2="468.09871979827824"/><text x="556.5" y="362.5944471194239" text-anchor="middle" style="font-color:black;font-weight:normal" transform="rotate(393.65588544991755,556.5,606)">Eurotiomycetes</text><path class="line" d=" M 773.0266582612448,434.24388963693167 A 276.3764736457002,276.3764736457002 0 0 0 624.7028117144747,338.17107762776567"/><line x1="905.2911506588032" y1="329.32731753548927" x2="773.0266582612448" y2="434.24388963693167"/><text x="556.5" y="317.6531283732914" text-anchor="middle" style="font-color:black;font-weight:normal" transform="rotate(392.9320708724743,556.5,606)">Eurotiales</text><path class="line" d=" M 787.6992582750813,390.179357096135 A 316.27780024906167,316.27780024906167 0 0 0 634.5494626597917,299.5037874477025"/><line x1="881.9414622303912" y1="302.205835043948" x2="787.6992582750813" y2="390.179357096135"/><text x="556.5" y="279.4524773929265" text-anchor="middle" style="font-color:black;font-weight:normal" transform="rotate(390.6285496347762,556.5,606)">Aspergillaceae</text><path class="line" d=" M 755.3763217591953,317.3728795968432 A 350.5102081091011,350.5102081091011 0 0 0 642.997166029813,266.3300922108402"/><line x1="809.1024532205195" y1="239.40070836542077" x2="755.3763217591953" y2="317.3728795968432"/><text x="954.3551040545506" y="606" text-anchor="start" style="font-color:black;font-weight:normal" transform="rotate(294.42762268781456,556.5,606)">6%&#160;&#160;&#160;Aspergillus</text><path class="line" d=" M 812.7231685842421,366.8199551188761 A 350.5102081091011,350.5102081091011 0 0 0 755.3763217591953,317.3728795968432"/><text x="954.3551040545506" y="606" text-anchor="start" style="font-color:black;font-weight:normal" transform="rotate(310.7694157249339,556.5,606)">3%&#160;&#160;&#160;Penicillium</text><path class="line" d=" M 812.7231685842421,366.8199551188761 A 350.5102081091011,350.5102081091011 0 0 0 812.7231685842421,366.8199551188761"/><line x1="903.7798144366897" y1="327.4326464123651" x2="803.2136023830606" y2="408.1009213524265"/><path class="line" d=" M 803.2136023830606,408.1009213524265 A 316.27780024906167,316.27780024906167 0 0 0 787.6992582750813,390.179357096135"/><text x="937.2389001245308" y="606" text-anchor="start" style="font-color:black;font-weight:normal" transform="rotate(319.11790798517546,556.5,606)">1%&#160;&#160;&#160;Talaromyces</text><path class="line" d=" M 804.2872818434532,409.44692857393846 A 316.27780024906167,316.27780024906167 0 0 0 803.2136023830606,408.1009213524265"/><path class="line" d=" M 777.2966605449176,439.7688661019098 A 276.3764736457002,276.3764736457002 0 0 0 773.0266582612448,434.24388963693167"/><path class="line" d=" M 774.8426381607026,536.0457966998392 A 229.2751582669516,229.2751582669516 0 0 0 739.6675056254846,468.09871979827824"/><line x1="980.4715425077361" y1="470.16491195714207" x2="774.8426381607026" y2="536.0457966998392"/><text x="556.5" y="343.7539209679244" text-anchor="middle" style="font-color:black;font-weight:normal" transform="rotate(422.63010836490866,556.5,606)">Archaeorhizomycetes</text><line x1="978.2338533596594" y1="463.3690183360809" x2="818.3088841162523" y2="517.4558675990601"/><path class="line" d=" M 818.3088841162523,517.4558675990601 A 276.3764736457002,276.3764736457002 0 0 0 777.2966605449176,439.7688661019098"/><text x="556.5" y="301.69259773194676" text-anchor="middle" style="font-color:black;font-weight:normal" transform="rotate(422.1697025976072,556.5,606)">Archaeorhizomycetaceae</text><path class="line" d=" M 856.1070427474247,504.6724772506097 A 316.27780024906167,316.27780024906167 0 0 0 809.1737575681193,415.7695629853291"/><text x="937.2389001245308" y="606" text-anchor="start" style="font-color:black;font-weight:normal" transform="rotate(332.16970259760717,556.5,606)">5%&#160;&#160;&#160;Archaeorhizomyces</text><path class="line" d=" M 856.1070427474247,504.6724772506097 A 316.27780024906167,316.27780024906167 0 0 0 856.1070427474247,504.6724772506097"/><path class="line" d=" M 819.6980230108179,521.6747020875151 A 276.3764736457002,276.3764736457002 0 0 0 818.3088841162523,517.4558675990601"/><path class="line" d=" M 784.4048603202448,580.9705605187531 A 229.2751582669516,229.2751582669516 0 0 0 774.8426381607026,536.0457966998392"/><line x1="999.0391943092084" y1="557.3985442588732" x2="784.4048603202448" y2="580.9705605187531"/><text x="556.5" y="362.5944471194239" text-anchor="middle" style="font-color:black;font-weight:normal" transform="rotate(437.9839318138478,556.5,606)">Leotiomycetes</text><path class="line" d=" M 830.1677162370547,567.4003073272952 A 276.3764736457002,276.3764736457002 0 0 0 819.6980230108179,521.6747020875151"/><line x1="997.3366083465017" y1="543.8218306674037" x2="830.1677162370547" y2="567.4003073272952"/><text x="556.5" y="317.6531283732914" text-anchor="middle" style="font-color:black;font-weight:normal" transform="rotate(437.10341511139114,556.5,606)">Helotiales</text><line x1="989.2860153787311" y1="501.60026392465977" x2="863.958690302205" y2="531.8326170878454"/><path class="line" d=" M 863.958690302205,531.8326170878454 A 316.27780024906167,316.27780024906167 0 0 0 857.696735922166,509.50039792715023"/><text x="937.2389001245308" y="606" text-anchor="start" style="font-color:black;font-weight:normal" transform="rotate(344.3365033040104,556.5,606)">1%&#160;&#160;&#160;Oidiodendron</text><line x1="995.0129388107972" y1="529.1271016838964" x2="868.0271960193853" y2="551.388159977118"/><path class="line" d=" M 868.0271960193853,551.388159977118 A 316.27780024906167,316.27780024906167 0 0 0 863.958690302205,531.8326170878454"/><text x="937.2389001245308" y="606" text-anchor="start" style="font-color:black;font-weight:normal" transform="rotate(348.24734062398954,556.5,606)">1%&#160;&#160;&#160;unidentified</text><path class="line" d=" M 869.6779711524904,561.8275502694805 A 316.27780024906167,316.27780024906167 0 0 0 868.0271960193853,551.388159977118"/><path class="line" d=" M 831.2246675049154,575.8286187066932 A 276.3764736457002,276.3764736457002 0 0 0 830.1677162370547,567.4003073272952"/><path class="line" d=" M 785.7693828398696,604.3726430751043 A 229.2751582669516,229.2751582669516 0 0 0 784.4048603202448,580.9705605187531"/><line x1="1001.6887854394853" y1="602.8400444756427" x2="785.7693828398696" y2="604.3726430751043"/><text x="893.7375791334757" y="606" text-anchor="start" style="font-color:black;font-weight:normal" transform="rotate(356.6629909378084,556.5,606)">2%&#160;&#160;&#160;Sordariomycetes</text><path class="line" d=" M 785.722287264734,610.9235372913691 A 229.2751582669516,229.2751582669516 0 0 0 785.7693828398696,604.3726430751043"/><path class="line" d=" M 600.094001908304,773.2508652675473 A 172.8389103620029,172.8389103620029 0 0 0 729.2990535956523,609.7116049859013"/><line x1="668.7898171998869" y1="1036.8062638277397" x2="600.094001908304" y2="773.2508652675473"/><text x="556.5" y="818.344283895467" text-anchor="middle" style="font-color:black;font-weight:normal" transform="rotate(308.31068476341295,556.5,606)">Basidiomycota</text><path class="line" d=" M 625.5350979023642,824.6349776589891 A 229.2751582669516,229.2751582669516 0 0 0 785.722287264734,610.9235372913691"/><line x1="690.5503952475635" y1="1030.5391990546598" x2="625.5350979023642" y2="824.6349776589891"/><text x="556.5" y="868.2460790320756" text-anchor="middle" style="font-color:black;font-weight:normal" transform="rotate(306.85335500078764,556.5,606)">Agaricomycetes</text><path class="line" d=" M 799.2889611828914,738.0510337428861 A 276.3764736457002,276.3764736457002 0 0 0 832.8127410491926,611.9350078950434"/><line x1="947.5956822511181" y1="818.7139095699491" x2="799.2889611828914" y2="738.0510337428861"/><text x="556.5" y="910.3074022680532" text-anchor="middle" style="font-color:black;font-weight:normal" transform="rotate(284.8859556756846,556.5,606)">Agaricales</text><path class="line" d=" M 855.5563532602162,708.9414615453179 A 316.27780024906167,316.27780024906167 0 0 0 872.7048663804089,612.7918633476434"/><line x1="977.4586900079726" y1="750.902799513231" x2="855.5563532602162" y2="708.9414615453179"/><text x="556.5" y="946.2404857510892" text-anchor="middle" style="font-color:black;font-weight:normal" transform="rotate(280.11251046753614,556.5,606)">Inocybaceae</text><path class="line" d=" M 889.0001982910965,716.9099820803648 A 350.5102081091011,350.5102081091011 0 0 0 906.9293802246921,613.5269823982472"/><line x1="978.8246138187226" y1="746.8721426076387" x2="889.0001982910965" y2="716.9099820803648"/><text x="954.3551040545506" y="606" text-anchor="start" style="font-color:black;font-weight:normal" transform="rotate(369.8386548490603,556.5,606)">5%&#160;&#160;&#160;Inocybe</text><path class="line" d=" M 887.9247934412153,720.0833567227627 A 350.5102081091011,350.5102081091011 0 0 0 889.0001982910965,716.9099820803648"/><line x1="962.8131100010619" y1="787.9689441670334" x2="845.1518792531242" y2="735.2738934743793"/><path class="line" d=" M 845.1518792531242,735.2738934743793 A 316.27780024906167,316.27780024906167 0 0 0 855.5563532602162,708.9414615453179"/><text x="937.2389001245308" y="606" text-anchor="start" style="font-color:black;font-weight:normal" transform="rotate(381.559973800068,556.5,606)">1%&#160;&#160;&#160;Laccaria</text><line x1="991.95" y1="606" x2="1011.45" y2="606" class="tick" transform="rotate(386.3334190082165,556.5,606)"/><text x="1014.7" y="606" text-anchor="start" style="font-color:black;font-weight:normal" transform="rotate(386.3334190082165,556.5,606)">5 more</text><path class="line" d=" M 834.3411546929237,757.1156500475322 A 316.27780024906167,316.27780024906167 0 0 0 845.1518792531242,735.2738934743793"/><path class="line" d=" M 719.5597649043104,829.1489821939222 A 276.3764736457002,276.3764736457002 0 0 0 799.2889611828914,738.0510337428861"/><line x1="819.1642071874066" y1="965.4586961844311" x2="719.5597649043104" y2="829.1489821939222"/><text x="556.5" y="894.3468716267087" text-anchor="middle" style="font-color:black;font-weight:normal" transform="rotate(311.1925114624703,556.5,606)">Cantharellales</text><path class="line" d=" M 756.553874643317,850.9695780511967 A 316.27780024906167,316.27780024906167 0 0 0 834.3411546929237,757.1156500475322"/><line x1="838.1004946318359" y1="950.8248851563723" x2="756.553874643317" y2="850.9695780511967"/><text x="556.5" y="932.5475226070735" text-anchor="middle" style="font-color:black;font-weight:normal" transform="rotate(309.65235343376645,556.5,606)">Hydnaceae</text><path class="line" d=" M 793.7344408656654,864.0256306180463 A 350.5102081091011,350.5102081091011 0 0 0 864.4133624807059,773.471690725659"/><line x1="857.8229590178428" y1="933.7308566014672" x2="793.7344408656654" y2="864.0256306180463"/><text x="954.3551040545506" y="606" text-anchor="start" style="font-color:black;font-weight:normal" transform="rotate(397.97265589374103,556.5,606)">5%&#160;&#160;&#160;unidentified</text><path class="line" d=" M 779.7799357412786,876.1915547978061 A 350.5102081091011,350.5102081091011 0 0 0 793.7344408656654,864.0256306180463"/><line x1="840.0986658656066" y1="949.1833864266275" x2="779.7799357412786" y2="876.1915547978061"/><text x="954.3551040545506" y="606" text-anchor="start" style="font-color:black;font-weight:normal" transform="rotate(408.9171800250392,556.5,606)">0.8%&#160;&#160;&#160;Clavulina</text><path class="line" d=" M 778.2067564623329,877.4839224109545 A 350.5102081091011,350.5102081091011 0 0 0 779.7799357412786,876.1915547978061"/><line x1="991.95" y1="606" x2="1011.45" y2="606" class="tick" transform="rotate(412.3034383265208,556.5,606)"/><text x="1014.7" y="606" text-anchor="start" style="font-color:black;font-weight:normal" transform="rotate(412.3034383265208,556.5,606)">3 more</text><path class="line" d=" M 743.1012076671086,861.3656911716254 A 316.27780024906167,316.27780024906167 0 0 0 756.553874643317,850.9695780511967"/><path class="line" d=" M 682.9037010727511,851.7764421988873 A 276.3764736457002,276.3764736457002 0 0 0 719.5597649043104,829.1489821939222"/><line x1="760.1169250416381" y1="1001.9080547760906" x2="682.9037010727511" y2="851.7764421988873"/><text x="556.5" y="910.3074022680532" text-anchor="middle" style="font-color:black;font-weight:normal" transform="rotate(328.31333792108506,556.5,606)">Th...es</text><path class="line" d=" M 701.1529944870786,887.2599475864038 A 316.27780024906167,316.27780024906167 0 0 0 743.1012076671086,861.3656911716254"/><text x="556.5" y="946.2404857510892" text-anchor="middle" style="font-color:black;font-weight:normal" transform="rotate(328.31333792108506,556.5,606)">Thelephoraceae</text><path class="line" d=" M 724.6169575533794,913.5615297329634 A 350.5102081091011,350.5102081091011 0 0 0 763.2980366668238,889.0052614695217"/><line x1="770.0334942355453" y1="996.6488024294434" x2="724.6169575533794" y2="913.5615297329634"/><text x="954.3551040545506" y="606" text-anchor="start" style="font-color:black;font-weight:normal" transform="rotate(417.5910157448326,556.5,606)">2%&#160;&#160;&#160;Tomentella</text><path class="line" d=" M 716.8095480028746,917.7021892893911 A 350.5102081091011,350.5102081091011 0 0 0 724.6169575533794,913.5615297329634"/><path class="line" d=" M 701.1529944870786,887.2599475864038 A 316.27780024906167,316.27780024906167 0 0 0 701.1529944870786,887.2599475864038"/><path class="line" d=" M 666.5435171130479,859.5239229860226 A 276.3764736457002,276.3764736457002 0 0 0 682.9037010727511,851.7764421988873"/><line x1="733.7631844255066" y1="1014.3880549763041" x2="666.5435171130479" y2="859.5239229860226"/><text x="556.5" y="894.3468716267087" text-anchor="middle" style="font-color:black;font-weight:normal" transform="rotate(334.65977398413077,556.5,606)">Boletales</text><path class="line" d=" M 688.3812779061462,893.4699557662108 A 316.27780024906167,316.27780024906167 0 0 0 701.1529944870786,887.2599475864038"/><line x1="742.1391592377989" y1="1010.6494069654411" x2="688.3812779061462" y2="893.4699557662108"/><text x="937.2389001245308" y="606" text-anchor="start" style="font-color:black;font-weight:normal" transform="rotate(424.0695293132467,556.5,606)">0.7%&#160;&#160;&#160;Boletaceae</text><path class="line" d=" M 682.4308401510398,896.1259561453243 A 316.27780024906167,316.27780024906167 0 0 0 688.3812779061462,893.4699557662108"/><path class="line" d=" M 654.5808155302055,864.3875167452217 A 276.3764736457002,276.3764736457002 0 0 0 666.5435171130479,859.5239229860226"/><line x1="714.4931117075632" y1="1022.2225566364243" x2="654.5808155302055" y2="864.3875167452217"/><text x="556.5" y="910.3074022680532" text-anchor="middle" style="font-color:black;font-weight:normal" transform="rotate(337.8751523492882,556.5,606)">Se...es</text><line x1="716.5510496512966" y1="1021.4355563809122" x2="670.2030411304255" y2="901.1326233544473"/><path class="line" d=" M 670.2030411304255,901.1326233544473 A 316.27780024906167,316.27780024906167 0 0 0 682.4308401510398,896.1259561453243"/><text x="937.2389001245308" y="606" text-anchor="start" style="font-color:black;font-weight:normal" transform="rotate(427.73337423618074,556.5,606)">0.7%&#160;&#160;&#160;Sebacina</text><path class="line" d=" M 668.7410463283296,901.6917219833979 A 316.27780024906167,316.27780024906167 0 0 0 670.2030411304255,901.1326233544473"/><line x1="991.95" y1="606" x2="1011.45" y2="606" class="tick" transform="rotate(430.8450307185912,556.5,606)"/><text x="1014.7" y="606" text-anchor="start" style="font-color:black;font-weight:normal" transform="rotate(430.8450307185912,556.5,606)">4 more</text><path class="line" d=" M 639.7173754028166,869.5504194948267 A 276.3764736457002,276.3764736457002 0 0 0 654.5808155302055,864.3875167452217"/><line x1="991.95" y1="606" x2="1011.45" y2="606" class="tick" transform="rotate(433.9335549825472,556.5,606)"/><text x="1014.7" y="606" text-anchor="start" style="font-color:black;font-weight:normal" transform="rotate(433.9335549825472,556.5,606)">2 more</text><path class="line" d=" M 614.3285391066288,827.8624760141489 A 229.2751582669516,229.2751582669516 0 0 0 625.5350979023642,824.6349776589891"/><line x1="596.1414428029484" y1="1049.4316136818625" x2="571.8899006721457" y2="778.1523740539931"/><path class="line" d=" M 571.8899006721457,778.1523740539931 A 172.8389103620029,172.8389103620029 0 0 0 600.094001908304,773.2508652675473"/><text x="556.5" y="795.7697847334875" text-anchor="middle" style="font-color:black;font-weight:normal" transform="rotate(350.1411977348666,556.5,606)">Mortierellaceae</text><path class="line" d=" M 585.819660868749,833.3927344592989 A 229.2751582669516,229.2751582669516 0 0 0 614.3285391066288,827.8624760141489"/><line x1="613.4320859592165" y1="1047.5447628364902" x2="585.819660868749" y2="833.3927344592989"/><text x="893.7375791334757" y="606" text-anchor="start" style="font-color:black;font-weight:normal" transform="rotate(439.0218968419133,556.5,606)">2%&#160;&#160;&#160;Mortierella</text><line x1="991.95" y1="606" x2="1011.45" y2="606" class="tick" transform="rotate(443.7722098316074,556.5,606)"/><text x="1014.7" y="606" text-anchor="start" style="font-color:black;font-weight:normal" transform="rotate(443.7722098316074,556.5,606)">1 more</text><path class="line" d=" M 576.9150900102792,834.3644506008059 A 229.2751582669516,229.2751582669516 0 0 0 585.819660868749,833.3927344592989"/><line x1="567.8167350166718" y1="1051.0561442206617" x2="560.8934684392118" y2="778.7830615835885"/><path class="line" d=" M 560.8934684392118,778.7830615835885 A 172.8389103620029,172.8389103620029 0 0 0 571.8899006721457,778.1523740539931"/><text x="556.5" y="818.344283895467" text-anchor="middle" style="font-color:black;font-weight:normal" transform="rotate(356.71746358126546,556.5,606)">Chytridiomycetes</text><path class="line" d=" M 563.1459073811359,835.1788168950549 A 229.2751582669516,229.2751582669516 0 0 0 576.9150900102792,834.3644506008059"/><line x1="569.4048344724583" y1="1051.0129270563255" x2="563.1459073811359" y2="835.1788168950549"/><text x="556.5" y="849.4055528805761" text-anchor="middle" style="font-color:black;font-weight:normal" transform="rotate(356.61523409970897,556.5,606)">Chytridiales</text><line x1="570.4480233089524" y1="1050.981452024433" x2="565.158817377485" y2="882.2408008720938"/><path class="line" d=" M 565.158817377485,882.2408008720938 A 276.3764736457002,276.3764736457002 0 0 0 581.1090794521712,881.2786740620296"/><text x="917.2882368228501" y="606" text-anchor="start" style="font-color:black;font-weight:normal" transform="rotate(446.54807604613177,556.5,606)">0.9%&#160;&#160;&#160;Rhizidium</text><path class="line" d=" M 564.5112143856234,882.2603403112723 A 276.3764736457002,276.3764736457002 0 0 0 565.158817377485,882.2408008720938"/><path class="line" d=" M 562.3280462983212,835.2010734588307 A 229.2751582669516,229.2751582669516 0 0 0 563.1459073811359,835.1788168950549"/><path class="line" d=" M 556.5,778.8389103620029 A 172.8389103620029,172.8389103620029 0 0 0 560.8934684392118,778.7830615835885"/></svg>