<?xml version="1.0" standalone="no"?><!DOCTYPE svg PUBLIC "-//W3C//DTD SVG 1.1//EN" 	"http://www.w3.org/Graphics/SVG/1.1/DTD/svg11.dtd"><svg width="660" height="741" version="1.1"	xmlns="http://www.w3.org/2000/svg"><title>Krona (snapshot) - all</title><defs>	<style type="text/css">	text {font-size: 16px; font-family: sans-serif; dominant-baseline:central}	path {stroke-width:0.39999999999999997;}	path.wedge {stroke:none}	path.line {fill:none;stroke:black;}	line {stroke:black;stroke-width:0.39999999999999997;}	line.tick {stroke-width:0.7999999999999999;}	line.pattern {stroke-width:0.26666666666666666;}	circle {fill:none;stroke:black;stroke-width:0.39999999999999997;}	rect {stroke:black;stroke-width:0.39999999999999997;}	.highlight {stroke:black;stroke-width:2;}	.searchHighlight {fill:rgb(255, 255, 100);stroke:none;}	</style><pattern id="hiddenPattern" patternUnits="userSpaceOnUse" x="0" y="0" width="9.6" height="9.6"><line class="pattern" x1="0" y1="0" x2="4.8" y2="4.8"/><line class="pattern" x1="4.8" y1="9.6" x2="9.6" y2="4.8"/></pattern></defs><path class="wedge" fill="rgb(207,112,112)" d=" M 282.5,435.475 L 282.5,630.4 A 259.9,259.9 0 1,1 346.63682948757656,118.63798003017303 L 298.5342073718941,307.5344950075432 A 64.975,64.975 0 1 0 282.5,435.475 Z "/><path class="wedge" fill="rgb(207,112,112)" d=" M 282.5,435.475 L 282.5,630.4 A 259.9,259.9 0 1,1 346.63682948757656,118.63798003017303 L 298.5342073718941,307.5344950075432 A 64.975,64.975 0 1 0 282.5,435.475 Z "/><path class="wedge" fill="rgb(207,112,112)" d=" M 282.5,435.475 L 282.5,630.4 A 259.9,259.9 0 1,1 346.63682948757656,118.63798003017303 L 298.5342073718941,307.5344950075432 A 64.975,64.975 0 1 0 282.5,435.475 Z "/><path class="wedge" fill="rgb(207,112,112)" d=" M 282.5,435.475 L 282.5,630.4 A 259.9,259.9 0 1,1 346.63682948757656,118.63798003017303 L 298.5342073718941,307.5344950075432 A 64.975,64.975 0 1 0 282.5,435.475 Z "/><path class="wedge" fill="rgb(207,112,112)" d=" M 282.5,435.475 L 282.5,630.4 A 259.9,259.9 0 1,1 346.63682948757656,118.63798003017303 L 298.5342073718941,307.5344950075432 A 64.975,64.975 0 1 0 282.5,435.475 Z "/><path class="wedge" fill="rgb(207,112,112)" d=" M 282.5,435.475 L 282.5,630.4 A 259.9,259.9 0 1,1 346.63682948757656,118.63798003017303 L 298.5342073718941,307.5344950075432 A 64.975,64.975 0 1 0 282.5,435.475 Z "/><path class="wedge" fill="rgb(112,207,207)" d=" M 298.5342073718941,307.5344950075432 L 346.63682948757656,118.63798003017303 A 259.9,259.9 0 0,1 282.50000000000006,630.4 L 282.5,435.475 A 64.975,64.975 0 0 0 298.5342073718941,307.5344950075432 Z "/><path class="wedge" fill="rgb(123,211,211)" d=" M 308.1253213240991,269.8706854138519 L 346.63682948757656,118.63798003017303 A 259.9,259.9 0 0,1 542.3400668891464,376.0811861681802 L 386.31687495481117,372.7299151684281 A 103.84082071633141,103.84082071633141 0 0 0 308.1253213240991,269.8706854138519 Z "/><path class="wedge" fill="rgb(134,214,214)" d=" M 315.9884104091062,238.9927403084393 L 346.63682948757656,118.63798003017303 A 259.9,259.9 0 0,1 490.13363581079864,214.17890967630558 L 390.9138468695868,288.878490639721 A 135.70421136911088,135.70421136911088 0 0 0 315.9884104091062,238.9927403084393 Z "/><path class="wedge" fill="rgb(145,218,218)" d=" M 322.5508920161027,213.22221365848816 L 346.63682948757656,118.63798003017303 A 259.9,259.9 0 0,1 486.1181941963679,208.98331048399297 L 409.6514412768442,269.63926924222187 A 162.29718428787288,162.29718428787288 0 0 0 322.5508920161027,213.22221365848816 Z "/><path class="wedge" fill="rgb(156,222,222)" d=" M 328.1102213007252,191.39101441634824 L 346.63682948757656,118.63798003017303 A 259.9,259.9 0 0,1 472.48705308553156,193.15026174286186 L 417.60726371627425,244.37962775583395 A 184.8251092354767,184.8251092354767 0 0 0 328.1102213007252,191.39101441634824 Z "/><path class="wedge" fill="rgb(167,225,225)" d=" M 332.8797175480862,172.66144875654987 L 346.63682948757656,118.63798003017303 A 259.9,259.9 0 0,1 429.9649092363275,156.4857235044314 L 398.33423338722116,202.39099169310717 A 204.15241438281396,204.15241438281396 0 0 0 332.8797175480862,172.66144875654987 Z "/><path class="wedge" fill="rgb(167,222,225)" d=" M 398.33423338722116,202.39099169310717 L 429.9649092363275,156.4857235044314 A 259.9,259.9 0 0,1 472.48705308553156,193.15026174286186 L 431.7355351630901,231.19112252652997 A 204.15241438281396,204.15241438281396 0 0 0 398.33423338722116,202.39099169310717 Z "/><path class="wedge" fill="rgb(167,220,225)" d=" M 431.7355351630901,231.19112252652997 L 472.48705308553156,193.15026174286186 A 259.9,259.9 0 0,1 472.48705308553156,193.15026174286186 L 431.7355351630901,231.19112252652997 A 204.15241438281396,204.15241438281396 0 0 0 431.7355351630901,231.19112252652997 Z "/><path class="wedge" fill="url(#hiddenPattern)" d=" M 431.7355351630901,231.19112252652997 L 472.48705308553156,193.15026174286186 A 259.9,259.9 0 0,1 472.48705308553156,193.15026174286186 L 431.7355351630901,231.19112252652997 A 204.15241438281396,204.15241438281396 0 0 0 431.7355351630901,231.19112252652997 Z "/><path class="wedge" fill="rgb(145,210,218)" d=" M 417.60726371627425,244.37962775583395 L 472.48705308553156,193.15026174286186 A 259.9,259.9 0 0,1 486.1181941963679,208.98331048399297 L 427.3009041349527,255.63913126914744 A 184.8251092354767,184.8251092354767 0 0 0 417.60726371627425,244.37962775583395 Z "/><path class="wedge" fill="url(#hiddenPattern)" d=" M 417.60726371627425,244.37962775583395 L 472.48705308553156,193.15026174286186 A 259.9,259.9 0 0,1 486.1181941963679,208.98331048399297 L 427.3009041349527,255.63913126914744 A 184.8251092354767,184.8251092354767 0 0 0 417.60726371627425,244.37962775583395 Z "/><path class="wedge" fill="rgb(134,205,214)" d=" M 409.6514412768442,269.63926924222187 L 486.1181941963679,208.98331048399297 A 259.9,259.9 0 0,1 490.13363581079864,214.17890967630558 L 412.1589244153377,272.88371371933107 A 162.29718428787288,162.29718428787288 0 0 0 409.6514412768442,269.63926924222187 Z "/><path class="wedge" fill="url(#hiddenPattern)" d=" M 409.6514412768442,269.63926924222187 L 486.1181941963679,208.98331048399297 A 259.9,259.9 0 0,1 490.13363581079864,214.17890967630558 L 412.1589244153377,272.88371371933107 A 162.29718428787288,162.29718428787288 0 0 0 409.6514412768442,269.63926924222187 Z "/><path class="wedge" fill="rgb(134,205,214)" d=" M 390.9138468695868,288.878490639721 L 490.13363581079864,214.17890967630558 A 259.9,259.9 0 0,1 530.0071965358504,291.2018432562022 L 411.73343175866535,329.0952526974174 A 135.70421136911088,135.70421136911088 0 0 0 390.9138468695868,288.878490639721 Z "/><path class="wedge" fill="rgb(145,210,218)" d=" M 412.1589244153377,272.88371371933107 L 490.13363581079864,214.17890967630558 A 259.9,259.9 0 0,1 528.7008726149495,287.23451901515597 L 436.24262560455395,318.50402804072485 A 162.29718428787288,162.29718428787288 0 0 0 412.1589244153377,272.88371371933107 Z "/><path class="wedge" fill="rgb(145,210,218)" d=" M 412.1589244153377,272.88371371933107 L 490.13363581079864,214.17890967630558 A 259.9,259.9 0 0,1 528.7008726149495,287.23451901515597 L 436.24262560455395,318.50402804072485 A 162.29718428787288,162.29718428787288 0 0 0 412.1589244153377,272.88371371933107 Z "/><path class="wedge" fill="rgb(156,214,222)" d=" M 430.1564425536362,259.33392614511104 L 490.13363581079864,214.17890967630558 A 259.9,259.9 0 0,1 528.7008726149495,287.23451901515597 L 457.58312110399277,311.28664248338475 A 184.8251092354767,184.8251092354767 0 0 0 430.1564425536362,259.33392614511104 Z "/><path class="wedge" fill="rgb(156,211,222)" d=" M 457.58312110399277,311.28664248338475 L 528.7008726149495,287.23451901515597 A 259.9,259.9 0 0,1 528.7008726149495,287.23451901515597 L 457.58312110399277,311.28664248338475 A 184.8251092354767,184.8251092354767 0 0 0 457.58312110399277,311.28664248338475 Z "/><path class="wedge" fill="url(#hiddenPattern)" d=" M 457.58312110399277,311.28664248338475 L 528.7008726149495,287.23451901515597 A 259.9,259.9 0 0,1 528.7008726149495,287.23451901515597 L 457.58312110399277,311.28664248338475 A 184.8251092354767,184.8251092354767 0 0 0 457.58312110399277,311.28664248338475 Z "/><path class="wedge" fill="rgb(134,201,214)" d=" M 436.24262560455395,318.50402804072485 L 528.7008726149495,287.23451901515597 A 259.9,259.9 0 0,1 530.0071965358504,291.2018432562022 L 437.05837279243434,320.98146379862726 A 162.29718428787288,162.29718428787288 0 0 0 436.24262560455395,318.50402804072485 Z "/><path class="wedge" fill="url(#hiddenPattern)" d=" M 436.24262560455395,318.50402804072485 L 528.7008726149495,287.23451901515597 A 259.9,259.9 0 0,1 530.0071965358504,291.2018432562022 L 437.05837279243434,320.98146379862726 A 162.29718428787288,162.29718428787288 0 0 0 436.24262560455395,318.50402804072485 Z "/><path class="wedge" fill="rgb(134,201,214)" d=" M 411.73343175866535,329.0952526974174 L 530.0071965358504,291.2018432562022 A 259.9,259.9 0 0,1 540.8466680165392,342.12731727960727 L 417.3931544556443,355.6854846748869 A 135.70421136911088,135.70421136911088 0 0 0 411.73343175866535,329.0952526974174 Z "/><path class="wedge" fill="rgb(134,201,214)" d=" M 437.05837279243434,320.98146379862726 L 530.0071965358504,291.2018432562022 A 259.9,259.9 0 0,1 539.8527280082116,334.2014685320265 L 443.20651452303014,347.83301480940037 A 162.29718428787288,162.29718428787288 0 0 0 437.05837279243434,320.98146379862726 Z "/><path class="wedge" fill="url(#hiddenPattern)" d=" M 437.05837279243434,320.98146379862726 L 530.0071965358504,291.2018432562022 A 259.9,259.9 0 0,1 539.8527280082116,334.2014685320265 L 443.20651452303014,347.83301480940037 A 162.29718428787288,162.29718428787288 0 0 0 437.05837279243434,320.98146379862726 Z "/><path class="wedge" fill="rgb(134,198,214)" d=" M 443.20651452303014,347.83301480940037 L 539.8527280082116,334.2014685320265 A 259.9,259.9 0 0,1 540.8466680165392,342.12731727960727 L 443.8271904164609,352.7823912419664 A 162.29718428787288,162.29718428787288 0 0 0 443.20651452303014,347.83301480940037 Z "/><path class="wedge" fill="url(#hiddenPattern)" d=" M 443.20651452303014,347.83301480940037 L 539.8527280082116,334.2014685320265 A 259.9,259.9 0 0,1 540.8466680165392,342.12731727960727 L 443.8271904164609,352.7823912419664 A 162.29718428787288,162.29718428787288 0 0 0 443.20651452303014,347.83301480940037 Z "/><path class="wedge" fill="rgb(123,193,211)" d=" M 417.3931544556443,355.6854846748869 L 540.8466680165392,342.12731727960727 A 259.9,259.9 0 0,1 542.3934531350454,368.655273044069 L 418.2007929884045,369.5367940871645 A 135.70421136911088,135.70421136911088 0 0 0 417.3931544556443,355.6854846748869 Z "/><path class="wedge" fill="url(#hiddenPattern)" d=" M 417.3931544556443,355.6854846748869 L 540.8466680165392,342.12731727960727 A 259.9,259.9 0 0,1 542.3934531350454,368.655273044069 L 418.2007929884045,369.5367940871645 A 135.70421136911088,135.70421136911088 0 0 0 417.3931544556443,355.6854846748869 Z "/><path class="wedge" fill="rgb(123,191,211)" d=" M 418.2007929884045,369.5367940871645 L 542.3934531350454,368.655273044069 A 259.9,259.9 0 0,1 542.3400668891464,376.0811861681802 L 418.1729178887597,373.414161090639 A 135.70421136911088,135.70421136911088 0 0 0 418.2007929884045,369.5367940871645 Z "/><path class="wedge" fill="url(#hiddenPattern)" d=" M 418.2007929884045,369.5367940871645 L 542.3934531350454,368.655273044069 A 259.9,259.9 0 0,1 542.3400668891464,376.0811861681802 L 418.1729178887597,373.414161090639 A 135.70421136911088,135.70421136911088 0 0 0 418.2007929884045,369.5367940871645 Z "/><path class="wedge" fill="rgb(123,190,211)" d=" M 386.31687495481117,372.7299151684281 L 542.3400668891464,376.0811861681802 A 259.9,259.9 0 0,1 348.0528380284156,621.9971877107581 L 308.69107541806625,470.9835489793551 A 103.84082071633141,103.84082071633141 0 0 0 386.31687495481117,372.7299151684281 Z "/><path class="wedge" fill="rgb(134,196,214)" d=" M 418.1729178887597,373.414161090639 L 542.3400668891464,376.0811861681802 A 259.9,259.9 0 0,1 360.7562841977578,618.3385845334817 L 323.360743869695,499.90646272009565 A 135.70421136911088,135.70421136911088 0 0 0 418.1729178887597,373.414161090639 Z "/><path class="wedge" fill="rgb(145,201,218)" d=" M 444.7597584504849,373.98522816499445 L 542.3400668891464,376.0811861681802 A 259.9,259.9 0 0,1 510.8148423563917,494.6786727251342 L 425.07351306491705,448.0446284413027 A 162.29718428787288,162.29718428787288 0 0 0 444.7597584504849,373.98522816499445 Z "/><path class="wedge" fill="rgb(156,206,222)" d=" M 467.28248844378635,374.46900093573464 L 542.3400668891464,376.0811861681802 A 259.9,259.9 0 0,1 528.2483457616174,455.0917286466504 L 457.2613114652891,430.65650437681785 A 184.8251092354767,184.8251092354767 0 0 0 467.28248844378635,374.46900093573464 Z "/><path class="wedge" fill="rgb(167,212,225)" d=" M 486.60533670185123,374.88404244460924 L 542.3400668891464,376.0811861681802 A 259.9,259.9 0 0,1 529.045748273778,452.7387014010002 L 476.16260009968937,435.09880510473835 A 204.15241438281396,204.15241438281396 0 0 0 486.60533670185123,374.88404244460924 Z "/><path class="wedge" fill="rgb(167,209,225)" d=" M 476.16260009968937,435.09880510473835 L 529.045748273778,452.7387014010002 A 259.9,259.9 0 0,1 528.2483457616174,455.0917286466504 L 475.53623746755204,436.94711673732024 A 204.15241438281396,204.15241438281396 0 0 0 476.16260009968937,435.09880510473835 Z "/><path class="wedge" fill="url(#hiddenPattern)" d=" M 476.16260009968937,435.09880510473835 L 529.045748273778,452.7387014010002 A 259.9,259.9 0 0,1 528.2483457616174,455.0917286466504 L 475.53623746755204,436.94711673732024 A 204.15241438281396,204.15241438281396 0 0 0 476.16260009968937,435.09880510473835 Z "/><path class="wedge" fill="rgb(156,203,222)" d=" M 457.2613114652891,430.65650437681785 L 528.2483457616174,455.0917286466504 A 259.9,259.9 0 0,1 519.6985114314375,476.73029781898475 L 451.1811880946822,446.04454174109685 A 184.8251092354767,184.8251092354767 0 0 0 457.2613114652891,430.65650437681785 Z "/><path class="wedge" fill="rgb(156,203,222)" d=" M 457.2613114652891,430.65650437681785 L 528.2483457616174,455.0917286466504 A 259.9,259.9 0 0,1 519.6985114314375,476.73029781898475 L 451.1811880946822,446.04454174109685 A 184.8251092354767,184.8251092354767 0 0 0 457.2613114652891,430.65650437681785 Z "/><path class="wedge" fill="rgb(145,196,218)" d=" M 451.1811880946822,446.04454174109685 L 519.6985114314375,476.73029781898475 A 259.9,259.9 0 0,1 510.8148423563917,494.6786727251342 L 444.86366171066084,458.8083368647151 A 184.8251092354767,184.8251092354767 0 0 0 451.1811880946822,446.04454174109685 Z "/><path class="wedge" fill="url(#hiddenPattern)" d=" M 451.1811880946822,446.04454174109685 L 519.6985114314375,476.73029781898475 A 259.9,259.9 0 0,1 510.8148423563917,494.6786727251342 L 444.86366171066084,458.8083368647151 A 184.8251092354767,184.8251092354767 0 0 0 451.1811880946822,446.04454174109685 Z "/><path class="wedge" fill="rgb(145,195,218)" d=" M 425.07351306491705,448.0446284413027 L 510.8148423563917,494.6786727251342 A 259.9,259.9 0 0,1 435.8387858221181,580.3457213349811 L 378.25395606406687,501.54028359955777 A 162.29718428787288,162.29718428787288 0 0 0 425.07351306491705,448.0446284413027 Z "/><path class="wedge" fill="rgb(156,201,222)" d=" M 444.86366171066084,458.8083368647151 L 510.8148423563917,494.6786727251342 A 259.9,259.9 0 0,1 446.8934603657101,571.8027575295174 L 399.40665359634625,513.6543060784753 A 184.8251092354767,184.8251092354767 0 0 0 444.86366171066084,458.8083368647151 Z "/><path class="wedge" fill="rgb(167,207,225)" d=" M 461.8421558541321,468.04280820196016 L 510.8148423563917,494.6786727251342 A 259.9,259.9 0 0,1 458.40709130444145,561.8235616143785 L 420.67567293905284,520.785367571737 A 204.15241438281396,204.15241438281396 0 0 0 461.8421558541321,468.04280820196016 Z "/><path class="wedge" fill="rgb(167,204,225)" d=" M 420.67567293905284,520.785367571737 L 458.40709130444145,561.8235616143785 A 259.9,259.9 0 0,1 446.8934603657101,571.8027575295174 L 411.6316731142946,528.6240629918013 A 204.15241438281396,204.15241438281396 0 0 0 420.67567293905284,520.785367571737 Z "/><path class="wedge" fill="url(#hiddenPattern)" d=" M 420.67567293905284,520.785367571737 L 458.40709130444145,561.8235616143785 A 259.9,259.9 0 0,1 446.8934603657101,571.8027575295174 L 411.6316731142946,528.6240629918013 A 204.15241438281396,204.15241438281396 0 0 0 420.67567293905284,520.785367571737 Z "/><path class="wedge" fill="rgb(145,190,218)" d=" M 399.40665359634625,513.6543060784753 L 446.8934603657101,571.8027575295174 A 259.9,259.9 0 0,1 435.8387858221181,580.3457213349811 L 391.54523985997827,519.7295435488084 A 184.8251092354767,184.8251092354767 0 0 0 399.40665359634625,513.6543060784753 Z "/><path class="wedge" fill="url(#hiddenPattern)" d=" M 399.40665359634625,513.6543060784753 L 446.8934603657101,571.8027575295174 A 259.9,259.9 0 0,1 435.8387858221181,580.3457213349811 L 391.54523985997827,519.7295435488084 A 184.8251092354767,184.8251092354767 0 0 0 399.40665359634625,513.6543060784753 Z "/><path class="wedge" fill="rgb(145,190,218)" d=" M 378.25395606406687,501.54028359955777 L 435.8387858221181,580.3457213349811 A 259.9,259.9 0 0,1 401.36801172129765,601.6242215550448 L 356.72833245196034,514.8278583267036 A 162.29718428787288,162.29718428787288 0 0 0 378.25395606406687,501.54028359955777 Z "/><path class="wedge" fill="rgb(156,196,222)" d=" M 391.54523985997827,519.7295435488084 L 435.8387858221181,580.3457213349811 A 259.9,259.9 0 0,1 401.36801172129765,601.6242215550448 L 367.0317170103608,534.8615217232616 A 184.8251092354767,184.8251092354767 0 0 0 391.54523985997827,519.7295435488084 Z "/><path class="wedge" fill="rgb(167,203,225)" d=" M 402.9481852409181,535.3345927604447 L 435.8387858221181,580.3457213349811 A 259.9,259.9 0 0,1 407.15713196724664,598.553961705778 L 380.4186397120064,549.6372331350534 A 204.15241438281396,204.15241438281396 0 0 0 402.9481852409181,535.3345927604447 Z "/><path class="wedge" fill="rgb(167,201,225)" d=" M 380.4186397120064,549.6372331350534 L 407.15713196724664,598.553961705778 A 259.9,259.9 0 0,1 401.36801172129765,601.6242215550448 L 375.87126427775127,552.0489336391336 A 204.15241438281396,204.15241438281396 0 0 0 380.4186397120064,549.6372331350534 Z "/><path class="wedge" fill="url(#hiddenPattern)" d=" M 380.4186397120064,549.6372331350534 L 407.15713196724664,598.553961705778 A 259.9,259.9 0 0,1 401.36801172129765,601.6242215550448 L 375.87126427775127,552.0489336391336 A 204.15241438281396,204.15241438281396 0 0 0 380.4186397120064,549.6372331350534 Z "/><path class="wedge" fill="rgb(156,195,222)" d=" M 367.0317170103608,534.8615217232616 L 401.36801172129765,601.6242215550448 A 259.9,259.9 0 0,1 401.36801172129765,601.6242215550448 L 367.0317170103608,534.8615217232616 A 184.8251092354767,184.8251092354767 0 0 0 367.0317170103608,534.8615217232616 Z "/><path class="wedge" fill="url(#hiddenPattern)" d=" M 367.0317170103608,534.8615217232616 L 401.36801172129765,601.6242215550448 A 259.9,259.9 0 0,1 401.36801172129765,601.6242215550448 L 367.0317170103608,534.8615217232616 A 184.8251092354767,184.8251092354767 0 0 0 367.0317170103608,534.8615217232616 Z "/><path class="wedge" fill="rgb(134,179,214)" d=" M 356.72833245196034,514.8278583267036 L 401.36801172129765,601.6242215550448 A 259.9,259.9 0 0,1 360.7562841977578,618.3385845334817 L 331.3679283498563,525.2653113800541 A 162.29718428787288,162.29718428787288 0 0 0 356.72833245196034,514.8278583267036 Z "/><path class="wedge" fill="url(#hiddenPattern)" d=" M 356.72833245196034,514.8278583267036 L 401.36801172129765,601.6242215550448 A 259.9,259.9 0 0,1 360.7562841977578,618.3385845334817 L 331.3679283498563,525.2653113800541 A 162.29718428787288,162.29718428787288 0 0 0 356.72833245196034,514.8278583267036 Z "/><path class="wedge" fill="rgb(123,171,211)" d=" M 323.360743869695,499.90646272009565 L 360.7562841977578,618.3385845334817 A 259.9,259.9 0 0,1 348.0528380284156,621.9971877107581 L 316.727765246838,501.81676614019887 A 135.70421136911088,135.70421136911088 0 0 0 323.360743869695,499.90646272009565 Z "/><path class="wedge" fill="url(#hiddenPattern)" d=" M 323.360743869695,499.90646272009565 L 360.7562841977578,618.3385845334817 A 259.9,259.9 0 0,1 348.0528380284156,621.9971877107581 L 316.727765246838,501.81676614019887 A 135.70421136911088,135.70421136911088 0 0 0 323.360743869695,499.90646272009565 Z "/><path class="wedge" fill="rgb(123,171,211)" d=" M 308.69107541806625,470.9835489793551 L 348.0528380284156,621.9971877107581 A 259.9,259.9 0 0,1 305.6419833434104,629.3676468910962 L 291.74618139047095,473.92835286678303 A 103.84082071633141,103.84082071633141 0 0 0 308.69107541806625,470.9835489793551 Z "/><path class="wedge" fill="rgb(123,171,211)" d=" M 308.69107541806625,470.9835489793551 L 348.0528380284156,621.9971877107581 A 259.9,259.9 0 0,1 305.6419833434104,629.3676468910962 L 291.74618139047095,473.92835286678303 A 103.84082071633141,103.84082071633141 0 0 0 308.69107541806625,470.9835489793551 Z "/><path class="wedge" fill="rgb(123,171,211)" d=" M 308.69107541806625,470.9835489793551 L 348.0528380284156,621.9971877107581 A 259.9,259.9 0 0,1 305.6419833434104,629.3676468910962 L 291.74618139047095,473.92835286678303 A 103.84082071633141,103.84082071633141 0 0 0 308.69107541806625,470.9835489793551 Z "/><path class="wedge" fill="rgb(123,171,211)" d=" M 308.69107541806625,470.9835489793551 L 348.0528380284156,621.9971877107581 A 259.9,259.9 0 0,1 305.6419833434104,629.3676468910962 L 291.74618139047095,473.92835286678303 A 103.84082071633141,103.84082071633141 0 0 0 308.69107541806625,470.9835489793551 Z "/><path class="wedge" fill="rgb(134,178,214)" d=" M 316.727765246838,501.81676614019887 L 348.0528380284156,621.9971877107581 A 259.9,259.9 0 0,1 315.73595943576004,628.2661362560732 L 299.85382710398454,505.0900355455683 A 135.70421136911088,135.70421136911088 0 0 0 316.727765246838,501.81676614019887 Z "/><path class="wedge" fill="rgb(134,176,214)" d=" M 299.85382710398454,505.0900355455683 L 315.73595943576004,628.2661362560732 A 259.9,259.9 0 0,1 305.6419833434104,629.3676468910962 L 294.5833574418415,505.66517841605884 A 135.70421136911088,135.70421136911088 0 0 0 299.85382710398454,505.0900355455683 Z "/><path class="wedge" fill="url(#hiddenPattern)" d=" M 299.85382710398454,505.0900355455683 L 315.73595943576004,628.2661362560732 A 259.9,259.9 0 0,1 305.6419833434104,629.3676468910962 L 294.5833574418415,505.66517841605884 A 135.70421136911088,135.70421136911088 0 0 0 299.85382710398454,505.0900355455683 Z "/><path class="wedge" fill="rgb(112,161,207)" d=" M 291.74618139047095,473.92835286678303 L 305.6419833434104,629.3676468910962 A 259.9,259.9 0 0,1 282.50000000000006,630.4 L 282.50000000000006,474.3408207163314 A 103.84082071633141,103.84082071633141 0 0 0 291.74618139047095,473.92835286678303 Z "/><path class="wedge" fill="url(#hiddenPattern)" d=" M 291.74618139047095,473.92835286678303 L 305.6419833434104,629.3676468910962 A 259.9,259.9 0 0,1 282.50000000000006,630.4 L 282.50000000000006,474.3408207163314 A 103.84082071633141,103.84082071633141 0 0 0 291.74618139047095,473.92835286678303 Z "/><circle cx="282.5" cy="370.5" r="64.975"/><circle cx="282.5" cy="370.5" r="259.9"/><text x="282.5" y="370.5" text-anchor="middle" style="font-color:black;font-weight:bold" transform="rotate(360,282.5,370.5)">all</text><line x1="346.63682948757656" y1="118.63798003017303" x2="298.5342073718941" y2="307.5344950075432"/><path class="line" d=" M 298.5342073718941,307.5344950075432 A 64.975,64.975 0 1 0 282.5,435.475"/><text x="120.0625" y="370.5" text-anchor="end" style="font-color:black;font-weight:normal" transform="rotate(7.143378298828467,282.5,370.5)">unidentified&#160;&#160;&#160;54%</text><path class="line" d=" M 282.5,435.475 A 64.975,64.975 0 0 0 298.5342073718941,307.5344950075432"/><line x1="282.50000000000006" y1="630.4" x2="282.5" y2="435.475"/><text x="282.5" y="447.13474621489945" text-anchor="middle" style="font-color:black;font-weight:normal" transform="rotate(277.14337829882845,282.5,370.5)">Fungi</text><path class="line" d=" M 386.31687495481117,372.7299151684281 A 103.84082071633141,103.84082071633141 0 0 0 308.1253213240991,269.8706854138519"/><line x1="542.3400668891464" y1="376.0811861681802" x2="386.31687495481117" y2="372.7299151684281"/><text x="282.5" y="250.72748395727885" text-anchor="middle" style="font-color:black;font-weight:normal" transform="rotate(412.7586206896552,282.5,370.5)">Ascomycota</text><path class="line" d=" M 390.9138468695868,288.878490639721 A 135.70421136911088,135.70421136911088 0 0 0 315.9884104091062,238.9927403084393"/><line x1="490.13363581079864" y1="214.17890967630558" x2="390.9138468695868" y2="288.878490639721"/><text x="282.5" y="221.4993021715081" text-anchor="middle" style="font-color:black;font-weight:normal" transform="rotate(393.65588544991755,282.5,370.5)">Euro...etes</text><path class="line" d=" M 409.6514412768442,269.63926924222187 A 162.29718428787288,162.29718428787288 0 0 0 322.5508920161027,213.22221365848816"/><line x1="486.1181941963679" y1="208.98331048399297" x2="409.6514412768442" y2="269.63926924222187"/><text x="282.5" y="196.9388532383252" text-anchor="middle" style="font-color:black;font-weight:normal" transform="rotate(392.9320708724743,282.5,370.5)">Eurotiales</text><path class="line" d=" M 417.60726371627425,244.37962775583395 A 184.8251092354767,184.8251092354767 0 0 0 328.1102213007252,191.39101441634824"/><line x1="472.48705308553156" y1="193.15026174286186" x2="417.60726371627425" y2="244.37962775583395"/><text x="282.5" y="176.01123819085467" text-anchor="middle" style="font-color:black;font-weight:normal" transform="rotate(390.6285496347762,282.5,370.5)">Aspergillaceae</text><path class="line" d=" M 398.33423338722116,202.39099169310717 A 204.15241438281396,204.15241438281396 0 0 0 332.8797175480862,172.66144875654987"/><line x1="429.9649092363275" y1="156.4857235044314" x2="398.33423338722116" y2="202.39099169310717"/><text x="514.5262071914069" y="370.5" text-anchor="start" style="font-color:black;font-weight:normal" transform="rotate(294.42762268781456,282.5,370.5)">6%&#160;&#160;&#160;Aspergillus</text><path class="line" d=" M 431.7355351630901,231.19112252652997 A 204.15241438281396,204.15241438281396 0 0 0 398.33423338722116,202.39099169310717"/><text x="514.5262071914069" y="370.5" text-anchor="start" style="font-color:black;font-weight:normal" transform="rotate(310.7694157249339,282.5,370.5)">3%&#160;&#160;&#160;Penicillium</text><path class="line" d=" M 431.7355351630901,231.19112252652997 A 204.15241438281396,204.15241438281396 0 0 0 431.7355351630901,231.19112252652997"/><line x1="530.4" y1="370.5" x2="554.4" y2="370.5" class="tick" transform="rotate(319.2738639095936,282.5,370.5)"/><text x="558.4" y="370.5" text-anchor="start" style="font-color:black;font-weight:normal" transform="rotate(319.2738639095936,282.5,370.5)">2 more</text><path class="line" d=" M 427.3009041349527,255.63913126914744 A 184.8251092354767,184.8251092354767 0 0 0 417.60726371627425,244.37962775583395"/><path class="line" d=" M 412.1589244153377,272.88371371933107 A 162.29718428787288,162.29718428787288 0 0 0 409.6514412768442,269.63926924222187"/><path class="line" d=" M 411.73343175866535,329.0952526974174 A 135.70421136911088,135.70421136911088 0 0 0 390.9138468695868,288.878490639721"/><line x1="530.0071965358504" y1="291.2018432562022" x2="411.73343175866535" y2="329.0952526974174"/><text x="282.5" y="221.4993021715081" text-anchor="middle" style="font-color:black;font-weight:normal" transform="rotate(422.63010836490866,282.5,370.5)">A...s</text><line x1="528.7008726149495" y1="287.23451901515597" x2="436.24262560455395" y2="318.50402804072485"/><path class="line" d=" M 436.24262560455395,318.50402804072485 A 162.29718428787288,162.29718428787288 0 0 0 412.1589244153377,272.88371371933107"/><text x="282.5" y="196.9388532383252" text-anchor="middle" style="font-color:black;font-weight:normal" transform="rotate(422.1697025976072,282.5,370.5)">Archa...aceae</text><path class="line" d=" M 457.58312110399277,311.28664248338475 A 184.8251092354767,184.8251092354767 0 0 0 430.1564425536362,259.33392614511104"/><text x="504.86255461773834" y="370.5" text-anchor="start" style="font-color:black;font-weight:normal" transform="rotate(332.16970259760717,282.5,370.5)">5%&#160;&#160;&#160;Archaeorhizomyces</text><path class="line" d=" M 457.58312110399277,311.28664248338475 A 184.8251092354767,184.8251092354767 0 0 0 457.58312110399277,311.28664248338475"/><path class="line" d=" M 437.05837279243434,320.98146379862726 A 162.29718428787288,162.29718428787288 0 0 0 436.24262560455395,318.50402804072485"/><path class="line" d=" M 417.3931544556443,355.6854846748869 A 135.70421136911088,135.70421136911088 0 0 0 411.73343175866535,329.0952526974174"/><line x1="540.8466680165392" y1="342.12731727960727" x2="417.3931544556443" y2="355.6854846748869"/><text x="282.5" y="221.4993021715081" text-anchor="middle" style="font-color:black;font-weight:normal" transform="rotate(437.9839318138478,282.5,370.5)">L...s</text><path class="line" d=" M 443.20651452303014,347.83301480940037 A 162.29718428787288,162.29718428787288 0 0 0 437.05837279243434,320.98146379862726"/><line x1="539.8527280082116" y1="334.2014685320265" x2="443.20651452303014" y2="347.83301480940037"/><text x="493.59859214393646" y="370.5" text-anchor="start" style="font-color:black;font-weight:normal" transform="rotate(347.10341511139114,282.5,370.5)">3%&#160;&#160;&#160;Helotiales</text><path class="line" d=" M 443.8271904164609,352.7823912419664 A 162.29718428787288,162.29718428787288 0 0 0 443.20651452303014,347.83301480940037"/><path class="line" d=" M 418.2007929884045,369.5367940871645 A 135.70421136911088,135.70421136911088 0 0 0 417.3931544556443,355.6854846748869"/><line x1="542.3934531350454" y1="368.655273044069" x2="418.2007929884045" y2="369.5367940871645"/><text x="480.30210568455544" y="370.5" text-anchor="start" style="font-color:black;font-weight:normal" transform="rotate(356.6629909378084,282.5,370.5)">2%&#160;&#160;&#160;Sordariomycetes</text><path class="line" d=" M 418.1729178887597,373.414161090639 A 135.70421136911088,135.70421136911088 0 0 0 418.2007929884045,369.5367940871645"/><path class="line" d=" M 308.69107541806625,470.9835489793551 A 103.84082071633141,103.84082071633141 0 0 0 386.31687495481117,372.7299151684281"/><line x1="348.0528380284156" y1="621.9971877107581" x2="308.69107541806625" y2="470.9835489793551"/><text x="282.5" y="490.2725160427211" text-anchor="middle" style="font-color:black;font-weight:normal" transform="rotate(308.31068476341295,282.5,370.5)">Basi...cota</text><path class="line" d=" M 323.360743869695,499.90646272009565 A 135.70421136911088,135.70421136911088 0 0 0 418.1729178887597,373.414161090639"/><line x1="360.7562841977578" y1="618.3385845334817" x2="323.360743869695" y2="499.90646272009565"/><text x="282.5" y="519.5006978284919" text-anchor="middle" style="font-color:black;font-weight:normal" transform="rotate(306.85335500078764,282.5,370.5)">Agaricomycetes</text><path class="line" d=" M 425.07351306491705,448.0446284413027 A 162.29718428787288,162.29718428787288 0 0 0 444.7597584504849,373.98522816499445"/><line x1="510.8148423563917" y1="494.6786727251342" x2="425.07351306491705" y2="448.0446284413027"/><text x="282.5" y="544.0611467616748" text-anchor="middle" style="font-color:black;font-weight:normal" transform="rotate(284.8859556756846,282.5,370.5)">Agar...ales</text><path class="line" d=" M 457.2613114652891,430.65650437681785 A 184.8251092354767,184.8251092354767 0 0 0 467.28248844378635,374.46900093573464"/><line x1="528.2483457616174" y1="455.0917286466504" x2="457.2613114652891" y2="430.65650437681785"/><text x="282.5" y="564.9887618091453" text-anchor="middle" style="font-color:black;font-weight:normal" transform="rotate(280.11251046753614,282.5,370.5)">Ino...eae</text><path class="line" d=" M 476.16260009968937,435.09880510473835 A 204.15241438281396,204.15241438281396 0 0 0 486.60533670185123,374.88404244460924"/><line x1="529.045748273778" y1="452.7387014010002" x2="476.16260009968937" y2="435.09880510473835"/><text x="514.5262071914069" y="370.5" text-anchor="start" style="font-color:black;font-weight:normal" transform="rotate(369.8386548490603,282.5,370.5)">5%&#160;&#160;&#160;Inocybe</text><path class="line" d=" M 475.53623746755204,436.94711673732024 A 204.15241438281396,204.15241438281396 0 0 0 476.16260009968937,435.09880510473835"/><line x1="519.6985114314375" y1="476.73029781898475" x2="451.1811880946822" y2="446.04454174109685"/><path class="line" d=" M 451.1811880946822,446.04454174109685 A 184.8251092354767,184.8251092354767 0 0 0 457.2613114652891,430.65650437681785"/><text x="504.86255461773834" y="370.5" text-anchor="start" style="font-color:black;font-weight:normal" transform="rotate(381.559973800068,282.5,370.5)">1%&#160;&#160;&#160;Laccaria</text><line x1="530.4" y1="370.5" x2="554.4" y2="370.5" class="tick" transform="rotate(386.3334190082165,282.5,370.5)"/><text x="558.4" y="370.5" text-anchor="start" style="font-color:black;font-weight:normal" transform="rotate(386.3334190082165,282.5,370.5)">5 more</text><path class="line" d=" M 444.86366171066084,458.8083368647151 A 184.8251092354767,184.8251092354767 0 0 0 451.1811880946822,446.04454174109685"/><path class="line" d=" M 378.25395606406687,501.54028359955777 A 162.29718428787288,162.29718428787288 0 0 0 425.07351306491705,448.0446284413027"/><line x1="435.8387858221181" y1="580.3457213349811" x2="378.25395606406687" y2="501.54028359955777"/><text x="282.5" y="544.0611467616748" text-anchor="middle" style="font-color:black;font-weight:normal" transform="rotate(311.1925114624703,282.5,370.5)">Ca...es</text><path class="line" d=" M 399.40665359634625,513.6543060784753 A 184.8251092354767,184.8251092354767 0 0 0 444.86366171066084,458.8083368647151"/><line x1="446.8934603657101" y1="571.8027575295174" x2="399.40665359634625" y2="513.6543060784753"/><text x="282.5" y="564.9887618091453" text-anchor="middle" style="font-color:black;font-weight:normal" transform="rotate(309.65235343376645,282.5,370.5)">Hy...ae</text><path class="line" d=" M 420.67567293905284,520.785367571737 A 204.15241438281396,204.15241438281396 0 0 0 461.8421558541321,468.04280820196016"/><line x1="458.40709130444145" y1="561.8235616143785" x2="420.67567293905284" y2="520.785367571737"/><text x="514.5262071914069" y="370.5" text-anchor="start" style="font-color:black;font-weight:normal" transform="rotate(397.97265589374103,282.5,370.5)">5%&#160;&#160;&#160;unidentified</text><path class="line" d=" M 411.6316731142946,528.6240629918013 A 204.15241438281396,204.15241438281396 0 0 0 420.67567293905284,520.785367571737"/><path class="line" d=" M 391.54523985997827,519.7295435488084 A 184.8251092354767,184.8251092354767 0 0 0 399.40665359634625,513.6543060784753"/><path class="line" d=" M 356.72833245196034,514.8278583267036 A 162.29718428787288,162.29718428787288 0 0 0 378.25395606406687,501.54028359955777"/><line x1="401.36801172129765" y1="601.6242215550448" x2="356.72833245196034" y2="514.8278583267036"/><text x="282.5" y="544.0611467616748" text-anchor="middle" style="font-color:black;font-weight:normal" transform="rotate(328.31333792108506,282.5,370.5)">Th...es</text><path class="line" d=" M 367.0317170103608,534.8615217232616 A 184.8251092354767,184.8251092354767 0 0 0 391.54523985997827,519.7295435488084"/><text x="282.5" y="564.9887618091453" text-anchor="middle" style="font-color:black;font-weight:normal" transform="rotate(328.31333792108506,282.5,370.5)">Th...ae</text><path class="line" d=" M 380.4186397120064,549.6372331350534 A 204.15241438281396,204.15241438281396 0 0 0 402.9481852409181,535.3345927604447"/><line x1="407.15713196724664" y1="598.553961705778" x2="380.4186397120064" y2="549.6372331350534"/><text x="514.5262071914069" y="370.5" text-anchor="start" style="font-color:black;font-weight:normal" transform="rotate(417.5910157448326,282.5,370.5)">2%&#160;&#160;&#160;Tomentella</text><path class="line" d=" M 375.87126427775127,552.0489336391336 A 204.15241438281396,204.15241438281396 0 0 0 380.4186397120064,549.6372331350534"/><path class="line" d=" M 367.0317170103608,534.8615217232616 A 184.8251092354767,184.8251092354767 0 0 0 367.0317170103608,534.8615217232616"/><line x1="530.4" y1="370.5" x2="554.4" y2="370.5" class="tick" transform="rotate(427.6296523534338,282.5,370.5)"/><text x="558.4" y="370.5" text-anchor="start" style="font-color:black;font-weight:normal" transform="rotate(427.6296523534338,282.5,370.5)">6 more</text><path class="line" d=" M 331.3679283498563,525.2653113800541 A 162.29718428787288,162.29718428787288 0 0 0 356.72833245196034,514.8278583267036"/><path class="line" d=" M 316.727765246838,501.81676614019887 A 135.70421136911088,135.70421136911088 0 0 0 323.360743869695,499.90646272009565"/><line x1="305.6419833434104" y1="629.3676468910962" x2="291.74618139047095" y2="473.92835286678303"/><path class="line" d=" M 291.74618139047095,473.92835286678303 A 103.84082071633141,103.84082071633141 0 0 0 308.69107541806625,470.9835489793551"/><text x="282.5" y="490.2725160427211" text-anchor="middle" style="font-color:black;font-weight:normal" transform="rotate(350.1411977348666,282.5,370.5)">Morti...aceae</text><path class="line" d=" M 299.85382710398454,505.0900355455683 A 135.70421136911088,135.70421136911088 0 0 0 316.727765246838,501.81676614019887"/><line x1="315.73595943576004" y1="628.2661362560732" x2="299.85382710398454" y2="505.0900355455683"/><text x="480.30210568455544" y="370.5" text-anchor="start" style="font-color:black;font-weight:normal" transform="rotate(439.0218968419133,282.5,370.5)">2%&#160;&#160;&#160;Mortierella</text><path class="line" d=" M 294.5833574418415,505.66517841605884 A 135.70421136911088,135.70421136911088 0 0 0 299.85382710398454,505.0900355455683"/><line x1="530.4" y1="370.5" x2="554.4" y2="370.5" class="tick" transform="rotate(447.44575536228035,282.5,370.5)"/><text x="558.4" y="370.5" text-anchor="start" style="font-color:black;font-weight:normal" transform="rotate(447.44575536228035,282.5,370.5)">2 more</text><path class="line" d=" M 282.50000000000006,474.3408207163314 A 103.84082071633141,103.84082071633141 0 0 0 291.74618139047095,473.92835286678303"/></svg>