<?xml version="1.0" standalone="no"?><!DOCTYPE svg PUBLIC "-//W3C//DTD SVG 1.1//EN" 	"http://www.w3.org/Graphics/SVG/1.1/DTD/svg11.dtd"><svg width="550" height="739" version="1.1"	xmlns="http://www.w3.org/2000/svg"><title>Krona (snapshot) - all</title><defs>	<style type="text/css">	text {font-size: 16px; font-family: sans-serif; dominant-baseline:central}	path {stroke-width:0.39999999999999997;}	path.wedge {stroke:none}	path.line {fill:none;stroke:black;}	line {stroke:black;stroke-width:0.39999999999999997;}	line.tick {stroke-width:0.7999999999999999;}	line.pattern {stroke-width:0.26666666666666666;}	circle {fill:none;stroke:black;stroke-width:0.39999999999999997;}	rect {stroke:black;stroke-width:0.39999999999999997;}	.highlight {stroke:black;stroke-width:2;}	.searchHighlight {fill:rgb(255, 255, 100);stroke:none;}	</style><pattern id="hiddenPattern" patternUnits="userSpaceOnUse" x="0" y="0" width="9.6" height="9.6"><line class="pattern" x1="0" y1="0" x2="4.8" y2="4.8"/><line class="pattern" x1="4.8" y1="9.6" x2="9.6" y2="4.8"/></pattern></defs><path class="wedge" fill="rgb(207,112,112)" d=" M 283,417.61 L 283,561.94 A 192.44,192.44 0 1,1 310.16912604119983,178.98755371326158 L 289.7922815103,321.8718884283154 A 48.11,48.11 0 1 0 283,417.61 Z "/><path class="wedge" fill="rgb(211,123,123)" d=" M 283,446.38775505444715 L 283,561.94 A 192.44,192.44 0 0,1 98.783054092085,425.1531260609888 L 209.39769583326694,391.73573022548106 A 76.88775505444715,76.88775505444715 0 0 0 283,446.38775505444715 Z "/><path class="wedge" fill="rgb(214,134,134)" d=" M 283,469.9806403842697 L 283,561.94 A 192.44,192.44 0 0,1 161.35030891084185,518.6123947159068 L 219.48181842035336,447.35756033198044 A 100.48064038426972,100.48064038426972 0 0 0 283,469.9806403842697 Z "/><path class="wedge" fill="rgb(218,145,145)" d=" M 283,489.6711048263111 L 283,561.94 A 192.44,192.44 0 0,1 161.35030891084185,518.6123947159068 L 207.03461972581798,462.6147433813527 A 120.17110482631111,120.17110482631111 0 0 0 283,489.6711048263111 Z "/><path class="wedge" fill="rgb(218,145,145)" d=" M 283,489.6711048263111 L 283,561.94 A 192.44,192.44 0 0,1 161.35030891084185,518.6123947159068 L 207.03461972581798,462.6147433813527 A 120.17110482631111,120.17110482631111 0 0 0 283,489.6711048263111 Z "/><path class="wedge" fill="rgb(222,156,156)" d=" M 283,506.3516507167185 L 283,561.94 A 192.44,192.44 0 0,1 161.65597924195424,518.8612474046429 L 196.70749560724215,475.71665589499884 A 136.8516507167185,136.8516507167185 0 0 0 283,506.3516507167185 Z "/><path class="wedge" fill="rgb(222,163,156)" d=" M 196.70749560724215,475.71665589499884 L 161.65597924195424,518.8612474046429 A 192.44,192.44 0 0,1 161.35030891084185,518.6123947159068 L 196.490121415869,475.53968696318196 A 136.8516507167185,136.8516507167185 0 0 0 196.70749560724215,475.71665589499884 Z "/><path class="wedge" fill="url(#hiddenPattern)" d=" M 196.70749560724215,475.71665589499884 L 161.65597924195424,518.8612474046429 A 192.44,192.44 0 0,1 161.35030891084185,518.6123947159068 L 196.490121415869,475.53968696318196 A 136.8516507167185,136.8516507167185 0 0 0 196.70749560724215,475.71665589499884 Z "/><path class="wedge" fill="rgb(218,153,145)" d=" M 207.03461972581798,462.6147433813527 L 161.35030891084185,518.6123947159068 A 192.44,192.44 0 0,1 161.35030891084185,518.6123947159068 L 207.03461972581798,462.6147433813527 A 120.17110482631111,120.17110482631111 0 0 0 207.03461972581798,462.6147433813527 Z "/><path class="wedge" fill="url(#hiddenPattern)" d=" M 207.03461972581798,462.6147433813527 L 161.35030891084185,518.6123947159068 A 192.44,192.44 0 0,1 161.35030891084185,518.6123947159068 L 207.03461972581798,462.6147433813527 A 120.17110482631111,120.17110482631111 0 0 0 207.03461972581798,462.6147433813527 Z "/><path class="wedge" fill="rgb(214,143,134)" d=" M 219.48181842035336,447.35756033198044 L 161.35030891084185,518.6123947159068 A 192.44,192.44 0 0,1 110.29780601139026,454.39467469470986 L 192.8252595731455,413.8269137317538 A 100.48064038426972,100.48064038426972 0 0 0 219.48181842035336,447.35756033198044 Z "/><path class="wedge" fill="rgb(218,153,145)" d=" M 207.03461972581798,462.6147433813527 L 161.35030891084185,518.6123947159068 A 192.44,192.44 0 0,1 110.82948445775054,455.4678264114898 L 175.48637980031341,423.1834788993206 A 120.17110482631111,120.17110482631111 0 0 0 207.03461972581798,462.6147433813527 Z "/><path class="wedge" fill="rgb(222,163,156)" d=" M 196.490121415869,475.53968696318196 L 161.35030891084185,518.6123947159068 A 192.44,192.44 0 0,1 112.83586425006533,459.37391448288986 L 161.98959223569773,433.41287441985384 A 136.8516507167185,136.8516507167185 0 0 0 196.490121415869,475.53968696318196 Z "/><path class="wedge" fill="rgb(222,163,156)" d=" M 196.490121415869,475.53968696318196 L 161.35030891084185,518.6123947159068 A 192.44,192.44 0 0,1 112.83586425006533,459.37391448288986 L 161.98959223569773,433.41287441985384 A 136.8516507167185,136.8516507167185 0 0 0 196.490121415869,475.53968696318196 Z "/><path class="wedge" fill="rgb(218,157,145)" d=" M 161.98959223569773,433.41287441985384 L 112.83586425006533,459.37391448288986 A 192.44,192.44 0 0,1 110.82948445775054,455.4678264114898 L 160.5627766747803,430.63510160538704 A 136.8516507167185,136.8516507167185 0 0 0 161.98959223569773,433.41287441985384 Z "/><path class="wedge" fill="url(#hiddenPattern)" d=" M 161.98959223569773,433.41287441985384 L 112.83586425006533,459.37391448288986 A 192.44,192.44 0 0,1 110.82948445775054,455.4678264114898 L 160.5627766747803,430.63510160538704 A 136.8516507167185,136.8516507167185 0 0 0 161.98959223569773,433.41287441985384 Z "/><path class="wedge" fill="rgb(214,148,134)" d=" M 175.48637980031341,423.1834788993206 L 110.82948445775054,455.4678264114898 A 192.44,192.44 0 0,1 110.29780601139026,454.39467469470986 L 175.15436781573925,422.5133384531987 A 120.17110482631111,120.17110482631111 0 0 0 175.48637980031341,423.1834788993206 Z "/><path class="wedge" fill="url(#hiddenPattern)" d=" M 175.48637980031341,423.1834788993206 L 110.82948445775054,455.4678264114898 A 192.44,192.44 0 0,1 110.29780601139026,454.39467469470986 L 175.15436781573925,422.5133384531987 A 120.17110482631111,120.17110482631111 0 0 0 175.48637980031341,423.1834788993206 Z "/><path class="wedge" fill="rgb(214,148,134)" d=" M 192.8252595731455,413.8269137317538 L 110.29780601139026,454.39467469470986 A 192.44,192.44 0 0,1 100.97926704572498,431.9628399513542 L 187.95967672802067,402.11435334926324 A 100.48064038426972,100.48064038426972 0 0 0 192.8252595731455,413.8269137317538 Z "/><path class="wedge" fill="rgb(214,148,134)" d=" M 175.15436781573925,422.5133384531987 L 110.29780601139026,454.39467469470986 A 192.44,192.44 0 0,1 101.08944398928108,432.28298505065754 L 169.40411299430139,408.7054701612518 A 120.17110482631111,120.17110482631111 0 0 0 175.15436781573925,422.5133384531987 Z "/><path class="wedge" fill="url(#hiddenPattern)" d=" M 175.15436781573925,422.5133384531987 L 110.29780601139026,454.39467469470986 A 192.44,192.44 0 0,1 101.08944398928108,432.28298505065754 L 169.40411299430139,408.7054701612518 A 120.17110482631111,120.17110482631111 0 0 0 175.15436781573925,422.5133384531987 Z "/><path class="wedge" fill="rgb(214,149,134)" d=" M 169.40411299430139,408.7054701612518 L 101.08944398928108,432.28298505065754 A 192.44,192.44 0 0,1 100.97926704572498,431.9628399513542 L 169.3353118872887,408.5055523152322 A 120.17110482631111,120.17110482631111 0 0 0 169.40411299430139,408.7054701612518 Z "/><path class="wedge" fill="url(#hiddenPattern)" d=" M 169.40411299430139,408.7054701612518 L 101.08944398928108,432.28298505065754 A 192.44,192.44 0 0,1 100.97926704572498,431.9628399513542 L 169.3353118872887,408.5055523152322 A 120.17110482631111,120.17110482631111 0 0 0 169.40411299430139,408.7054701612518 Z "/><path class="wedge" fill="rgb(211,140,123)" d=" M 187.95967672802067,402.11435334926324 L 100.97926704572498,431.9628399513542 A 192.44,192.44 0 0,1 98.783054092085,425.1531260609888 L 186.81294588203247,398.55872867384454 A 100.48064038426972,100.48064038426972 0 0 0 187.95967672802067,402.11435334926324 Z "/><path class="wedge" fill="url(#hiddenPattern)" d=" M 187.95967672802067,402.11435334926324 L 100.97926704572498,431.9628399513542 A 192.44,192.44 0 0,1 98.783054092085,425.1531260609888 L 186.81294588203247,398.55872867384454 A 100.48064038426972,100.48064038426972 0 0 0 187.95967672802067,402.11435334926324 Z "/><path class="wedge" fill="rgb(211,140,123)" d=" M 209.39769583326694,391.73573022548106 L 98.783054092085,425.1531260609888 A 192.44,192.44 0 0,1 151.14608199056752,229.32975385067678 L 230.3188954953315,313.4961777600773 A 76.88775505444715,76.88775505444715 0 0 0 209.39769583326694,391.73573022548106 Z "/><path class="wedge" fill="rgb(214,150,134)" d=" M 186.81294588203247,398.55872867384454 L 98.783054092085,425.1531260609888 A 192.44,192.44 0 0,1 151.14608199056752,229.32975385067678 L 214.15378238015606,296.31149399342803 A 100.48064038426972,100.48064038426972 0 0 0 186.81294588203247,398.55872867384454 Z "/><path class="wedge" fill="rgb(218,159,145)" d=" M 167.9638644903194,404.2531575856734 L 98.783054092085,425.1531260609888 A 192.44,192.44 0 0,1 102.54738836813326,302.6418774176341 L 170.31454111102335,327.7497689807948 A 120.17110482631111,120.17110482631111 0 0 0 167.9638644903194,404.2531575856734 Z "/><path class="wedge" fill="rgb(222,169,156)" d=" M 151.99608637762103,409.07712621592157 L 98.783054092085,425.1531260609888 A 192.44,192.44 0 0,1 91.14230146548701,354.54081843682854 L 146.56244675141008,358.86193779728166 A 136.8516507167185,136.8516507167185 0 0 0 151.99608637762103,409.07712621592157 Z "/><path class="wedge" fill="rgb(225,178,167)" d=" M 138.2969054354402,413.21573702694104 L 98.783054092085,425.1531260609888 A 192.44,192.44 0 0,1 90.73913082803767,361.1986877397858 L 131.97837386381516,362.97928841682034 A 151.16233406628982,151.16233406628982 0 0 0 138.2969054354402,413.21573702694104 Z "/><path class="wedge" fill="rgb(225,181,167)" d=" M 131.97837386381516,362.97928841682034 L 90.73913082803767,361.1986877397858 A 192.44,192.44 0 0,1 91.14230146548701,354.54081843682854 L 132.2950658955333,357.7495073747121 A 151.16233406628982,151.16233406628982 0 0 0 131.97837386381516,362.97928841682034 Z "/><path class="wedge" fill="url(#hiddenPattern)" d=" M 131.97837386381516,362.97928841682034 L 90.73913082803767,361.1986877397858 A 192.44,192.44 0 0,1 91.14230146548701,354.54081843682854 L 132.2950658955333,357.7495073747121 A 151.16233406628982,151.16233406628982 0 0 0 131.97837386381516,362.97928841682034 Z "/><path class="wedge" fill="rgb(222,172,156)" d=" M 146.56244675141008,358.86193779728166 L 91.14230146548701,354.54081843682854 A 192.44,192.44 0 0,1 94.38584474974544,331.3181451572495 L 148.8690579165623,342.3473817155657 A 136.8516507167185,136.8516507167185 0 0 0 146.56244675141008,358.86193779728166 Z "/><path class="wedge" fill="rgb(225,182,167)" d=" M 132.2950658955333,357.7495073747121 L 91.14230146548701,354.54081843682854 A 192.44,192.44 0 0,1 94.38584474974544,331.3181451572495 L 134.84288118078345,339.5080113437412 A 151.16233406628982,151.16233406628982 0 0 0 132.2950658955333,357.7495073747121 Z "/><path class="wedge" fill="rgb(225,183,167)" d=" M 134.84288118078345,339.5080113437412 L 94.38584474974544,331.3181451572495 A 192.44,192.44 0 0,1 94.38584474974544,331.3181451572495 L 134.84288118078345,339.5080113437412 A 151.16233406628982,151.16233406628982 0 0 0 134.84288118078345,339.5080113437412 Z "/><path class="wedge" fill="url(#hiddenPattern)" d=" M 134.84288118078345,339.5080113437412 L 94.38584474974544,331.3181451572495 A 192.44,192.44 0 0,1 94.38584474974544,331.3181451572495 L 134.84288118078345,339.5080113437412 A 151.16233406628982,151.16233406628982 0 0 0 134.84288118078345,339.5080113437412 Z "/><path class="wedge" fill="rgb(222,174,156)" d=" M 148.8690579165623,342.3473817155657 L 94.38584474974544,331.3181451572495 A 192.44,192.44 0 0,1 100.30542416857762,309.0364112727614 L 153.0787035984158,326.5019646353182 A 136.8516507167185,136.8516507167185 0 0 0 148.8690579165623,342.3473817155657 Z "/><path class="wedge" fill="rgb(222,174,156)" d=" M 148.8690579165623,342.3473817155657 L 94.38584474974544,331.3181451572495 A 192.44,192.44 0 0,1 100.30542416857762,309.0364112727614 L 153.0787035984158,326.5019646353182 A 136.8516507167185,136.8516507167185 0 0 0 148.8690579165623,342.3473817155657 Z "/><path class="wedge" fill="rgb(218,166,145)" d=" M 153.0787035984158,326.5019646353182 L 100.30542416857762,309.0364112727614 A 192.44,192.44 0 0,1 102.54738836813326,302.6418774176341 L 154.67305249447162,321.95456017866616 A 136.8516507167185,136.8516507167185 0 0 0 153.0787035984158,326.5019646353182 Z "/><path class="wedge" fill="url(#hiddenPattern)" d=" M 153.0787035984158,326.5019646353182 L 100.30542416857762,309.0364112727614 A 192.44,192.44 0 0,1 102.54738836813326,302.6418774176341 L 154.67305249447162,321.95456017866616 A 136.8516507167185,136.8516507167185 0 0 0 153.0787035984158,326.5019646353182 Z "/><path class="wedge" fill="rgb(218,166,145)" d=" M 170.31454111102335,327.7497689807948 L 102.54738836813326,302.6418774176341 A 192.44,192.44 0 0,1 117.66022800850604,271.0321707469856 L 179.7519067140501,308.01076786955264 A 120.17110482631111,120.17110482631111 0 0 0 170.31454111102335,327.7497689807948 Z "/><path class="wedge" fill="rgb(218,166,145)" d=" M 154.67305249447162,321.95456017866616 L 102.54738836813326,302.6418774176341 A 192.44,192.44 0 0,1 111.47423701130384,282.2528439939408 L 161.0212855672018,307.4551168168351 A 136.8516507167185,136.8516507167185 0 0 0 154.67305249447162,321.95456017866616 Z "/><path class="wedge" fill="url(#hiddenPattern)" d=" M 154.67305249447162,321.95456017866616 L 102.54738836813326,302.6418774176341 A 192.44,192.44 0 0,1 111.47423701130384,282.2528439939408 L 161.0212855672018,307.4551168168351 A 136.8516507167185,136.8516507167185 0 0 0 154.67305249447162,321.95456017866616 Z "/><path class="wedge" fill="rgb(218,168,145)" d=" M 161.0212855672018,307.4551168168351 L 111.47423701130384,282.2528439939408 A 192.44,192.44 0 0,1 117.66022800850604,271.0321707469856 L 165.42038699770418,299.4756548754573 A 136.8516507167185,136.8516507167185 0 0 0 161.0212855672018,307.4551168168351 Z "/><path class="wedge" fill="url(#hiddenPattern)" d=" M 161.0212855672018,307.4551168168351 L 111.47423701130384,282.2528439939408 A 192.44,192.44 0 0,1 117.66022800850604,271.0321707469856 L 165.42038699770418,299.4756548754573 A 136.8516507167185,136.8516507167185 0 0 0 161.0212855672018,307.4551168168351 Z "/><path class="wedge" fill="rgb(218,168,145)" d=" M 179.7519067140501,308.01076786955264 L 117.66022800850604,271.0321707469856 A 192.44,192.44 0 0,1 136.2574174100177,245.00193553784771 L 191.36510977497204,291.7559241573782 A 120.17110482631111,120.17110482631111 0 0 0 179.7519067140501,308.01076786955264 Z "/><path class="wedge" fill="rgb(222,177,156)" d=" M 165.42038699770418,299.4756548754573 L 117.66022800850604,271.0321707469856 A 192.44,192.44 0 0,1 136.2574174100177,245.00193553784771 L 178.6455796202792,280.9645311126483 A 136.8516507167185,136.8516507167185 0 0 0 165.42038699770418,299.4756548754573 Z "/><path class="wedge" fill="rgb(225,186,167)" d=" M 153.12499559227604,292.15315474783546 L 117.66022800850604,271.0321707469856 A 192.44,192.44 0 0,1 132.26322628928173,249.86898959181315 L 164.59570492759133,275.52939742252056 A 151.16233406628982,151.16233406628982 0 0 0 153.12499559227604,292.15315474783546 Z "/><path class="wedge" fill="rgb(225,187,167)" d=" M 164.59570492759133,275.52939742252056 L 132.26322628928173,249.86898959181315 A 192.44,192.44 0 0,1 136.2574174100177,245.00193553784771 L 167.7331568737423,271.7063084034798 A 151.16233406628982,151.16233406628982 0 0 0 164.59570492759133,275.52939742252056 Z "/><path class="wedge" fill="url(#hiddenPattern)" d=" M 164.59570492759133,275.52939742252056 L 132.26322628928173,249.86898959181315 A 192.44,192.44 0 0,1 136.2574174100177,245.00193553784771 L 167.7331568737423,271.7063084034798 A 151.16233406628982,151.16233406628982 0 0 0 164.59570492759133,275.52939742252056 Z "/><path class="wedge" fill="rgb(222,179,156)" d=" M 178.6455796202792,280.9645311126483 L 136.2574174100177,245.00193553784771 A 192.44,192.44 0 0,1 136.2574174100177,245.00193553784771 L 178.6455796202792,280.9645311126483 A 136.8516507167185,136.8516507167185 0 0 0 178.6455796202792,280.9645311126483 Z "/><path class="wedge" fill="url(#hiddenPattern)" d=" M 178.6455796202792,280.9645311126483 L 136.2574174100177,245.00193553784771 A 192.44,192.44 0 0,1 136.2574174100177,245.00193553784771 L 178.6455796202792,280.9645311126483 A 136.8516507167185,136.8516507167185 0 0 0 178.6455796202792,280.9645311126483 Z "/><path class="wedge" fill="rgb(214,163,134)" d=" M 191.36510977497204,291.7559241573782 L 136.2574174100177,245.00193553784771 A 192.44,192.44 0 0,1 151.14608199056752,229.32975385067678 L 200.66248699401714,281.96927175462406 A 120.17110482631111,120.17110482631111 0 0 0 191.36510977497204,291.7559241573782 Z "/><path class="wedge" fill="url(#hiddenPattern)" d=" M 191.36510977497204,291.7559241573782 L 136.2574174100177,245.00193553784771 A 192.44,192.44 0 0,1 151.14608199056752,229.32975385067678 L 200.66248699401714,281.96927175462406 A 120.17110482631111,120.17110482631111 0 0 0 191.36510977497204,291.7559241573782 Z "/><path class="wedge" fill="rgb(214,163,134)" d=" M 214.15378238015606,296.31149399342803 L 151.14608199056752,229.32975385067678 A 192.44,192.44 0 0,1 151.14608199056752,229.32975385067678 L 214.15378238015606,296.31149399342803 A 100.48064038426972,100.48064038426972 0 0 0 214.15378238015606,296.31149399342803 Z "/><path class="wedge" fill="url(#hiddenPattern)" d=" M 214.15378238015606,296.31149399342803 L 151.14608199056752,229.32975385067678 A 192.44,192.44 0 0,1 151.14608199056752,229.32975385067678 L 214.15378238015606,296.31149399342803 A 100.48064038426972,100.48064038426972 0 0 0 214.15378238015606,296.31149399342803 Z "/><path class="wedge" fill="rgb(211,155,123)" d=" M 230.3188954953315,313.4961777600773 L 151.14608199056752,229.32975385067678 A 192.44,192.44 0 0,1 292.4787418641593,177.29358217615982 L 286.78715019058313,292.7055707049878 A 76.88775505444715,76.88775505444715 0 0 0 230.3188954953315,313.4961777600773 Z "/><path class="wedge" fill="rgb(211,155,123)" d=" M 230.3188954953315,313.4961777600773 L 151.14608199056752,229.32975385067678 A 192.44,192.44 0 0,1 292.4787418641593,177.29358217615982 L 286.78715019058313,292.7055707049878 A 76.88775505444715,76.88775505444715 0 0 0 230.3188954953315,313.4961777600773 Z "/><path class="wedge" fill="rgb(211,155,123)" d=" M 230.3188954953315,313.4961777600773 L 151.14608199056752,229.32975385067678 A 192.44,192.44 0 0,1 292.4787418641593,177.29358217615982 L 286.78715019058313,292.7055707049878 A 76.88775505444715,76.88775505444715 0 0 0 230.3188954953315,313.4961777600773 Z "/><path class="wedge" fill="rgb(211,155,123)" d=" M 230.3188954953315,313.4961777600773 L 151.14608199056752,229.32975385067678 A 192.44,192.44 0 0,1 292.4787418641593,177.29358217615982 L 286.78715019058313,292.7055707049878 A 76.88775505444715,76.88775505444715 0 0 0 230.3188954953315,313.4961777600773 Z "/><path class="wedge" fill="rgb(214,163,134)" d=" M 214.15378238015606,296.31149399342803 L 151.14608199056752,229.32975385067678 A 192.44,192.44 0 0,1 283.97781566881935,177.06248422795048 L 283.51055676876297,269.0206567307548 A 100.48064038426972,100.48064038426972 0 0 0 214.15378238015606,296.31149399342803 Z "/><path class="wedge" fill="rgb(214,172,134)" d=" M 283.51055676876297,269.0206567307548 L 283.97781566881935,177.06248422795048 A 192.44,192.44 0 0,1 292.4787418641593,177.29358217615982 L 287.94923120218203,269.1413222359906 A 100.48064038426972,100.48064038426972 0 0 0 283.51055676876297,269.0206567307548 Z "/><path class="wedge" fill="url(#hiddenPattern)" d=" M 283.51055676876297,269.0206567307548 L 283.97781566881935,177.06248422795048 A 192.44,192.44 0 0,1 292.4787418641593,177.29358217615982 L 287.94923120218203,269.1413222359906 A 100.48064038426972,100.48064038426972 0 0 0 283.51055676876297,269.0206567307548 Z "/><path class="wedge" fill="rgb(207,159,112)" d=" M 286.78715019058313,292.7055707049878 L 292.4787418641593,177.29358217615982 A 192.44,192.44 0 0,1 310.16912604119983,178.98755371326158 L 293.85519179016404,293.38238253524077 A 76.88775505444715,76.88775505444715 0 0 0 286.78715019058313,292.7055707049878 Z "/><path class="wedge" fill="url(#hiddenPattern)" d=" M 286.78715019058313,292.7055707049878 L 292.4787418641593,177.29358217615982 A 192.44,192.44 0 0,1 310.16912604119983,178.98755371326158 L 293.85519179016404,293.38238253524077 A 76.88775505444715,76.88775505444715 0 0 0 286.78715019058313,292.7055707049878 Z "/><path class="wedge" fill="rgb(112,207,207)" d=" M 289.7922815103,321.8718884283154 L 310.16912604119983,178.98755371326158 A 192.44,192.44 0 0,1 283.00000000000006,561.94 L 283,417.61 A 48.11,48.11 0 0 0 289.7922815103,321.8718884283154 Z "/><path class="wedge" fill="rgb(112,207,207)" d=" M 289.7922815103,321.8718884283154 L 310.16912604119983,178.98755371326158 A 192.44,192.44 0 0,1 283.00000000000006,561.94 L 283,417.61 A 48.11,48.11 0 0 0 289.7922815103,321.8718884283154 Z "/><path class="wedge" fill="rgb(112,207,207)" d=" M 289.7922815103,321.8718884283154 L 310.16912604119983,178.98755371326158 A 192.44,192.44 0 0,1 283.00000000000006,561.94 L 283,417.61 A 48.11,48.11 0 0 0 289.7922815103,321.8718884283154 Z "/><path class="wedge" fill="rgb(112,207,207)" d=" M 289.7922815103,321.8718884283154 L 310.16912604119983,178.98755371326158 A 192.44,192.44 0 0,1 283.00000000000006,561.94 L 283,417.61 A 48.11,48.11 0 0 0 289.7922815103,321.8718884283154 Z "/><path class="wedge" fill="rgb(112,207,207)" d=" M 289.7922815103,321.8718884283154 L 310.16912604119983,178.98755371326158 A 192.44,192.44 0 0,1 283.00000000000006,561.94 L 283,417.61 A 48.11,48.11 0 0 0 289.7922815103,321.8718884283154 Z "/><path class="wedge" fill="rgb(112,207,207)" d=" M 289.7922815103,321.8718884283154 L 310.16912604119983,178.98755371326158 A 192.44,192.44 0 0,1 283.00000000000006,561.94 L 283,417.61 A 48.11,48.11 0 0 0 289.7922815103,321.8718884283154 Z "/><circle cx="283" cy="369.5" r="48.11"/><circle cx="283" cy="369.5" r="192.44"/><text x="283" y="369.5" text-anchor="middle" style="font-color:black;font-weight:bold" transform="rotate(360,283,369.5)">all</text><path class="line" d=" M 289.7922815103,321.8718884283154 A 48.11,48.11 0 1 0 283,417.61"/><line x1="310.16912604119983" y1="178.98755371326158" x2="289.7922815103" y2="321.8718884283154"/><text x="283" y="307.00112247277644" text-anchor="middle" style="font-color:black;font-weight:normal" transform="rotate(274.05813394629615,283,369.5)">Fungi</text><path class="line" d=" M 209.39769583326694,391.73573022548106 A 76.88775505444715,76.88775505444715 0 0 0 283,446.38775505444715"/><line x1="98.783054092085" y1="425.1531260609888" x2="209.39769583326694" y2="391.73573022548106"/><text x="283" y="458.18419771935845" text-anchor="middle" style="font-color:black;font-weight:normal" transform="rotate(36.59504753944207,283,369.5)">Asco...cota</text><path class="line" d=" M 219.48181842035336,447.35756033198044 A 100.48064038426972,100.48064038426972 0 0 0 283,469.9806403842697"/><line x1="161.35030891084185" y1="518.6123947159068" x2="219.48181842035336" y2="447.35756033198044"/><text x="283" y="479.82587260529044" text-anchor="middle" style="font-color:black;font-weight:normal" transform="rotate(19.604221084526166,283,369.5)">Arc...tes</text><path class="line" d=" M 207.03461972581798,462.6147433813527 A 120.17110482631111,120.17110482631111 0 0 0 283,489.6711048263111"/><path class="line" d=" M 196.70749560724215,475.71665589499884 A 136.8516507167185,136.8516507167185 0 0 0 283,506.3516507167185"/><line x1="161.65597924195424" y1="518.8612474046429" x2="196.70749560724215" y2="475.71665589499884"/><text x="118.35417464164075" y="369.5" text-anchor="end" style="font-color:black;font-weight:normal" transform="rotate(-70.45445616967923,283,369.5)">Archaeorhizomyces&#160;&#160;&#160;11%</text><path class="line" d=" M 196.490121415869,475.53968696318196 A 136.8516507167185,136.8516507167185 0 0 0 196.70749560724215,475.71665589499884"/><path class="line" d=" M 207.03461972581798,462.6147433813527 A 120.17110482631111,120.17110482631111 0 0 0 207.03461972581798,462.6147433813527"/><path class="line" d=" M 192.8252595731455,413.8269137317538 A 100.48064038426972,100.48064038426972 0 0 0 219.48181842035336,447.35756033198044"/><line x1="110.29780601139026" y1="454.39467469470986" x2="192.8252595731455" y2="413.8269137317538"/><text x="283" y="479.82587260529044" text-anchor="middle" style="font-color:black;font-weight:normal" transform="rotate(51.515620102392624,283,369.5)">L...s</text><path class="line" d=" M 175.48637980031341,423.1834788993206 A 120.17110482631111,120.17110482631111 0 0 0 207.03461972581798,462.6147433813527"/><line x1="110.82948445775054" y1="455.4678264114898" x2="175.48637980031341" y2="423.1834788993206"/><line x1="112.83586425006533" y1="459.37391448288986" x2="161.98959223569773" y2="433.41287441985384"/><path class="line" d=" M 161.98959223569773,433.41287441985384 A 136.8516507167185,136.8516507167185 0 0 0 196.490121415869,475.53968696318196"/><text x="118.35417464164075" y="369.5" text-anchor="end" style="font-color:black;font-weight:normal" transform="rotate(-39.31639327134051,283,369.5)">Oidiodendron&#160;&#160;&#160;6%</text><path class="line" d=" M 160.5627766747803,430.63510160538704 A 136.8516507167185,136.8516507167185 0 0 0 161.98959223569773,433.41287441985384"/><path class="line" d=" M 175.15436781573925,422.5133384531987 A 120.17110482631111,120.17110482631111 0 0 0 175.48637980031341,423.1834788993206"/><path class="line" d=" M 187.95967672802067,402.11435334926324 A 100.48064038426972,100.48064038426972 0 0 0 192.8252595731455,413.8269137317538"/><line x1="100.97926704572498" y1="431.9628399513542" x2="187.95967672802067" y2="402.11435334926324"/><text x="283" y="479.82587260529044" text-anchor="middle" style="font-color:black;font-weight:normal" transform="rotate(67.44122871173339,283,369.5)">E...s</text><path class="line" d=" M 169.40411299430139,408.7054701612518 A 120.17110482631111,120.17110482631111 0 0 0 175.15436781573925,422.5133384531987"/><line x1="101.08944398928108" y1="432.28298505065754" x2="169.40411299430139" y2="408.7054701612518"/><text x="126.69444758684443" y="369.5" text-anchor="end" style="font-color:black;font-weight:normal" transform="rotate(-22.609173545084104,283,369.5)">Eurotiales&#160;&#160;&#160;2%</text><path class="line" d=" M 169.3353118872887,408.5055523152322 A 120.17110482631111,120.17110482631111 0 0 0 169.40411299430139,408.7054701612518"/><path class="line" d=" M 186.81294588203247,398.55872867384454 A 100.48064038426972,100.48064038426972 0 0 0 187.95967672802067,402.11435334926324"/><path class="line" d=" M 230.3188954953315,313.4961777600773 A 76.88775505444715,76.88775505444715 0 0 0 209.39769583326694,391.73573022548106"/><line x1="151.14608199056752" y1="229.32975385067678" x2="230.3188954953315" y2="313.4961777600773"/><text x="283" y="280.81580228064155" text-anchor="middle" style="font-color:black;font-weight:normal" transform="rotate(284.9705986835231,283,369.5)">Basi...cota</text><path class="line" d=" M 214.15378238015606,296.31149399342803 A 100.48064038426972,100.48064038426972 0 0 0 186.81294588203247,398.55872867384454"/><text x="283" y="259.17412739470956" text-anchor="middle" style="font-color:black;font-weight:normal" transform="rotate(284.9705986835231,283,369.5)">Agaricomycetes</text><path class="line" d=" M 170.31454111102335,327.7497689807948 A 120.17110482631111,120.17110482631111 0 0 0 167.9638644903194,404.2531575856734"/><line x1="102.54738836813326" y1="302.6418774176341" x2="170.31454111102335" y2="327.7497689807948"/><path class="line" d=" M 146.56244675141008,358.86193779728166 A 136.8516507167185,136.8516507167185 0 0 0 151.99608637762103,409.07712621592157"/><line x1="91.14230146548701" y1="354.54081843682854" x2="146.56244675141008" y2="358.86193779728166"/><path class="line" d=" M 131.97837386381516,362.97928841682034 A 151.16233406628982,151.16233406628982 0 0 0 138.2969054354402,413.21573702694104"/><line x1="90.73913082803767" y1="361.1986877397858" x2="131.97837386381516" y2="362.97928841682034"/><text x="111.1988329668551" y="369.5" text-anchor="end" style="font-color:black;font-weight:normal" transform="rotate(-7.1687806916727554,283,369.5)">Amanita&#160;&#160;&#160;5%</text><path class="line" d=" M 132.2950658955333,357.7495073747121 A 151.16233406628982,151.16233406628982 0 0 0 131.97837386381516,362.97928841682034"/><path class="line" d=" M 148.8690579165623,342.3473817155657 A 136.8516507167185,136.8516507167185 0 0 0 146.56244675141008,358.86193779728166"/><line x1="94.38584474974544" y1="331.3181451572495" x2="148.8690579165623" y2="342.3473817155657"/><path class="line" d=" M 134.84288118078345,339.5080113437412 A 151.16233406628982,151.16233406628982 0 0 0 132.2950658955333,357.7495073747121"/><text x="111.1988329668551" y="369.5" text-anchor="end" style="font-color:black;font-weight:normal" transform="rotate(7.951144081078251,283,369.5)">Cortinarius&#160;&#160;&#160;2%</text><path class="line" d=" M 134.84288118078345,339.5080113437412 A 151.16233406628982,151.16233406628982 0 0 0 134.84288118078345,339.5080113437412"/><line x1="100.30542416857762" y1="309.0364112727614" x2="153.0787035984158" y2="326.5019646353182"/><path class="line" d=" M 153.0787035984158,326.5019646353182 A 136.8516507167185,136.8516507167185 0 0 0 148.8690579165623,342.3473817155657"/><text x="118.35417464164075" y="369.5" text-anchor="end" style="font-color:black;font-weight:normal" transform="rotate(14.878069167276148,283,369.5)">Descolea&#160;&#160;&#160;2%</text><path class="line" d=" M 154.67305249447162,321.95456017866616 A 136.8516507167185,136.8516507167185 0 0 0 153.0787035984158,326.5019646353182"/><path class="line" d=" M 179.7519067140501,308.01076786955264 A 120.17110482631111,120.17110482631111 0 0 0 170.31454111102335,327.7497689807948"/><line x1="117.66022800850604" y1="271.0321707469856" x2="179.7519067140501" y2="308.01076786955264"/><path class="line" d=" M 161.0212855672018,307.4551168168351 A 136.8516507167185,136.8516507167185 0 0 0 154.67305249447162,321.95456017866616"/><line x1="111.47423701130384" y1="282.2528439939408" x2="161.0212855672018" y2="307.4551168168351"/><text x="118.35417464164075" y="369.5" text-anchor="end" style="font-color:black;font-weight:normal" transform="rotate(23.645052763556585,283,369.5)">Russulaceae&#160;&#160;&#160;2%</text><path class="line" d=" M 165.42038699770418,299.4756548754573 A 136.8516507167185,136.8516507167185 0 0 0 161.0212855672018,307.4551168168351"/><path class="line" d=" M 191.36510977497204,291.7559241573782 A 120.17110482631111,120.17110482631111 0 0 0 179.7519067140501,308.01076786955264"/><line x1="136.2574174100177" y1="245.00193553784771" x2="191.36510977497204" y2="291.7559241573782"/><path class="line" d=" M 178.6455796202792,280.9645311126483 A 136.8516507167185,136.8516507167185 0 0 0 165.42038699770418,299.4756548754573"/><path class="line" d=" M 164.59570492759133,275.52939742252056 A 151.16233406628982,151.16233406628982 0 0 0 153.12499559227604,292.15315474783546"/><line x1="132.26322628928173" y1="249.86898959181315" x2="164.59570492759133" y2="275.52939742252056"/><text x="111.1988329668551" y="369.5" text-anchor="end" style="font-color:black;font-weight:normal" transform="rotate(34.606415212621464,283,369.5)">unidentified&#160;&#160;&#160;2%</text><path class="line" d=" M 167.7331568737423,271.7063084034798 A 151.16233406628982,151.16233406628982 0 0 0 164.59570492759133,275.52939742252056"/><path class="line" d=" M 178.6455796202792,280.9645311126483 A 136.8516507167185,136.8516507167185 0 0 0 178.6455796202792,280.9645311126483"/><line x1="463.44" y1="369.5" x2="487.44" y2="369.5" class="tick" transform="rotate(223.5313760317626,283,369.5)"/><text x="74.56" y="369.5" text-anchor="end" style="font-color:black;font-weight:normal" transform="rotate(43.531376031762605,283,369.5)">5 more</text><path class="line" d=" M 200.66248699401714,281.96927175462406 A 120.17110482631111,120.17110482631111 0 0 0 191.36510977497204,291.7559241573782"/><path class="line" d=" M 214.15378238015606,296.31149399342803 A 100.48064038426972,100.48064038426972 0 0 0 214.15378238015606,296.31149399342803"/><line x1="292.4787418641593" y1="177.29358217615982" x2="286.78715019058313" y2="292.7055707049878"/><path class="line" d=" M 286.78715019058313,292.7055707049878 A 76.88775505444715,76.88775505444715 0 0 0 230.3188954953315,313.4961777600773"/><text x="283" y="280.81580228064155" text-anchor="middle" style="font-color:black;font-weight:normal" transform="rotate(339.78719047121507,283,369.5)">Mortierellaceae</text><path class="line" d=" M 283.51055676876297,269.0206567307548 A 100.48064038426972,100.48064038426972 0 0 0 214.15378238015606,296.31149399342803"/><line x1="283.97781566881935" y1="177.06248422795048" x2="283.51055676876297" y2="269.0206567307548"/><text x="136.53967980786513" y="369.5" text-anchor="end" style="font-color:black;font-weight:normal" transform="rotate(68.52111587085986,283,369.5)">Mortierella&#160;&#160;&#160;12%</text><path class="line" d=" M 287.94923120218203,269.1413222359906 A 100.48064038426972,100.48064038426972 0 0 0 283.51055676876297,269.0206567307548"/><path class="line" d=" M 293.85519179016404,293.38238253524077 A 76.88775505444715,76.88775505444715 0 0 0 286.78715019058313,292.7055707049878"/><line x1="283.00000000000006" y1="561.94" x2="283" y2="417.61"/><path class="line" d=" M 283,417.61 A 48.11,48.11 0 0 0 289.7922815103,321.8718884283154"/><text x="403.275" y="369.5" text-anchor="start" style="font-color:black;font-weight:normal" transform="rotate(364.0581339462961,283,369.5)">48%&#160;&#160;&#160;unidentified</text></svg>