<?xml version="1.0" standalone="no"?><!DOCTYPE svg PUBLIC "-//W3C//DTD SVG 1.1//EN" 	"http://www.w3.org/Graphics/SVG/1.1/DTD/svg11.dtd"><svg width="1263" height="1212" version="1.1"	xmlns="http://www.w3.org/2000/svg"><title>Krona (snapshot) - all</title><defs>	<style type="text/css">	text {font-size: 13px; font-family: sans-serif; dominant-baseline:central}	path {stroke-width:0.325;}	path.wedge {stroke:none}	path.line {fill:none;stroke:black;}	line {stroke:black;stroke-width:0.325;}	line.tick {stroke-width:0.65;}	line.pattern {stroke-width:0.21666666666666667;}	circle {fill:none;stroke:black;stroke-width:0.325;}	rect {stroke:black;stroke-width:0.325;}	.highlight {stroke:black;stroke-width:1.625;}	.searchHighlight {fill:rgb(255, 255, 100);stroke:none;}	</style><pattern id="hiddenPattern" patternUnits="userSpaceOnUse" x="0" y="0" width="7.8" height="7.8"><line class="pattern" x1="0" y1="0" x2="3.9" y2="3.9"/><line class="pattern" x1="3.9" y1="7.8" x2="7.8" y2="3.9"/></pattern></defs><path class="wedge" fill="rgb(207,112,112)" d=" M 556.5,710 L 556.5,1051.2 A 445.2,445.2 0 1,1 619.3543697440354,165.25929595273357 L 571.1829614855787,503.0417043555352 A 104,104 0 1 0 556.5,710 Z "/><path class="wedge" fill="rgb(211,123,123)" d=" M 556.5,778.8389103620029 L 556.5,1051.2 A 445.2,445.2 0 0,1 130.32361090104052,734.7506325210571 L 391.04657970827236,655.9845441000857 A 172.8389103620029,172.8389103620029 0 0 0 556.5,778.8389103620029 Z "/><path class="wedge" fill="rgb(214,134,134)" d=" M 556.5,835.2751582669516 L 556.5,1051.2 A 445.2,445.2 0 0,1 275.0697231714134,950.9638231527838 L 411.5652038162934,783.6541670029811 A 229.2751582669516,229.2751582669516 0 0 0 556.5,835.2751582669516 Z "/><path class="wedge" fill="rgb(218,145,145)" d=" M 556.5,882.3764736457001 L 556.5,1051.2 A 445.2,445.2 0 0,1 275.0697231714134,950.9638231527838 L 381.79041444964514,820.1506850366247 A 276.3764736457002,276.3764736457002 0 0 0 556.5,882.3764736457001 Z "/><path class="wedge" fill="rgb(218,145,145)" d=" M 556.5,882.3764736457001 L 556.5,1051.2 A 445.2,445.2 0 0,1 275.0697231714134,950.9638231527838 L 381.79041444964514,820.1506850366247 A 276.3764736457002,276.3764736457002 0 0 0 556.5,882.3764736457001 Z "/><path class="wedge" fill="rgb(222,156,156)" d=" M 556.5,922.2778002490617 L 556.5,1051.2 A 445.2,445.2 0 0,1 275.7768756938164,951.5395309943206 L 357.0694244505758,851.4772748472061 A 316.27780024906167,316.27780024906167 0 0 0 556.5,922.2778002490617 Z "/><path class="wedge" fill="rgb(222,163,156)" d=" M 357.0694244505758,851.4772748472061 L 275.7768756938164,951.5395309943206 A 445.2,445.2 0 0,1 275.0697231714134,950.9638231527838 L 356.5670510358718,851.0682820131824 A 316.27780024906167,316.27780024906167 0 0 0 357.0694244505758,851.4772748472061 Z "/><path class="wedge" fill="url(#hiddenPattern)" d=" M 357.0694244505758,851.4772748472061 L 275.7768756938164,951.5395309943206 A 445.2,445.2 0 0,1 275.0697231714134,950.9638231527838 L 356.5670510358718,851.0682820131824 A 316.27780024906167,316.27780024906167 0 0 0 357.0694244505758,851.4772748472061 Z "/><path class="wedge" fill="rgb(218,153,145)" d=" M 381.79041444964514,820.1506850366247 L 275.0697231714134,950.9638231527838 A 445.2,445.2 0 0,1 275.0697231714134,950.9638231527838 L 381.79041444964514,820.1506850366247 A 276.3764736457002,276.3764736457002 0 0 0 381.79041444964514,820.1506850366247 Z "/><path class="wedge" fill="url(#hiddenPattern)" d=" M 381.79041444964514,820.1506850366247 L 275.0697231714134,950.9638231527838 A 445.2,445.2 0 0,1 275.0697231714134,950.9638231527838 L 381.79041444964514,820.1506850366247 A 276.3764736457002,276.3764736457002 0 0 0 381.79041444964514,820.1506850366247 Z "/><path class="wedge" fill="rgb(214,143,134)" d=" M 411.5652038162934,783.6541670029811 L 275.0697231714134,950.9638231527838 A 445.2,445.2 0 0,1 156.96239470105462,802.3994448871588 L 350.74068353882626,707.1444604897681 A 229.2751582669516,229.2751582669516 0 0 0 411.5652038162934,783.6541670029811 Z "/><path class="wedge" fill="rgb(218,153,145)" d=" M 381.79041444964514,820.1506850366247 L 275.0697231714134,950.9638231527838 A 445.2,445.2 0 0,1 158.19240532420775,804.8821259529997 L 309.2339433000981,729.4643770037062 A 276.3764736457002,276.3764736457002 0 0 0 381.79041444964514,820.1506850366247 Z "/><path class="wedge" fill="rgb(222,163,156)" d=" M 356.5670510358718,851.0682820131824 L 275.0697231714134,950.9638231527838 A 445.2,445.2 0 0,1 162.8340613392698,813.9186589471137 L 276.83289058266445,753.7090208502427 A 316.27780024906167,316.27780024906167 0 0 0 356.5670510358718,851.0682820131824 Z "/><path class="wedge" fill="rgb(222,163,156)" d=" M 356.5670510358718,851.0682820131824 L 275.0697231714134,950.9638231527838 A 445.2,445.2 0 0,1 162.8340613392698,813.9186589471137 L 276.83289058266445,753.7090208502427 A 316.27780024906167,316.27780024906167 0 0 0 356.5670510358718,851.0682820131824 Z "/><path class="wedge" fill="rgb(218,157,145)" d=" M 276.83289058266445,753.7090208502427 L 162.8340613392698,813.9186589471137 A 445.2,445.2 0 0,1 158.19240532420775,804.8821259529997 L 273.53537765823353,747.2893111079775 A 316.27780024906167,316.27780024906167 0 0 0 276.83289058266445,753.7090208502427 Z "/><path class="wedge" fill="url(#hiddenPattern)" d=" M 276.83289058266445,753.7090208502427 L 162.8340613392698,813.9186589471137 A 445.2,445.2 0 0,1 158.19240532420775,804.8821259529997 L 273.53537765823353,747.2893111079775 A 316.27780024906167,316.27780024906167 0 0 0 276.83289058266445,753.7090208502427 Z "/><path class="wedge" fill="rgb(214,148,134)" d=" M 309.2339433000981,729.4643770037062 L 158.19240532420775,804.8821259529997 A 445.2,445.2 0 0,1 156.96239470105462,802.3994448871588 L 308.47036289000414,727.9231491551797 A 276.3764736457002,276.3764736457002 0 0 0 309.2339433000981,729.4643770037062 Z "/><path class="wedge" fill="url(#hiddenPattern)" d=" M 309.2339433000981,729.4643770037062 L 158.19240532420775,804.8821259529997 A 445.2,445.2 0 0,1 156.96239470105462,802.3994448871588 L 308.47036289000414,727.9231491551797 A 276.3764736457002,276.3764736457002 0 0 0 309.2339433000981,729.4643770037062 Z "/><path class="wedge" fill="rgb(214,148,134)" d=" M 350.74068353882626,707.1444604897681 L 156.96239470105462,802.3994448871588 A 445.2,445.2 0 0,1 135.40443612947809,750.504553867922 L 339.6384724799525,680.4189228624507 A 229.2751582669516,229.2751582669516 0 0 0 350.74068353882626,707.1444604897681 Z "/><path class="wedge" fill="rgb(218,157,145)" d=" M 308.47036289000414,727.9231491551797 L 156.96239470105462,802.3994448871588 A 445.2,445.2 0 0,1 135.6593247974846,751.2451930188773 L 295.2455934879904,696.1670131638508 A 276.3764736457002,276.3764736457002 0 0 0 308.47036289000414,727.9231491551797 Z "/><path class="wedge" fill="rgb(222,167,156)" d=" M 272.66155678183225,745.5255714264317 L 156.96239470105462,802.3994448871588 A 445.2,445.2 0 0,1 138.7304140977921,759.8558191785339 L 259.70924159903024,715.3018419705842 A 316.27780024906167,316.27780024906167 0 0 0 272.66155678183225,745.5255714264317 Z "/><path class="wedge" fill="rgb(225,177,167)" d=" M 241.94023095070702,760.627157007884 L 156.96239470105462,802.3994448871588 A 445.2,445.2 0 0,1 140.62348374877337,764.9017408046344 L 229.07645045169494,731.1048567797188 A 350.5102081091011,350.5102081091011 0 0 0 241.94023095070702,760.627157007884 Z "/><path class="wedge" fill="rgb(225,178,167)" d=" M 229.07645045169494,731.1048567797188 L 140.62348374877337,764.9017408046344 A 445.2,445.2 0 0,1 138.7304140977921,759.8558191785339 L 227.58601865176126,727.1321545351844 A 350.5102081091011,350.5102081091011 0 0 0 229.07645045169494,731.1048567797188 Z "/><path class="wedge" fill="url(#hiddenPattern)" d=" M 229.07645045169494,731.1048567797188 L 140.62348374877337,764.9017408046344 A 445.2,445.2 0 0,1 138.7304140977921,759.8558191785339 L 227.58601865176126,727.1321545351844 A 350.5102081091011,350.5102081091011 0 0 0 229.07645045169494,731.1048567797188 Z "/><path class="wedge" fill="rgb(218,159,145)" d=" M 259.70924159903024,715.3018419705842 L 138.7304140977921,759.8558191785339 A 445.2,445.2 0 0,1 135.6593247974846,751.2451930188773 L 257.5274865040849,709.1847038292024 A 316.27780024906167,316.27780024906167 0 0 0 259.70924159903024,715.3018419705842 Z "/><path class="wedge" fill="url(#hiddenPattern)" d=" M 259.70924159903024,715.3018419705842 L 138.7304140977921,759.8558191785339 A 445.2,445.2 0 0,1 135.6593247974846,751.2451930188773 L 257.5274865040849,709.1847038292024 A 316.27780024906167,316.27780024906167 0 0 0 259.70924159903024,715.3018419705842 Z "/><path class="wedge" fill="rgb(214,149,134)" d=" M 295.2455934879904,696.1670131638508 L 135.6593247974846,751.2451930188773 A 445.2,445.2 0 0,1 135.40443612947809,750.504553867922 L 295.0873607134264,695.7072305115935 A 276.3764736457002,276.3764736457002 0 0 0 295.2455934879904,696.1670131638508 Z "/><path class="wedge" fill="url(#hiddenPattern)" d=" M 295.2455934879904,696.1670131638508 L 135.6593247974846,751.2451930188773 A 445.2,445.2 0 0,1 135.40443612947809,750.504553867922 L 295.0873607134264,695.7072305115935 A 276.3764736457002,276.3764736457002 0 0 0 295.2455934879904,696.1670131638508 Z "/><path class="wedge" fill="rgb(211,140,123)" d=" M 339.6384724799525,680.4189228624507 L 135.40443612947809,750.504553867922 A 445.2,445.2 0 0,1 130.32361090104052,734.7506325210571 L 337.0218799184594,672.3057539268542 A 229.2751582669516,229.2751582669516 0 0 0 339.6384724799525,680.4189228624507 Z "/><path class="wedge" fill="url(#hiddenPattern)" d=" M 339.6384724799525,680.4189228624507 L 135.40443612947809,750.504553867922 A 445.2,445.2 0 0,1 130.32361090104052,734.7506325210571 L 337.0218799184594,672.3057539268542 A 229.2751582669516,229.2751582669516 0 0 0 339.6384724799525,680.4189228624507 Z "/><path class="wedge" fill="rgb(211,140,123)" d=" M 391.04657970827236,655.9845441000857 L 130.32361090104052,734.7506325210571 A 445.2,445.2 0 0,1 251.46277126481328,281.72337567200844 L 438.07614053361476,480.1068768986554 A 172.8389103620029,172.8389103620029 0 0 0 391.04657970827236,655.9845441000857 Z "/><path class="wedge" fill="rgb(214,150,134)" d=" M 337.0218799184594,672.3057539268542 L 130.32361090104052,734.7506325210571 A 445.2,445.2 0 0,1 251.46277126481328,281.72337567200844 L 399.4077742687056,438.99960834440014 A 229.2751582669516,229.2751582669516 0 0 0 337.0218799184594,672.3057539268542 Z "/><path class="wedge" fill="rgb(218,159,145)" d=" M 291.93322648196715,685.927326585407 L 130.32361090104052,734.7506325210571 A 445.2,445.2 0 0,1 139.03220381154085,451.32718679240645 L 297.3394488517336,509.9803982857709 A 276.3764736457002,276.3764736457002 0 0 0 291.93322648196715,685.927326585407 Z "/><path class="wedge" fill="rgb(222,169,156)" d=" M 253.73690282500655,697.4666820180486 L 130.32361090104052,734.7506325210571 A 445.2,445.2 0 0,1 112.64712436309924,571.3927061321766 L 241.17922025907615,581.4143783084277 A 316.27780024906167,316.27780024906167 0 0 0 253.73690282500655,697.4666820180486 Z "/><path class="wedge" fill="rgb(225,178,167)" d=" M 220.96726227704062,707.3666015254585 L 130.32361090104052,734.7506325210571 A 445.2,445.2 0 0,1 111.71440991811664,586.7953428692196 L 206.31606077374158,590.8799901896366 A 350.5102081091011,350.5102081091011 0 0 0 220.96726227704062,707.3666015254585 Z "/><path class="wedge" fill="rgb(225,181,167)" d=" M 206.31606077374158,590.8799901896366 L 111.71440991811664,586.7953428692196 A 445.2,445.2 0 0,1 112.64712436309924,571.3927061321766 L 207.05039575626,578.7533473142328 A 350.5102081091011,350.5102081091011 0 0 0 206.31606077374158,590.8799901896366 Z "/><path class="wedge" fill="url(#hiddenPattern)" d=" M 206.31606077374158,590.8799901896366 L 111.71440991811664,586.7953428692196 A 445.2,445.2 0 0,1 112.64712436309924,571.3927061321766 L 207.05039575626,578.7533473142328 A 350.5102081091011,350.5102081091011 0 0 0 206.31606077374158,590.8799901896366 Z "/><path class="wedge" fill="rgb(222,172,156)" d=" M 241.17922025907615,581.4143783084277 L 112.64712436309924,571.3927061321766 A 445.2,445.2 0 0,1 120.1508942142313,517.6682510081453 L 246.51002848479777,543.2475937482118 A 316.27780024906167,316.27780024906167 0 0 0 241.17922025907615,581.4143783084277 Z "/><path class="wedge" fill="rgb(225,182,167)" d=" M 207.05039575626,578.7533473142328 L 112.64712436309924,571.3927061321766 A 445.2,445.2 0 0,1 120.1508942142313,517.6682510081453 L 212.95818536120856,536.4555711550406 A 350.5102081091011,350.5102081091011 0 0 0 207.05039575626,578.7533473142328 Z "/><path class="wedge" fill="rgb(225,183,167)" d=" M 212.95818536120856,536.4555711550406 L 120.1508942142313,517.6682510081453 A 445.2,445.2 0 0,1 120.1508942142313,517.6682510081453 L 212.95818536120856,536.4555711550406 A 350.5102081091011,350.5102081091011 0 0 0 212.95818536120856,536.4555711550406 Z "/><path class="wedge" fill="url(#hiddenPattern)" d=" M 212.95818536120856,536.4555711550406 L 120.1508942142313,517.6682510081453 A 445.2,445.2 0 0,1 120.1508942142313,517.6682510081453 L 212.95818536120856,536.4555711550406 A 350.5102081091011,350.5102081091011 0 0 0 212.95818536120856,536.4555711550406 Z "/><path class="wedge" fill="rgb(222,174,156)" d=" M 246.51002848479777,543.2475937482118 L 120.1508942142313,517.6682510081453 A 445.2,445.2 0 0,1 133.84553543884198,466.12061057281954 L 256.2389390906378,506.6272560911714 A 316.27780024906167,316.27780024906167 0 0 0 246.51002848479777,543.2475937482118 Z "/><path class="wedge" fill="rgb(222,174,156)" d=" M 246.51002848479777,543.2475937482118 L 120.1508942142313,517.6682510081453 A 445.2,445.2 0 0,1 133.84553543884198,466.12061057281954 L 256.2389390906378,506.6272560911714 A 316.27780024906167,316.27780024906167 0 0 0 246.51002848479777,543.2475937482118 Z "/><path class="wedge" fill="rgb(218,166,145)" d=" M 256.2389390906378,506.6272560911714 L 133.84553543884198,466.12061057281954 A 445.2,445.2 0 0,1 139.03220381154085,451.32718679240645 L 259.9236382450371,496.1177513036125 A 316.27780024906167,316.27780024906167 0 0 0 256.2389390906378,506.6272560911714 Z "/><path class="wedge" fill="url(#hiddenPattern)" d=" M 256.2389390906378,506.6272560911714 L 133.84553543884198,466.12061057281954 A 445.2,445.2 0 0,1 139.03220381154085,451.32718679240645 L 259.9236382450371,496.1177513036125 A 316.27780024906167,316.27780024906167 0 0 0 256.2389390906378,506.6272560911714 Z "/><path class="wedge" fill="rgb(218,166,145)" d=" M 297.3394488517336,509.9803982857709 L 139.03220381154085,451.32718679240645 A 445.2,445.2 0 0,1 173.99497770415138,378.1997631290688 L 319.04404938477865,464.58349918678533 A 276.3764736457002,276.3764736457002 0 0 0 297.3394488517336,509.9803982857709 Z "/><path class="wedge" fill="rgb(222,175,156)" d=" M 259.9236382450371,496.1177513036125 L 139.03220381154085,451.32718679240645 A 445.2,445.2 0 0,1 159.68400705379588,404.1582111104887 L 274.59503739291864,462.6080930181713 A 316.27780024906167,316.27780024906167 0 0 0 259.9236382450371,496.1177513036125 Z "/><path class="wedge" fill="rgb(225,184,167)" d=" M 227.8236205730804,484.22461826996016 L 139.03220381154085,451.32718679240645 A 445.2,445.2 0 0,1 150.00660255594755,424.43415014273296 L 236.46386942252838,463.0514739016701 A 350.5102081091011,350.5102081091011 0 0 0 227.8236205730804,484.22461826996016 Z "/><path class="wedge" fill="rgb(225,185,167)" d=" M 236.46386942252838,463.0514739016701 L 150.00660255594755,424.43415014273296 A 445.2,445.2 0 0,1 159.68400705379588,404.1582111104887 L 244.0829823257107,447.0880336280866 A 350.5102081091011,350.5102081091011 0 0 0 236.46386942252838,463.0514739016701 Z "/><path class="wedge" fill="rgb(222,176,156)" d=" M 274.59503739291864,462.6080930181713 L 159.68400705379588,404.1582111104887 A 445.2,445.2 0 0,1 173.99497770415138,378.1997631290688 L 284.76179911062604,444.16676142463314 A 316.27780024906167,316.27780024906167 0 0 0 274.59503739291864,462.6080930181713 Z "/><path class="wedge" fill="rgb(222,176,156)" d=" M 274.59503739291864,462.6080930181713 L 159.68400705379588,404.1582111104887 A 445.2,445.2 0 0,1 173.99497770415138,378.1997631290688 L 284.76179911062604,444.16676142463314 A 316.27780024906167,316.27780024906167 0 0 0 274.59503739291864,462.6080930181713 Z "/><path class="wedge" fill="rgb(218,168,145)" d=" M 319.04404938477865,464.58349918678533 L 173.99497770415138,378.1997631290688 A 445.2,445.2 0 0,1 217.0186147939092,317.980158498492 L 345.75276704488556,427.19966726374605 A 276.3764736457002,276.3764736457002 0 0 0 319.04404938477865,464.58349918678533 Z "/><path class="wedge" fill="rgb(222,177,156)" d=" M 284.76179911062604,444.16676142463314 L 173.99497770415138,378.1997631290688 A 445.2,445.2 0 0,1 217.0186147939092,317.980158498492 L 315.3265369755464,401.38571002205674 A 316.27780024906167,316.27780024906167 0 0 0 284.76179911062604,444.16676142463314 Z "/><path class="wedge" fill="rgb(225,186,167)" d=" M 255.35014607436153,426.65069983618014 L 173.99497770415138,378.1997631290688 A 445.2,445.2 0 0,1 207.77825994589602,329.23983665701104 L 281.9480465441783,388.1040825479338 A 350.5102081091011,350.5102081091011 0 0 0 255.35014607436153,426.65069983618014 Z "/><path class="wedge" fill="rgb(225,187,167)" d=" M 281.9480465441783,388.1040825479338 L 207.77825994589602,329.23983665701104 A 445.2,445.2 0 0,1 217.0186147939092,317.980158498492 L 289.2230660877071,379.2392304936121 A 350.5102081091011,350.5102081091011 0 0 0 281.9480465441783,388.1040825479338 Z "/><path class="wedge" fill="url(#hiddenPattern)" d=" M 281.9480465441783,388.1040825479338 L 207.77825994589602,329.23983665701104 A 445.2,445.2 0 0,1 217.0186147939092,317.980158498492 L 289.2230660877071,379.2392304936121 A 350.5102081091011,350.5102081091011 0 0 0 281.9480465441783,388.1040825479338 Z "/><path class="wedge" fill="rgb(222,179,156)" d=" M 315.3265369755464,401.38571002205674 L 217.0186147939092,317.980158498492 A 445.2,445.2 0 0,1 217.0186147939092,317.980158498492 L 315.3265369755464,401.38571002205674 A 316.27780024906167,316.27780024906167 0 0 0 315.3265369755464,401.38571002205674 Z "/><path class="wedge" fill="url(#hiddenPattern)" d=" M 315.3265369755464,401.38571002205674 L 217.0186147939092,317.980158498492 A 445.2,445.2 0 0,1 217.0186147939092,317.980158498492 L 315.3265369755464,401.38571002205674 A 316.27780024906167,316.27780024906167 0 0 0 315.3265369755464,401.38571002205674 Z "/><path class="wedge" fill="rgb(218,170,145)" d=" M 345.75276704488556,427.19966726374605 L 217.0186147939092,317.980158498492 A 445.2,445.2 0 0,1 238.1850985541742,294.74662488973036 L 358.89274490009905,412.776481978215 A 276.3764736457002,276.3764736457002 0 0 0 345.75276704488556,427.19966726374605 Z "/><path class="wedge" fill="rgb(222,179,156)" d=" M 315.3265369755464,401.38571002205674 L 217.0186147939092,317.980158498492 A 445.2,445.2 0 0,1 237.12442836118282,295.8350692931602 L 329.61005559027024,385.65345463081326 A 316.27780024906167,316.27780024906167 0 0 0 315.3265369755464,401.38571002205674 Z "/><path class="wedge" fill="rgb(225,187,167)" d=" M 289.2230660877071,379.2392304936121 L 217.0186147939092,317.980158498492 A 445.2,445.2 0 0,1 237.12442836118282,295.8350692931602 L 305.05256495937795,361.8041904532809 A 350.5102081091011,350.5102081091011 0 0 0 289.2230660877071,379.2392304936121 Z "/><path class="wedge" fill="rgb(225,188,167)" d=" M 305.05256495937795,361.8041904532809 L 237.12442836118282,295.8350692931602 A 445.2,445.2 0 0,1 237.12442836118282,295.8350692931602 L 305.05256495937795,361.8041904532809 A 350.5102081091011,350.5102081091011 0 0 0 305.05256495937795,361.8041904532809 Z "/><path class="wedge" fill="url(#hiddenPattern)" d=" M 305.05256495937795,361.8041904532809 L 237.12442836118282,295.8350692931602 A 445.2,445.2 0 0,1 237.12442836118282,295.8350692931602 L 305.05256495937795,361.8041904532809 A 350.5102081091011,350.5102081091011 0 0 0 305.05256495937795,361.8041904532809 Z "/><path class="wedge" fill="rgb(218,171,145)" d=" M 329.61005559027024,385.65345463081326 L 237.12442836118282,295.8350692931602 A 445.2,445.2 0 0,1 238.1850985541742,294.74662488973036 L 330.36357408853854,384.8802048518146 A 316.27780024906167,316.27780024906167 0 0 0 329.61005559027024,385.65345463081326 Z "/><path class="wedge" fill="url(#hiddenPattern)" d=" M 329.61005559027024,385.65345463081326 L 237.12442836118282,295.8350692931602 A 445.2,445.2 0 0,1 238.1850985541742,294.74662488973036 L 330.36357408853854,384.8802048518146 A 316.27780024906167,316.27780024906167 0 0 0 329.61005559027024,385.65345463081326 Z "/><path class="wedge" fill="rgb(214,163,134)" d=" M 358.89274490009905,412.776481978215 L 238.1850985541742,294.74662488973036 A 445.2,445.2 0 0,1 251.46277126481328,281.72337567200844 L 367.135414176802,404.6917566992323 A 276.3764736457002,276.3764736457002 0 0 0 358.89274490009905,412.776481978215 Z "/><path class="wedge" fill="url(#hiddenPattern)" d=" M 358.89274490009905,412.776481978215 L 238.1850985541742,294.74662488973036 A 445.2,445.2 0 0,1 251.46277126481328,281.72337567200844 L 367.135414176802,404.6917566992323 A 276.3764736457002,276.3764736457002 0 0 0 358.89274490009905,412.776481978215 Z "/><path class="wedge" fill="rgb(214,163,134)" d=" M 399.4077742687056,438.99960834440014 L 251.46277126481328,281.72337567200844 A 445.2,445.2 0 0,1 251.46277126481328,281.72337567200844 L 399.4077742687056,438.99960834440014 A 229.2751582669516,229.2751582669516 0 0 0 399.4077742687056,438.99960834440014 Z "/><path class="wedge" fill="url(#hiddenPattern)" d=" M 399.4077742687056,438.99960834440014 L 251.46277126481328,281.72337567200844 A 445.2,445.2 0 0,1 251.46277126481328,281.72337567200844 L 399.4077742687056,438.99960834440014 A 229.2751582669516,229.2751582669516 0 0 0 399.4077742687056,438.99960834440014 Z "/><path class="wedge" fill="rgb(211,155,123)" d=" M 438.07614053361476,480.1068768986554 L 251.46277126481328,281.72337567200844 A 445.2,445.2 0 0,1 578.4285797023681,161.340380299451 L 565.0132790241322,433.37088016391397 A 172.8389103620029,172.8389103620029 0 0 0 438.07614053361476,480.1068768986554 Z "/><path class="wedge" fill="rgb(211,155,123)" d=" M 438.07614053361476,480.1068768986554 L 251.46277126481328,281.72337567200844 A 445.2,445.2 0 0,1 578.4285797023681,161.340380299451 L 565.0132790241322,433.37088016391397 A 172.8389103620029,172.8389103620029 0 0 0 438.07614053361476,480.1068768986554 Z "/><path class="wedge" fill="rgb(211,155,123)" d=" M 438.07614053361476,480.1068768986554 L 251.46277126481328,281.72337567200844 A 445.2,445.2 0 0,1 578.4285797023681,161.340380299451 L 565.0132790241322,433.37088016391397 A 172.8389103620029,172.8389103620029 0 0 0 438.07614053361476,480.1068768986554 Z "/><path class="wedge" fill="rgb(211,155,123)" d=" M 438.07614053361476,480.1068768986554 L 251.46277126481328,281.72337567200844 A 445.2,445.2 0 0,1 578.4285797023681,161.340380299451 L 565.0132790241322,433.37088016391397 A 172.8389103620029,172.8389103620029 0 0 0 438.07614053361476,480.1068768986554 Z "/><path class="wedge" fill="rgb(214,163,134)" d=" M 399.4077742687056,438.99960834440014 L 251.46277126481328,281.72337567200844 A 445.2,445.2 0 0,1 558.7621260432259,160.8057471330469 L 557.6649804730018,376.72780146988333 A 229.2751582669516,229.2751582669516 0 0 0 399.4077742687056,438.99960834440014 Z "/><path class="wedge" fill="rgb(214,172,134)" d=" M 557.6649804730018,376.72780146988333 L 558.7621260432259,160.8057471330469 A 445.2,445.2 0 0,1 578.4285797023681,161.340380299451 L 567.7930785755389,377.00313413799216 A 229.2751582669516,229.2751582669516 0 0 0 557.6649804730018,376.72780146988333 Z "/><path class="wedge" fill="url(#hiddenPattern)" d=" M 557.6649804730018,376.72780146988333 L 558.7621260432259,160.8057471330469 A 445.2,445.2 0 0,1 578.4285797023681,161.340380299451 L 567.7930785755389,377.00313413799216 A 229.2751582669516,229.2751582669516 0 0 0 557.6649804730018,376.72780146988333 Z "/><path class="wedge" fill="rgb(211,166,123)" d=" M 565.0132790241322,433.37088016391397 L 578.4285797023681,161.340380299451 A 445.2,445.2 0 0,1 619.3543697440354,165.25929595273357 L 580.9017986928336,434.89231123155537 A 172.8389103620029,172.8389103620029 0 0 0 565.0132790241322,433.37088016391397 Z "/><path class="wedge" fill="rgb(211,166,123)" d=" M 565.0132790241322,433.37088016391397 L 578.4285797023681,161.340380299451 A 445.2,445.2 0 0,1 619.3543697440354,165.25929595273357 L 580.9017986928336,434.89231123155537 A 172.8389103620029,172.8389103620029 0 0 0 565.0132790241322,433.37088016391397 Z "/><path class="wedge" fill="rgb(214,173,134)" d=" M 567.7930785755389,377.00313413799216 L 578.4285797023681,161.340380299451 A 445.2,445.2 0 0,1 619.3543697440354,165.25929595273357 L 588.869599215708,379.02135068480527 A 229.2751582669516,229.2751582669516 0 0 0 567.7930785755389,377.00313413799216 Z "/><path class="wedge" fill="rgb(218,181,145)" d=" M 570.1130807057484,329.9589899697308 L 578.4285797023681,161.340380299451 A 445.2,445.2 0 0,1 619.3543697440354,165.25929595273357 L 595.5194722890375,332.39182035780175 A 276.3764736457002,276.3764736457002 0 0 0 570.1130807057484,329.9589899697308 Z "/><path class="wedge" fill="rgb(218,181,145)" d=" M 570.1130807057484,329.9589899697308 L 578.4285797023681,161.340380299451 A 445.2,445.2 0 0,1 619.3543697440354,165.25929595273357 L 595.5194722890375,332.39182035780175 A 276.3764736457002,276.3764736457002 0 0 0 570.1130807057484,329.9589899697308 Z "/><path class="wedge" fill="rgb(218,182,145)" d=" M 595.5194722890375,332.39182035780175 L 619.3543697440354,165.25929595273357 A 445.2,445.2 0 0,1 619.3543697440354,165.25929595273357 L 595.5194722890375,332.39182035780175 A 276.3764736457002,276.3764736457002 0 0 0 595.5194722890375,332.39182035780175 Z "/><path class="wedge" fill="url(#hiddenPattern)" d=" M 595.5194722890375,332.39182035780175 L 619.3543697440354,165.25929595273357 A 445.2,445.2 0 0,1 619.3543697440354,165.25929595273357 L 595.5194722890375,332.39182035780175 A 276.3764736457002,276.3764736457002 0 0 0 595.5194722890375,332.39182035780175 Z "/><path class="wedge" fill="rgb(214,174,134)" d=" M 588.869599215708,379.02135068480527 L 619.3543697440354,165.25929595273357 A 445.2,445.2 0 0,1 619.3543697440354,165.25929595273357 L 588.869599215708,379.02135068480527 A 229.2751582669516,229.2751582669516 0 0 0 588.869599215708,379.02135068480527 Z "/><path class="wedge" fill="url(#hiddenPattern)" d=" M 588.869599215708,379.02135068480527 L 619.3543697440354,165.25929595273357 A 445.2,445.2 0 0,1 619.3543697440354,165.25929595273357 L 588.869599215708,379.02135068480527 A 229.2751582669516,229.2751582669516 0 0 0 588.869599215708,379.02135068480527 Z "/><path class="wedge" fill="rgb(211,167,123)" d=" M 580.9017986928336,434.89231123155537 L 619.3543697440354,165.25929595273357 A 445.2,445.2 0 0,1 619.3543697440354,165.25929595273357 L 580.9017986928336,434.89231123155537 A 172.8389103620029,172.8389103620029 0 0 0 580.9017986928336,434.89231123155537 Z "/><path class="wedge" fill="url(#hiddenPattern)" d=" M 580.9017986928336,434.89231123155537 L 619.3543697440354,165.25929595273357 A 445.2,445.2 0 0,1 619.3543697440354,165.25929595273357 L 580.9017986928336,434.89231123155537 A 172.8389103620029,172.8389103620029 0 0 0 580.9017986928336,434.89231123155537 Z "/><path class="wedge" fill="rgb(112,207,207)" d=" M 571.1829614855787,503.0417043555352 L 619.3543697440354,165.25929595273357 A 445.2,445.2 0 0,1 556.5000000000001,1051.2 L 556.5,710 A 104,104 0 0 0 571.1829614855787,503.0417043555352 Z "/><path class="wedge" fill="rgb(112,207,207)" d=" M 571.1829614855787,503.0417043555352 L 619.3543697440354,165.25929595273357 A 445.2,445.2 0 0,1 556.5000000000001,1051.2 L 556.5,710 A 104,104 0 0 0 571.1829614855787,503.0417043555352 Z "/><path class="wedge" fill="rgb(112,207,207)" d=" M 571.1829614855787,503.0417043555352 L 619.3543697440354,165.25929595273357 A 445.2,445.2 0 0,1 556.5000000000001,1051.2 L 556.5,710 A 104,104 0 0 0 571.1829614855787,503.0417043555352 Z "/><path class="wedge" fill="rgb(112,207,207)" d=" M 571.1829614855787,503.0417043555352 L 619.3543697440354,165.25929595273357 A 445.2,445.2 0 0,1 556.5000000000001,1051.2 L 556.5,710 A 104,104 0 0 0 571.1829614855787,503.0417043555352 Z "/><path class="wedge" fill="rgb(112,207,207)" d=" M 571.1829614855787,503.0417043555352 L 619.3543697440354,165.25929595273357 A 445.2,445.2 0 0,1 556.5000000000001,1051.2 L 556.5,710 A 104,104 0 0 0 571.1829614855787,503.0417043555352 Z "/><path class="wedge" fill="rgb(112,207,207)" d=" M 571.1829614855787,503.0417043555352 L 619.3543697440354,165.25929595273357 A 445.2,445.2 0 0,1 556.5000000000001,1051.2 L 556.5,710 A 104,104 0 0 0 571.1829614855787,503.0417043555352 Z "/><circle cx="556.5" cy="606" r="104"/><circle cx="556.5" cy="606" r="445.2"/><text x="556.5" y="606" text-anchor="middle" style="font-color:black;font-weight:bold" transform="rotate(360,556.5,606)">all</text><path class="line" d=" M 571.1829614855787,503.0417043555352 A 104,104 0 1 0 556.5,710"/><line x1="619.3543697440354" y1="165.25929595273357" x2="571.1829614855787" y2="503.0417043555352"/><text x="556.5" y="467.58054481899853" text-anchor="middle" style="font-color:black;font-weight:normal" transform="rotate(274.05813394629615,556.5,606)">Fungi</text><path class="line" d=" M 391.04657970827236,655.9845441000857 A 172.8389103620029,172.8389103620029 0 0 0 556.5,778.8389103620029"/><line x1="130.32361090104052" y1="734.7506325210571" x2="391.04657970827236" y2="655.9845441000857"/><text x="556.5" y="795.7697847334875" text-anchor="middle" style="font-color:black;font-weight:normal" transform="rotate(36.59504753944207,556.5,606)">Ascomycota</text><path class="line" d=" M 411.5652038162934,783.6541670029811 A 229.2751582669516,229.2751582669516 0 0 0 556.5,835.2751582669516"/><line x1="275.0697231714134" y1="950.9638231527838" x2="411.5652038162934" y2="783.6541670029811"/><text x="556.5" y="849.4055528805761" text-anchor="middle" style="font-color:black;font-weight:normal" transform="rotate(19.604221084526166,556.5,606)">Archaeorhizomycetes</text><path class="line" d=" M 381.79041444964514,820.1506850366247 A 276.3764736457002,276.3764736457002 0 0 0 556.5,882.3764736457001"/><text x="556.5" y="894.3468716267087" text-anchor="middle" style="font-color:black;font-weight:normal" transform="rotate(19.604221084526166,556.5,606)">Archaeorhizomycetaceae</text><path class="line" d=" M 357.0694244505758,851.4772748472061 A 316.27780024906167,316.27780024906167 0 0 0 556.5,922.2778002490617"/><line x1="275.7768756938164" y1="951.5395309943206" x2="357.0694244505758" y2="851.4772748472061"/><text x="175.76109987546914" y="606" text-anchor="end" style="font-color:black;font-weight:normal" transform="rotate(-70.45445616967923,556.5,606)">Archaeorhizomyces&#160;&#160;&#160;11%</text><path class="line" d=" M 356.5670510358718,851.0682820131824 A 316.27780024906167,316.27780024906167 0 0 0 357.0694244505758,851.4772748472061"/><path class="line" d=" M 381.79041444964514,820.1506850366247 A 276.3764736457002,276.3764736457002 0 0 0 381.79041444964514,820.1506850366247"/><path class="line" d=" M 350.74068353882626,707.1444604897681 A 229.2751582669516,229.2751582669516 0 0 0 411.5652038162934,783.6541670029811"/><line x1="156.96239470105462" y1="802.3994448871588" x2="350.74068353882626" y2="707.1444604897681"/><text x="556.5" y="868.2460790320756" text-anchor="middle" style="font-color:black;font-weight:normal" transform="rotate(51.515620102392624,556.5,606)">Leotiomycetes</text><path class="line" d=" M 309.2339433000981,729.4643770037062 A 276.3764736457002,276.3764736457002 0 0 0 381.79041444964514,820.1506850366247"/><line x1="158.19240532420775" y1="804.8821259529997" x2="309.2339433000981" y2="729.4643770037062"/><text x="556.5" y="910.3074022680532" text-anchor="middle" style="font-color:black;font-weight:normal" transform="rotate(51.33733152230697,556.5,606)">Helotiales</text><line x1="162.8340613392698" y1="813.9186589471137" x2="276.83289058266445" y2="753.7090208502427"/><path class="line" d=" M 276.83289058266445,753.7090208502427 A 316.27780024906167,316.27780024906167 0 0 0 356.5670510358718,851.0682820131824"/><text x="175.76109987546914" y="606" text-anchor="end" style="font-color:black;font-weight:normal" transform="rotate(-39.31639327134051,556.5,606)">Oidiodendron&#160;&#160;&#160;6%</text><path class="line" d=" M 273.53537765823353,747.2893111079775 A 316.27780024906167,316.27780024906167 0 0 0 276.83289058266445,753.7090208502427"/><path class="line" d=" M 308.47036289000414,727.9231491551797 A 276.3764736457002,276.3764736457002 0 0 0 309.2339433000981,729.4643770037062"/><path class="line" d=" M 339.6384724799525,680.4189228624507 A 229.2751582669516,229.2751582669516 0 0 0 350.74068353882626,707.1444604897681"/><line x1="135.40443612947809" y1="750.504553867922" x2="339.6384724799525" y2="680.4189228624507"/><text x="556.5" y="849.4055528805761" text-anchor="middle" style="font-color:black;font-weight:normal" transform="rotate(67.44122871173339,556.5,606)">Eurotiomycetes</text><path class="line" d=" M 295.2455934879904,696.1670131638508 A 276.3764736457002,276.3764736457002 0 0 0 308.47036289000414,727.9231491551797"/><line x1="135.6593247974846" y1="751.2451930188773" x2="295.2455934879904" y2="696.1670131638508"/><text x="556.5" y="894.3468716267087" text-anchor="middle" style="font-color:black;font-weight:normal" transform="rotate(67.3908264549159,556.5,606)">Eurotiales</text><path class="line" d=" M 259.70924159903024,715.3018419705842 A 316.27780024906167,316.27780024906167 0 0 0 272.66155678183225,745.5255714264317"/><line x1="138.7304140977921" y1="759.8558191785339" x2="259.70924159903024" y2="715.3018419705842"/><text x="556.5" y="932.5475226070735" text-anchor="middle" style="font-color:black;font-weight:normal" transform="rotate(66.80254936788214,556.5,606)">Aspergillaceae</text><path class="line" d=" M 229.07645045169494,731.1048567797188 A 350.5102081091011,350.5102081091011 0 0 0 241.94023095070702,760.627157007884"/><line x1="140.62348374877337" y1="764.9017408046344" x2="229.07645045169494" y2="731.1048567797188"/><text x="158.6448959454495" y="606" text-anchor="end" style="font-color:black;font-weight:normal" transform="rotate(-23.544248249921637,556.5,606)">Penicillium&#160;&#160;&#160;1%</text><path class="line" d=" M 227.58601865176126,727.1321545351844 A 350.5102081091011,350.5102081091011 0 0 0 229.07645045169494,731.1048567797188"/><path class="line" d=" M 257.5274865040849,709.1847038292024 A 316.27780024906167,316.27780024906167 0 0 0 259.70924159903024,715.3018419705842"/><path class="line" d=" M 295.0873607134264,695.7072305115935 A 276.3764736457002,276.3764736457002 0 0 0 295.2455934879904,696.1670131638508"/><line x1="991.95" y1="606" x2="1011.45" y2="606" class="tick" transform="rotate(162.12487723330898,556.5,606)"/><text x="98.30000000000001" y="606" text-anchor="end" style="font-color:black;font-weight:normal" transform="rotate(-17.875122766691035,556.5,606)">2 more</text><path class="line" d=" M 337.0218799184594,672.3057539268542 A 229.2751582669516,229.2751582669516 0 0 0 339.6384724799525,680.4189228624507"/><path class="line" d=" M 438.07614053361476,480.1068768986554 A 172.8389103620029,172.8389103620029 0 0 0 391.04657970827236,655.9845441000857"/><line x1="251.46277126481328" y1="281.72337567200844" x2="438.07614053361476" y2="480.1068768986554"/><text x="556.5" y="393.655716104533" text-anchor="middle" style="font-color:black;font-weight:normal" transform="rotate(284.9705986835231,556.5,606)">Basidiomycota</text><path class="line" d=" M 399.4077742687056,438.99960834440014 A 229.2751582669516,229.2751582669516 0 0 0 337.0218799184594,672.3057539268542"/><text x="556.5" y="343.7539209679244" text-anchor="middle" style="font-color:black;font-weight:normal" transform="rotate(284.9705986835231,556.5,606)">Agaricomycetes</text><path class="line" d=" M 297.3394488517336,509.9803982857709 A 276.3764736457002,276.3764736457002 0 0 0 291.93322648196715,685.927326585407"/><line x1="139.03220381154085" y1="451.32718679240645" x2="297.3394488517336" y2="509.9803982857709"/><text x="556.5" y="301.69259773194676" text-anchor="middle" style="font-color:black;font-weight:normal" transform="rotate(271.7599414899174,556.5,606)">Agaricales</text><path class="line" d=" M 241.17922025907615,581.4143783084277 A 316.27780024906167,316.27780024906167 0 0 0 253.73690282500655,697.4666820180486"/><line x1="112.64712436309924" y1="571.3927061321766" x2="241.17922025907615" y2="581.4143783084277"/><text x="556.5" y="946.2404857510892" text-anchor="middle" style="font-color:black;font-weight:normal" transform="rotate(83.82421899488037,556.5,606)">Amanitaceae</text><path class="line" d=" M 206.31606077374158,590.8799901896366 A 350.5102081091011,350.5102081091011 0 0 0 220.96726227704062,707.3666015254585"/><line x1="111.71440991811664" y1="586.7953428692196" x2="206.31606077374158" y2="590.8799901896366"/><text x="158.6448959454495" y="606" text-anchor="end" style="font-color:black;font-weight:normal" transform="rotate(-7.1687806916727554,556.5,606)">Amanita&#160;&#160;&#160;5%</text><line x1="991.95" y1="606" x2="1011.45" y2="606" class="tick" transform="rotate(183.46534322432345,556.5,606)"/><text x="98.30000000000001" y="606" text-anchor="end" style="font-color:black;font-weight:normal" transform="rotate(3.4653432243234743,556.5,606)">1 more</text><path class="line" d=" M 207.05039575626,578.7533473142328 A 350.5102081091011,350.5102081091011 0 0 0 206.31606077374158,590.8799901896366"/><path class="line" d=" M 246.51002848479777,543.2475937482118 A 316.27780024906167,316.27780024906167 0 0 0 241.17922025907615,581.4143783084277"/><line x1="120.1508942142313" y1="517.6682510081453" x2="246.51002848479777" y2="543.2475937482118"/><text x="556.5" y="279.4524773929265" text-anchor="middle" style="font-color:black;font-weight:normal" transform="rotate(277.95114408107827,556.5,606)">Cortinariaceae</text><path class="line" d=" M 212.95818536120856,536.4555711550406 A 350.5102081091011,350.5102081091011 0 0 0 207.05039575626,578.7533473142328"/><text x="158.6448959454495" y="606" text-anchor="end" style="font-color:black;font-weight:normal" transform="rotate(7.951144081078251,556.5,606)">Cortinarius&#160;&#160;&#160;2%</text><path class="line" d=" M 212.95818536120856,536.4555711550406 A 350.5102081091011,350.5102081091011 0 0 0 212.95818536120856,536.4555711550406"/><line x1="133.84553543884198" y1="466.12061057281954" x2="256.2389390906378" y2="506.6272560911714"/><path class="line" d=" M 256.2389390906378,506.6272560911714 A 316.27780024906167,316.27780024906167 0 0 0 246.51002848479777,543.2475937482118"/><text x="175.76109987546914" y="606" text-anchor="end" style="font-color:black;font-weight:normal" transform="rotate(14.878069167276148,556.5,606)">Descolea&#160;&#160;&#160;2%</text><line x1="991.95" y1="606" x2="1011.45" y2="606" class="tick" transform="rotate(199.32099049211158,556.5,606)"/><text x="98.30000000000001" y="606" text-anchor="end" style="font-color:black;font-weight:normal" transform="rotate(19.320990492111594,556.5,606)">5 more</text><path class="line" d=" M 259.9236382450371,496.1177513036125 A 316.27780024906167,316.27780024906167 0 0 0 256.2389390906378,506.6272560911714"/><path class="line" d=" M 319.04404938477865,464.58349918678533 A 276.3764736457002,276.3764736457002 0 0 0 297.3394488517336,509.9803982857709"/><line x1="173.99497770415138" y1="378.1997631290688" x2="319.04404938477865" y2="464.58349918678533"/><text x="556.5" y="317.6531283732914" text-anchor="middle" style="font-color:black;font-weight:normal" transform="rotate(295.5528157977223,556.5,606)">Russulales</text><path class="line" d=" M 274.59503739291864,462.6080930181713 A 316.27780024906167,316.27780024906167 0 0 0 259.9236382450371,496.1177513036125"/><line x1="159.68400705379588" y1="404.1582111104887" x2="274.59503739291864" y2="462.6080930181713"/><text x="556.5" y="265.75951424891076" text-anchor="middle" style="font-color:black;font-weight:normal" transform="rotate(293.64505276355663,556.5,606)">Russulaceae</text><path class="line" d=" M 236.46386942252838,463.0514739016701 A 350.5102081091011,350.5102081091011 0 0 0 227.8236205730804,484.22461826996016"/><line x1="150.00660255594755" y1="424.43415014273296" x2="236.46386942252838" y2="463.0514739016701"/><text x="158.6448959454495" y="606" text-anchor="end" style="font-color:black;font-weight:normal" transform="rotate(22.19918503813605,556.5,606)">Russula&#160;&#160;&#160;1%</text><path class="line" d=" M 244.0829823257107,447.0880336280866 A 350.5102081091011,350.5102081091011 0 0 0 236.46386942252838,463.0514739016701"/><text x="158.6448959454495" y="606" text-anchor="end" style="font-color:black;font-weight:normal" transform="rotate(25.51444990074184,556.5,606)">Lactarius&#160;&#160;&#160;0.8%</text><path class="line" d=" M 284.76179911062604,444.16676142463314 A 316.27780024906167,316.27780024906167 0 0 0 274.59503739291864,462.6080930181713"/><text x="175.76109987546914" y="606" text-anchor="end" style="font-color:black;font-weight:normal" transform="rotate(28.86808066032806,556.5,606)">unidentified&#160;&#160;&#160;1%</text><path class="line" d=" M 345.75276704488556,427.19966726374605 A 276.3764736457002,276.3764736457002 0 0 0 319.04404938477865,464.58349918678533"/><line x1="217.0186147939092" y1="317.980158498492" x2="345.75276704488556" y2="427.19966726374605"/><text x="556.5" y="301.69259773194676" text-anchor="middle" style="font-color:black;font-weight:normal" transform="rotate(305.5437467349284,556.5,606)">Cantharellales</text><path class="line" d=" M 315.3265369755464,401.38571002205674 A 316.27780024906167,316.27780024906167 0 0 0 284.76179911062604,444.16676142463314"/><text x="556.5" y="279.4524773929265" text-anchor="middle" style="font-color:black;font-weight:normal" transform="rotate(305.5437467349284,556.5,606)">Hydnaceae</text><path class="line" d=" M 281.9480465441783,388.1040825479338 A 350.5102081091011,350.5102081091011 0 0 0 255.35014607436153,426.65069983618014"/><line x1="207.77825994589602" y1="329.23983665701104" x2="281.9480465441783" y2="388.1040825479338"/><text x="158.6448959454495" y="606" text-anchor="end" style="font-color:black;font-weight:normal" transform="rotate(34.606415212621464,556.5,606)">unidentified&#160;&#160;&#160;2%</text><path class="line" d=" M 289.2230660877071,379.2392304936121 A 350.5102081091011,350.5102081091011 0 0 0 281.9480465441783,388.1040825479338"/><path class="line" d=" M 315.3265369755464,401.38571002205674 A 316.27780024906167,316.27780024906167 0 0 0 315.3265369755464,401.38571002205674"/><path class="line" d=" M 358.89274490009905,412.776481978215 A 276.3764736457002,276.3764736457002 0 0 0 345.75276704488556,427.19966726374605"/><line x1="238.1850985541742" y1="294.74662488973036" x2="358.89274490009905" y2="412.776481978215"/><text x="556.5" y="317.6531283732914" text-anchor="middle" style="font-color:black;font-weight:normal" transform="rotate(312.3345105004702,556.5,606)">Boletales</text><path class="line" d=" M 329.61005559027024,385.65345463081326 A 316.27780024906167,316.27780024906167 0 0 0 315.3265369755464,401.38571002205674"/><line x1="237.12442836118282" y1="295.8350692931602" x2="329.61005559027024" y2="385.65345463081326"/><text x="556.5" y="265.75951424891076" text-anchor="middle" style="font-color:black;font-weight:normal" transform="rotate(312.2367150767945,556.5,606)">Sclerodermataceae</text><path class="line" d=" M 305.05256495937795,361.8041904532809 A 350.5102081091011,350.5102081091011 0 0 0 289.2230660877071,379.2392304936121"/><text x="158.6448959454495" y="606" text-anchor="end" style="font-color:black;font-weight:normal" transform="rotate(42.2367150767945,556.5,606)">Scleroderma&#160;&#160;&#160;1%</text><path class="line" d=" M 305.05256495937795,361.8041904532809 A 350.5102081091011,350.5102081091011 0 0 0 305.05256495937795,361.8041904532809"/><path class="line" d=" M 330.36357408853854,384.8802048518146 A 316.27780024906167,316.27780024906167 0 0 0 329.61005559027024,385.65345463081326"/><line x1="991.95" y1="606" x2="1011.45" y2="606" class="tick" transform="rotate(225.5542367568697,556.5,606)"/><text x="98.30000000000001" y="606" text-anchor="end" style="font-color:black;font-weight:normal" transform="rotate(45.5542367568697,556.5,606)">4 more</text><path class="line" d=" M 367.135414176802,404.6917566992323 A 276.3764736457002,276.3764736457002 0 0 0 358.89274490009905,412.776481978215"/><path class="line" d=" M 399.4077742687056,438.99960834440014 A 229.2751582669516,229.2751582669516 0 0 0 399.4077742687056,438.99960834440014"/><line x1="578.4285797023681" y1="161.340380299451" x2="565.0132790241322" y2="433.37088016391397"/><path class="line" d=" M 565.0132790241322,433.37088016391397 A 172.8389103620029,172.8389103620029 0 0 0 438.07614053361476,480.1068768986554"/><text x="556.5" y="416.23021526651246" text-anchor="middle" style="font-color:black;font-weight:normal" transform="rotate(339.78719047121507,556.5,606)">Mortierellaceae</text><path class="line" d=" M 557.6649804730018,376.72780146988333 A 229.2751582669516,229.2751582669516 0 0 0 399.4077742687056,438.99960834440014"/><line x1="558.7621260432259" y1="160.8057471330469" x2="557.6649804730018" y2="376.72780146988333"/><text x="219.26242086652422" y="606" text-anchor="end" style="font-color:black;font-weight:normal" transform="rotate(68.52111587085986,556.5,606)">Mortierella&#160;&#160;&#160;12%</text><line x1="991.95" y1="606" x2="1011.45" y2="606" class="tick" transform="rotate(271.5572040539128,556.5,606)"/><text x="1014.7" y="606" text-anchor="start" style="font-color:black;font-weight:normal" transform="rotate(271.5572040539128,556.5,606)">1 more</text><path class="line" d=" M 567.7930785755389,377.00313413799216 A 229.2751582669516,229.2751582669516 0 0 0 557.6649804730018,376.72780146988333"/><path class="line" d=" M 580.9017986928336,434.89231123155537 A 172.8389103620029,172.8389103620029 0 0 0 565.0132790241322,433.37088016391397"/><text x="556.5" y="393.655716104533" text-anchor="middle" style="font-color:black;font-weight:normal" transform="rotate(365.4697732734302,556.5,606)">Chytridiomycetes</text><path class="line" d=" M 588.869599215708,379.02135068480527 A 229.2751582669516,229.2751582669516 0 0 0 567.7930785755389,377.00313413799216"/><text x="556.5" y="362.5944471194239" text-anchor="middle" style="font-color:black;font-weight:normal" transform="rotate(365.4697732734302,556.5,606)">Chytridiales</text><path class="line" d=" M 595.5194722890375,332.39182035780175 A 276.3764736457002,276.3764736457002 0 0 0 570.1130807057484,329.9589899697308"/><text x="917.2882368228501" y="606" text-anchor="start" style="font-color:black;font-weight:normal" transform="rotate(275.4697732734302,556.5,606)">1%&#160;&#160;&#160;Rhizidium</text><path class="line" d=" M 595.5194722890375,332.39182035780175 A 276.3764736457002,276.3764736457002 0 0 0 595.5194722890375,332.39182035780175"/><path class="line" d=" M 588.869599215708,379.02135068480527 A 229.2751582669516,229.2751582669516 0 0 0 588.869599215708,379.02135068480527"/><path class="line" d=" M 580.9017986928336,434.89231123155537 A 172.8389103620029,172.8389103620029 0 0 0 580.9017986928336,434.89231123155537"/><line x1="556.5000000000001" y1="1051.2" x2="556.5" y2="710"/><path class="line" d=" M 556.5,710 A 104,104 0 0 0 571.1829614855787,503.0417043555352"/><text x="831.1" y="606" text-anchor="start" style="font-color:black;font-weight:normal" transform="rotate(364.0581339462961,556.5,606)">48%&#160;&#160;&#160;unidentified</text></svg>