<?xml version="1.0" standalone="no"?><!DOCTYPE svg PUBLIC "-//W3C//DTD SVG 1.1//EN" 	"http://www.w3.org/Graphics/SVG/1.1/DTD/svg11.dtd"><svg width="770" height="665" version="1.1"	xmlns="http://www.w3.org/2000/svg"><title>Krona (snapshot) - all</title><defs>	<style type="text/css">	text {font-size: 16px; font-family: sans-serif; dominant-baseline:central}	path {stroke-width:0.39999999999999997;}	path.wedge {stroke:none}	path.line {fill:none;stroke:black;}	line {stroke:black;stroke-width:0.39999999999999997;}	line.tick {stroke-width:0.7999999999999999;}	line.pattern {stroke-width:0.26666666666666666;}	circle {fill:none;stroke:black;stroke-width:0.39999999999999997;}	rect {stroke:black;stroke-width:0.39999999999999997;}	.highlight {stroke:black;stroke-width:2;}	.searchHighlight {fill:rgb(255, 255, 100);stroke:none;}	</style><pattern id="hiddenPattern" patternUnits="userSpaceOnUse" x="0" y="0" width="9.6" height="9.6"><line class="pattern" x1="0" y1="0" x2="4.8" y2="4.8"/><line class="pattern" x1="4.8" y1="9.6" x2="9.6" y2="4.8"/></pattern></defs><path class="wedge" fill="rgb(207,112,112)" d=" M 372,420.615 L 372,603.96 A 244.45999999999998,244.45999999999998 0 1,1 603.1537998949843,439.0525762883234 L 429.7884499737461,379.3881440720809 A 61.114999999999995,61.114999999999995 0 1 0 372,420.615 Z "/><path class="wedge" fill="rgb(211,123,123)" d=" M 372,457.17190085538425 L 372,603.96 A 244.45999999999998,244.45999999999998 0 0,1 365.1931678033565,115.134784317721 L 369.28038845025856,261.8659694075753 A 97.67190085538428,97.67190085538428 0 0 0 372,457.17190085538425 Z "/><path class="wedge" fill="rgb(214,134,134)" d=" M 372,487.14236826199635 L 372,603.96 A 244.45999999999998,244.45999999999998 0 0,1 353.29708575568657,115.75650244822972 L 362.23445853086315,232.23174639626086 A 127.64236826199634,127.64236826199634 0 0 0 372,487.14236826199635 Z "/><path class="wedge" fill="rgb(218,145,145)" d=" M 372,512.1555200885472 L 372,603.96 A 244.45999999999998,244.45999999999998 0 0,1 136.81517259224597,426.1992395547726 L 225.1364552693042,401.1510149052786 A 152.65552008854715,152.65552008854715 0 0 0 372,512.1555200885472 Z "/><path class="wedge" fill="rgb(222,156,156)" d=" M 372,533.3451181366088 L 372,603.96 A 244.45999999999998,244.45999999999998 0 0,1 221.2652232528593,551.9570567139319 L 264.8065733825491,496.3637804166634 A 173.84511813660885,173.84511813660885 0 0 0 372,533.3451181366088 Z "/><path class="wedge" fill="rgb(222,156,156)" d=" M 372,533.3451181366088 L 372,603.96 A 244.45999999999998,244.45999999999998 0 0,1 221.2652232528593,551.9570567139319 L 264.8065733825491,496.3637804166634 A 173.84511813660885,173.84511813660885 0 0 0 372,533.3451181366088 Z "/><path class="wedge" fill="rgb(222,160,156)" d=" M 264.8065733825491,496.3637804166634 L 221.2652232528593,551.9570567139319 A 244.45999999999998,244.45999999999998 0 0,1 160.10937670735018,481.41413109501434 L 221.31624626380432,446.19793227004334 A 173.84511813660885,173.84511813660885 0 0 0 264.8065733825491,496.3637804166634 Z "/><path class="wedge" fill="rgb(225,171,167)" d=" M 253.5972735498914,510.6757321783739 L 221.2652232528593,551.9570567139319 A 244.45999999999998,244.45999999999998 0 0,1 166.68468309757634,492.1887796509461 L 210.72405673181083,463.7275287697185 A 192.02423709127626,192.02423709127626 0 0 0 253.5972735498914,510.6757321783739 Z "/><path class="wedge" fill="rgb(225,173,167)" d=" M 210.72405673181083,463.7275287697185 L 166.68468309757634,492.1887796509461 A 244.45999999999998,244.45999999999998 0 0,1 160.10937670735018,481.41413109501434 L 205.55912916401007,455.26400234871136 A 192.02423709127626,192.02423709127626 0 0 0 210.72405673181083,463.7275287697185 Z "/><path class="wedge" fill="url(#hiddenPattern)" d=" M 210.72405673181083,463.7275287697185 L 166.68468309757634,492.1887796509461 A 244.45999999999998,244.45999999999998 0 0,1 160.10937670735018,481.41413109501434 L 205.55912916401007,455.26400234871136 A 192.02423709127626,192.02423709127626 0 0 0 210.72405673181083,463.7275287697185 Z "/><path class="wedge" fill="rgb(222,163,156)" d=" M 221.31624626380432,446.19793227004334 L 160.10937670735018,481.41413109501434 A 244.45999999999998,244.45999999999998 0 0,1 147.9010503521138,457.174727369541 L 212.63442536273118,428.960339190538 A 173.84511813660885,173.84511813660885 0 0 0 221.31624626380432,446.19793227004334 Z "/><path class="wedge" fill="rgb(225,173,167)" d=" M 205.55912916401007,455.26400234871136 L 160.10937670735018,481.41413109501434 A 244.45999999999998,244.45999999999998 0 0,1 149.79125875550088,461.4017512829648 L 197.45420922650837,439.5442037485736 A 192.02423709127626,192.02423709127626 0 0 0 205.55912916401007,455.26400234871136 Z "/><path class="wedge" fill="rgb(225,173,167)" d=" M 197.45420922650837,439.5442037485736 L 149.79125875550088,461.4017512829648 A 244.45999999999998,244.45999999999998 0 0,1 147.9010503521138,457.174727369541 L 195.969443511856,436.2238607798189 A 192.02423709127626,192.02423709127626 0 0 0 197.45420922650837,439.5442037485736 Z "/><path class="wedge" fill="url(#hiddenPattern)" d=" M 197.45420922650837,439.5442037485736 L 149.79125875550088,461.4017512829648 A 244.45999999999998,244.45999999999998 0 0,1 147.9010503521138,457.174727369541 L 195.969443511856,436.2238607798189 A 192.02423709127626,192.02423709127626 0 0 0 197.45420922650837,439.5442037485736 Z "/><path class="wedge" fill="rgb(218,153,145)" d=" M 212.63442536273118,428.960339190538 L 147.9010503521138,457.174727369541 A 244.45999999999998,244.45999999999998 0 0,1 139.70357373462042,435.6515721724316 L 206.80487741627687,413.6543772421045 A 173.84511813660885,173.84511813660885 0 0 0 212.63442536273118,428.960339190538 Z "/><path class="wedge" fill="url(#hiddenPattern)" d=" M 212.63442536273118,428.960339190538 L 147.9010503521138,457.174727369541 A 244.45999999999998,244.45999999999998 0 0,1 139.70357373462042,435.6515721724316 L 206.80487741627687,413.6543772421045 A 173.84511813660885,173.84511813660885 0 0 0 212.63442536273118,428.960339190538 Z "/><path class="wedge" fill="rgb(218,154,145)" d=" M 206.80487741627687,413.6543772421045 L 139.70357373462042,435.6515721724316 A 244.45999999999998,244.45999999999998 0 0,1 136.81517259224597,426.1992395547726 L 204.7508217923629,406.93245185315146 A 173.84511813660885,173.84511813660885 0 0 0 206.80487741627687,413.6543772421045 Z "/><path class="wedge" fill="url(#hiddenPattern)" d=" M 206.80487741627687,413.6543772421045 L 139.70357373462042,435.6515721724316 A 244.45999999999998,244.45999999999998 0 0,1 136.81517259224597,426.1992395547726 L 204.7508217923629,406.93245185315146 A 173.84511813660885,173.84511813660885 0 0 0 206.80487741627687,413.6543772421045 Z "/><path class="wedge" fill="rgb(218,154,145)" d=" M 225.1364552693042,401.1510149052786 L 136.81517259224597,426.1992395547726 A 244.45999999999998,244.45999999999998 0 0,1 139.56702942102643,283.7662176579434 L 226.85488010529662,312.2072734529188 A 152.65552008854715,152.65552008854715 0 0 0 225.1364552693042,401.1510149052786 Z "/><path class="wedge" fill="rgb(222,164,156)" d=" M 204.7508217923629,406.93245185315146 L 136.81517259224597,426.1992395547726 A 244.45999999999998,244.45999999999998 0 0,1 129.9889304895169,324.98429582940383 L 199.896412626127,334.9545256111203 A 173.84511813660885,173.84511813660885 0 0 0 204.7508217923629,406.93245185315146 Z "/><path class="wedge" fill="rgb(225,174,167)" d=" M 187.26144539631247,411.8925001639265 L 136.81517259224597,426.1992395547726 A 244.45999999999998,244.45999999999998 0 0,1 129.1298343279709,331.66523349404326 L 181.22458367257113,337.6356876261141 A 192.02423709127626,192.02423709127626 0 0 0 187.26144539631247,411.8925001639265 Z "/><path class="wedge" fill="rgb(225,177,167)" d=" M 181.22458367257113,337.6356876261141 L 129.1298343279709,331.66523349404326 A 244.45999999999998,244.45999999999998 0 0,1 129.9889304895169,324.98429582940383 L 181.8994068952207,332.3877863003072 A 192.02423709127626,192.02423709127626 0 0 0 181.22458367257113,337.6356876261141 Z "/><path class="wedge" fill="url(#hiddenPattern)" d=" M 181.22458367257113,337.6356876261141 L 129.1298343279709,331.66523349404326 A 244.45999999999998,244.45999999999998 0 0,1 129.9889304895169,324.98429582940383 L 181.8994068952207,332.3877863003072 A 192.02423709127626,192.02423709127626 0 0 0 181.22458367257113,337.6356876261141 Z "/><path class="wedge" fill="rgb(222,167,156)" d=" M 199.896412626127,334.9545256111203 L 129.9889304895169,324.98429582940383 A 244.45999999999998,244.45999999999998 0 0,1 137.62379696171138,290.0126842556507 L 205.32586637649877,310.08483754163365 A 173.84511813660885,173.84511813660885 0 0 0 199.896412626127,334.9545256111203 Z "/><path class="wedge" fill="rgb(225,177,167)" d=" M 181.8994068952207,332.3877863003072 L 129.9889304895169,324.98429582940383 A 244.45999999999998,244.45999999999998 0 0,1 137.38979413864834,290.8068933174938 L 187.71281275319754,305.54130980881166 A 192.02423709127626,192.02423709127626 0 0 0 181.8994068952207,332.3877863003072 Z "/><path class="wedge" fill="rgb(225,178,167)" d=" M 187.71281275319754,305.54130980881166 L 137.38979413864834,290.8068933174938 A 244.45999999999998,244.45999999999998 0 0,1 137.62379696171138,290.0126842556507 L 187.89662283900253,304.91745564374827 A 192.02423709127626,192.02423709127626 0 0 0 187.71281275319754,305.54130980881166 Z "/><path class="wedge" fill="url(#hiddenPattern)" d=" M 187.71281275319754,305.54130980881166 L 137.38979413864834,290.8068933174938 A 244.45999999999998,244.45999999999998 0 0,1 137.62379696171138,290.0126842556507 L 187.89662283900253,304.91745564374827 A 192.02423709127626,192.02423709127626 0 0 0 187.71281275319754,305.54130980881166 Z "/><path class="wedge" fill="rgb(218,158,145)" d=" M 205.32586637649877,310.08483754163365 L 137.62379696171138,290.0126842556507 A 244.45999999999998,244.45999999999998 0 0,1 139.56702942102643,283.7662176579434 L 206.70777538597483,305.64272953371903 A 173.84511813660885,173.84511813660885 0 0 0 205.32586637649877,310.08483754163365 Z "/><path class="wedge" fill="url(#hiddenPattern)" d=" M 205.32586637649877,310.08483754163365 L 137.62379696171138,290.0126842556507 A 244.45999999999998,244.45999999999998 0 0,1 139.56702942102643,283.7662176579434 L 206.70777538597483,305.64272953371903 A 173.84511813660885,173.84511813660885 0 0 0 205.32586637649877,310.08483754163365 Z "/><path class="wedge" fill="rgb(218,159,145)" d=" M 226.85488010529662,312.2072734529188 L 139.56702942102643,283.7662176579434 A 244.45999999999998,244.45999999999998 0 0,1 200.8712717871193,184.92723585781775 L 265.13693443741744,250.48627135964938 A 152.65552008854715,152.65552008854715 0 0 0 226.85488010529662,312.2072734529188 Z "/><path class="wedge" fill="rgb(222,168,156)" d=" M 206.70777538597483,305.64272953371903 L 139.56702942102643,283.7662176579434 A 244.45999999999998,244.45999999999998 0 0,1 200.8712717871193,184.92723585781775 L 250.30363260764184,235.35444323925373 A 173.84511813660885,173.84511813660885 0 0 0 206.70777538597483,305.64272953371903 Z "/><path class="wedge" fill="rgb(225,178,167)" d=" M 189.42303914633698,300.0108329531613 L 139.56702942102643,283.7662176579434 A 244.45999999999998,244.45999999999998 0 0,1 199.39564731336375,186.3860807629055 L 236.4186405003481,223.51837408416964 A 192.02423709127626,192.02423709127626 0 0 0 189.42303914633698,300.0108329531613 Z "/><path class="wedge" fill="rgb(225,180,167)" d=" M 236.4186405003481,223.51837408416964 L 199.39564731336375,186.3860807629055 A 244.45999999999998,244.45999999999998 0 0,1 200.8712717871193,184.92723585781775 L 237.57774899992316,222.37244599804524 A 192.02423709127626,192.02423709127626 0 0 0 236.4186405003481,223.51837408416964 Z "/><path class="wedge" fill="url(#hiddenPattern)" d=" M 236.4186405003481,223.51837408416964 L 199.39564731336375,186.3860807629055 A 244.45999999999998,244.45999999999998 0 0,1 200.8712717871193,184.92723585781775 L 237.57774899992316,222.37244599804524 A 192.02423709127626,192.02423709127626 0 0 0 236.4186405003481,223.51837408416964 Z "/><path class="wedge" fill="rgb(222,171,156)" d=" M 250.30363260764184,235.35444323925373 L 200.8712717871193,184.92723585781775 A 244.45999999999998,244.45999999999998 0 0,1 200.8712717871193,184.92723585781775 L 250.30363260764184,235.35444323925373 A 173.84511813660885,173.84511813660885 0 0 0 250.30363260764184,235.35444323925373 Z "/><path class="wedge" fill="url(#hiddenPattern)" d=" M 250.30363260764184,235.35444323925373 L 200.8712717871193,184.92723585781775 A 244.45999999999998,244.45999999999998 0 0,1 200.8712717871193,184.92723585781775 L 250.30363260764184,235.35444323925373 A 173.84511813660885,173.84511813660885 0 0 0 250.30363260764184,235.35444323925373 Z "/><path class="wedge" fill="rgb(218,162,145)" d=" M 265.13693443741744,250.48627135964938 L 200.8712717871193,184.92723585781775 A 244.45999999999998,244.45999999999998 0 0,1 297.263096887884,126.74457704876096 L 325.32978477302044,214.1535214593342 A 152.65552008854715,152.65552008854715 0 0 0 265.13693443741744,250.48627135964938 Z "/><path class="wedge" fill="rgb(222,171,156)" d=" M 250.30363260764184,235.35444323925373 L 200.8712717871193,184.92723585781775 A 244.45999999999998,244.45999999999998 0 0,1 297.263096887884,126.74457704876096 L 318.85164955129636,193.97846682526992 A 173.84511813660885,173.84511813660885 0 0 0 250.30363260764184,235.35444323925373 Z "/><path class="wedge" fill="rgb(225,180,167)" d=" M 237.57774899992316,222.37244599804524 L 200.8712717871193,184.92723585781775 A 244.45999999999998,244.45999999999998 0 0,1 289.00586450296794,129.55943143259762 L 306.80779860972103,178.88083017471266 A 192.02423709127626,192.02423709127626 0 0 0 237.57774899992316,222.37244599804524 Z "/><path class="wedge" fill="rgb(225,183,167)" d=" M 306.80779860972103,178.88083017471266 L 289.00586450296794,129.55943143259762 A 244.45999999999998,244.45999999999998 0 0,1 297.263096887884,126.74457704876096 L 313.2938852872916,176.6697516114333 A 192.02423709127626,192.02423709127626 0 0 0 306.80779860972103,178.88083017471266 Z "/><path class="wedge" fill="url(#hiddenPattern)" d=" M 306.80779860972103,178.88083017471266 L 289.00586450296794,129.55943143259762 A 244.45999999999998,244.45999999999998 0 0,1 297.263096887884,126.74457704876096 L 313.2938852872916,176.6697516114333 A 192.02423709127626,192.02423709127626 0 0 0 306.80779860972103,178.88083017471266 Z "/><path class="wedge" fill="rgb(222,174,156)" d=" M 318.85164955129636,193.97846682526992 L 297.263096887884,126.74457704876096 A 244.45999999999998,244.45999999999998 0 0,1 297.263096887884,126.74457704876096 L 318.85164955129636,193.97846682526992 A 173.84511813660885,173.84511813660885 0 0 0 318.85164955129636,193.97846682526992 Z "/><path class="wedge" fill="url(#hiddenPattern)" d=" M 318.85164955129636,193.97846682526992 L 297.263096887884,126.74457704876096 A 244.45999999999998,244.45999999999998 0 0,1 297.263096887884,126.74457704876096 L 318.85164955129636,193.97846682526992 A 173.84511813660885,173.84511813660885 0 0 0 318.85164955129636,193.97846682526992 Z "/><path class="wedge" fill="rgb(218,165,145)" d=" M 325.32978477302044,214.1535214593342 L 297.263096887884,126.74457704876096 A 244.45999999999998,244.45999999999998 0 0,1 322.4981372217025,120.10439189183401 L 341.0880610006835,210.00699066241472 A 152.65552008854715,152.65552008854715 0 0 0 325.32978477302044,214.1535214593342 Z "/><path class="wedge" fill="rgb(218,165,145)" d=" M 318.85164955129636,193.97846682526992 L 297.263096887884,126.74457704876096 A 244.45999999999998,244.45999999999998 0 0,1 322.1178187805096,120.18334868466442 L 336.52681957369697,189.31251934888266 A 173.84511813660885,173.84511813660885 0 0 0 318.85164955129636,193.97846682526992 Z "/><path class="wedge" fill="url(#hiddenPattern)" d=" M 318.85164955129636,193.97846682526992 L 297.263096887884,126.74457704876096 A 244.45999999999998,244.45999999999998 0 0,1 322.1178187805096,120.18334868466442 L 336.52681957369697,189.31251934888266 A 173.84511813660885,173.84511813660885 0 0 0 318.85164955129636,193.97846682526992 Z "/><path class="wedge" fill="rgb(218,166,145)" d=" M 336.52681957369697,189.31251934888266 L 322.1178187805096,120.18334868466442 A 244.45999999999998,244.45999999999998 0 0,1 322.4981372217025,120.10439189183401 L 336.7972789713027,189.25637006892973 A 173.84511813660885,173.84511813660885 0 0 0 336.52681957369697,189.31251934888266 Z "/><path class="wedge" fill="url(#hiddenPattern)" d=" M 336.52681957369697,189.31251934888266 L 322.1178187805096,120.18334868466442 A 244.45999999999998,244.45999999999998 0 0,1 322.4981372217025,120.10439189183401 L 336.7972789713027,189.25637006892973 A 173.84511813660885,173.84511813660885 0 0 0 336.52681957369697,189.31251934888266 Z "/><path class="wedge" fill="rgb(214,158,134)" d=" M 341.0880610006835,210.00699066241472 L 322.4981372217025,120.10439189183401 A 244.45999999999998,244.45999999999998 0 0,1 353.29708575568657,115.75650244822972 L 360.32077599142127,207.29190711377316 A 152.65552008854715,152.65552008854715 0 0 0 341.0880610006835,210.00699066241472 Z "/><path class="wedge" fill="url(#hiddenPattern)" d=" M 341.0880610006835,210.00699066241472 L 322.4981372217025,120.10439189183401 A 244.45999999999998,244.45999999999998 0 0,1 353.29708575568657,115.75650244822972 L 360.32077599142127,207.29190711377316 A 152.65552008854715,152.65552008854715 0 0 0 341.0880610006835,210.00699066241472 Z "/><path class="wedge" fill="rgb(211,150,123)" d=" M 362.23445853086315,232.23174639626086 L 353.29708575568657,115.75650244822972 A 244.45999999999998,244.45999999999998 0 0,1 365.1931678033565,115.134784317721 L 368.4458799724226,231.90712243091048 A 127.64236826199634,127.64236826199634 0 0 0 362.23445853086315,232.23174639626086 Z "/><path class="wedge" fill="url(#hiddenPattern)" d=" M 362.23445853086315,232.23174639626086 L 353.29708575568657,115.75650244822972 A 244.45999999999998,244.45999999999998 0 0,1 365.1931678033565,115.134784317721 L 368.4458799724226,231.90712243091048 A 127.64236826199634,127.64236826199634 0 0 0 362.23445853086315,232.23174639626086 Z "/><path class="wedge" fill="rgb(211,150,123)" d=" M 369.28038845025856,261.8659694075753 L 365.1931678033565,115.134784317721 A 244.45999999999998,244.45999999999998 0 0,1 610.7261579511514,412.1356638590402 L 467.38099333629907,380.53012902682445 A 97.67190085538428,97.67190085538428 0 0 0 369.28038845025856,261.8659694075753 Z "/><path class="wedge" fill="rgb(214,159,134)" d=" M 368.4458799724226,231.90712243091048 L 365.1931678033565,115.134784317721 A 244.45999999999998,244.45999999999998 0 0,1 582.1699979065481,234.64302750762565 L 481.7381832218384,294.3071681954119 A 127.64236826199634,127.64236826199634 0 0 0 368.4458799724226,231.90712243091048 Z "/><path class="wedge" fill="rgb(218,168,145)" d=" M 367.74940477323867,206.90366893754273 L 365.1931678033565,115.134784317721 A 244.45999999999998,244.45999999999998 0 0,1 573.407925327954,220.9520328005881 L 497.77121652169717,272.9823202567406 A 152.65552008854715,152.65552008854715 0 0 0 367.74940477323867,206.90366893754273 Z "/><path class="wedge" fill="rgb(222,176,156)" d=" M 367.15939398117666,185.72228671863007 L 365.1931678033565,115.134784317721 A 244.45999999999998,244.45999999999998 0 0,1 538.437488021402,180.44901792750295 L 490.36024203322035,232.16980638603826 A 173.84511813660885,173.84511813660885 0 0 0 367.15939398117666,185.72228671863007 Z "/><path class="wedge" fill="rgb(225,185,167)" d=" M 366.65320805216066,167.5502163419995 L 365.1931678033565,115.134784317721 A 244.45999999999998,244.45999999999998 0 0,1 527.3850782714388,170.7775343246628 L 494.0555555528156,211.25780293998528 A 192.02423709127626,192.02423709127626 0 0 0 366.65320805216066,167.5502163419995 Z "/><path class="wedge" fill="rgb(225,189,167)" d=" M 494.0555555528156,211.25780293998528 L 527.3850782714388,170.7775343246628 A 244.45999999999998,244.45999999999998 0 0,1 538.437488021402,180.44901792750295 L 502.73726442239285,218.85478919694415 A 192.02423709127626,192.02423709127626 0 0 0 494.0555555528156,211.25780293998528 Z "/><path class="wedge" fill="url(#hiddenPattern)" d=" M 494.0555555528156,211.25780293998528 L 527.3850782714388,170.7775343246628 A 244.45999999999998,244.45999999999998 0 0,1 538.437488021402,180.44901792750295 L 502.73726442239285,218.85478919694415 A 192.02423709127626,192.02423709127626 0 0 0 494.0555555528156,211.25780293998528 Z "/><path class="wedge" fill="rgb(222,181,156)" d=" M 490.36024203322035,232.16980638603826 L 538.437488021402,180.44901792750295 A 244.45999999999998,244.45999999999998 0 0,1 572.5174485814268,219.6663688006536 L 514.5958420072386,260.05880661326444 A 173.84511813660885,173.84511813660885 0 0 0 490.36024203322035,232.16980638603826 Z "/><path class="wedge" fill="rgb(222,181,156)" d=" M 490.36024203322035,232.16980638603826 L 538.437488021402,180.44901792750295 A 244.45999999999998,244.45999999999998 0 0,1 572.5174485814268,219.6663688006536 L 514.5958420072386,260.05880661326444 A 173.84511813660885,173.84511813660885 0 0 0 490.36024203322035,232.16980638603826 Z "/><path class="wedge" fill="rgb(218,175,145)" d=" M 514.5958420072386,260.05880661326444 L 572.5174485814268,219.6663688006536 A 244.45999999999998,244.45999999999998 0 0,1 573.407925327954,220.9520328005881 L 515.2290950351282,260.9730928357655 A 173.84511813660885,173.84511813660885 0 0 0 514.5958420072386,260.05880661326444 Z "/><path class="wedge" fill="url(#hiddenPattern)" d=" M 514.5958420072386,260.05880661326444 L 572.5174485814268,219.6663688006536 A 244.45999999999998,244.45999999999998 0 0,1 573.407925327954,220.9520328005881 L 515.2290950351282,260.9730928357655 A 173.84511813660885,173.84511813660885 0 0 0 514.5958420072386,260.05880661326444 Z "/><path class="wedge" fill="rgb(214,167,134)" d=" M 497.77121652169717,272.9823202567406 L 573.407925327954,220.9520328005881 A 244.45999999999998,244.45999999999998 0 0,1 582.1699979065481,234.64302750762565 L 503.24278138522857,281.53180040699976 A 152.65552008854715,152.65552008854715 0 0 0 497.77121652169717,272.9823202567406 Z "/><path class="wedge" fill="url(#hiddenPattern)" d=" M 497.77121652169717,272.9823202567406 L 573.407925327954,220.9520328005881 A 244.45999999999998,244.45999999999998 0 0,1 582.1699979065481,234.64302750762565 L 503.24278138522857,281.53180040699976 A 152.65552008854715,152.65552008854715 0 0 0 497.77121652169717,272.9823202567406 Z "/><path class="wedge" fill="rgb(214,167,134)" d=" M 481.7381832218384,294.3071681954119 L 582.1699979065481,234.64302750762565 A 244.45999999999998,244.45999999999998 0 0,1 610.8083979905354,307.2387270611015 L 496.69144023711567,332.212293846406 A 127.64236826199634,127.64236826199634 0 0 0 481.7381832218384,294.3071681954119 Z "/><path class="wedge" fill="rgb(218,175,145)" d=" M 503.24278138522857,281.53180040699976 L 582.1699979065481,234.64302750762565 A 244.45999999999998,244.45999999999998 0 0,1 608.385124285672,297.1881663209357 L 519.613082258959,320.58874507915976 A 152.65552008854715,152.65552008854715 0 0 0 503.24278138522857,281.53180040699976 Z "/><path class="wedge" fill="rgb(222,183,156)" d=" M 521.460149369364,270.7092975001385 L 582.1699979065481,234.64302750762565 A 244.45999999999998,244.45999999999998 0 0,1 606.5497967746521,290.6009112326629 L 538.7975829551133,310.50314887399816 A 173.84511813660885,173.84511813660885 0 0 0 521.460149369364,270.7092975001385 Z "/><path class="wedge" fill="rgb(222,183,156)" d=" M 521.460149369364,270.7092975001385 L 582.1699979065481,234.64302750762565 A 244.45999999999998,244.45999999999998 0 0,1 606.5497967746521,290.6009112326629 L 538.7975829551133,310.50314887399816 A 173.84511813660885,173.84511813660885 0 0 0 521.460149369364,270.7092975001385 Z "/><path class="wedge" fill="rgb(218,177,145)" d=" M 538.7975829551133,310.50314887399816 L 606.5497967746521,290.6009112326629 A 244.45999999999998,244.45999999999998 0 0,1 608.385124285672,297.1881663209357 L 540.1027565130477,315.18760497731466 A 173.84511813660885,173.84511813660885 0 0 0 538.7975829551133,310.50314887399816 Z "/><path class="wedge" fill="url(#hiddenPattern)" d=" M 538.7975829551133,310.50314887399816 L 606.5497967746521,290.6009112326629 A 244.45999999999998,244.45999999999998 0 0,1 608.385124285672,297.1881663209357 L 540.1027565130477,315.18760497731466 A 173.84511813660885,173.84511813660885 0 0 0 538.7975829551133,310.50314887399816 Z "/><path class="wedge" fill="rgb(214,170,134)" d=" M 519.613082258959,320.58874507915976 L 608.385124285672,297.1881663209357 A 244.45999999999998,244.45999999999998 0 0,1 610.8083979905354,307.2387270611015 L 521.1263200390981,326.8649194102222 A 152.65552008854715,152.65552008854715 0 0 0 519.613082258959,320.58874507915976 Z "/><path class="wedge" fill="url(#hiddenPattern)" d=" M 519.613082258959,320.58874507915976 L 608.385124285672,297.1881663209357 A 244.45999999999998,244.45999999999998 0 0,1 610.8083979905354,307.2387270611015 L 521.1263200390981,326.8649194102222 A 152.65552008854715,152.65552008854715 0 0 0 519.613082258959,320.58874507915976 Z "/><path class="wedge" fill="rgb(214,170,134)" d=" M 496.69144023711567,332.212293846406 L 610.8083979905354,307.2387270611015 A 244.45999999999998,244.45999999999998 0 0,1 616.4533802822529,357.7009812173611 L 499.6389118419257,358.5606601572288 A 127.64236826199634,127.64236826199634 0 0 0 496.69144023711567,332.212293846406 Z "/><path class="wedge" fill="rgb(218,178,145)" d=" M 521.1263200390981,326.8649194102222 L 610.8083979905354,307.2387270611015 A 244.45999999999998,244.45999999999998 0 0,1 616.4533802822529,357.7009812173611 L 524.6513863388313,358.3765845213417 A 152.65552008854715,152.65552008854715 0 0 0 521.1263200390981,326.8649194102222 Z "/><path class="wedge" fill="rgb(218,178,145)" d=" M 521.1263200390981,326.8649194102222 L 610.8083979905354,307.2387270611015 A 244.45999999999998,244.45999999999998 0 0,1 616.4533802822529,357.7009812173611 L 524.6513863388313,358.3765845213417 A 152.65552008854715,152.65552008854715 0 0 0 521.1263200390981,326.8649194102222 Z "/><path class="wedge" fill="rgb(222,185,156)" d=" M 541.8260417273948,322.33495390643714 L 610.8083979905354,307.2387270611015 A 244.45999999999998,244.45999999999998 0 0,1 616.4533802822529,357.7009812173611 L 545.8404105950324,358.22064700647206 A 173.84511813660885,173.84511813660885 0 0 0 541.8260417273948,322.33495390643714 Z "/><path class="wedge" fill="rgb(222,187,156)" d=" M 545.8404105950324,358.22064700647206 L 616.4533802822529,357.7009812173611 A 244.45999999999998,244.45999999999998 0 0,1 616.4533802822529,357.7009812173611 L 545.8404105950324,358.22064700647206 A 173.84511813660885,173.84511813660885 0 0 0 545.8404105950324,358.22064700647206 Z "/><path class="wedge" fill="url(#hiddenPattern)" d=" M 545.8404105950324,358.22064700647206 L 616.4533802822529,357.7009812173611 A 244.45999999999998,244.45999999999998 0 0,1 616.4533802822529,357.7009812173611 L 545.8404105950324,358.22064700647206 A 173.84511813660885,173.84511813660885 0 0 0 545.8404105950324,358.22064700647206 Z "/><path class="wedge" fill="rgb(218,179,145)" d=" M 524.6513863388313,358.3765845213417 L 616.4533802822529,357.7009812173611 A 244.45999999999998,244.45999999999998 0 0,1 616.4533802822529,357.7009812173611 L 524.6513863388313,358.3765845213417 A 152.65552008854715,152.65552008854715 0 0 0 524.6513863388313,358.3765845213417 Z "/><path class="wedge" fill="url(#hiddenPattern)" d=" M 524.6513863388313,358.3765845213417 L 616.4533802822529,357.7009812173611 A 244.45999999999998,244.45999999999998 0 0,1 616.4533802822529,357.7009812173611 L 524.6513863388313,358.3765845213417 A 152.65552008854715,152.65552008854715 0 0 0 524.6513863388313,358.3765845213417 Z "/><path class="wedge" fill="rgb(211,164,123)" d=" M 499.6389118419257,358.5606601572288 L 616.4533802822529,357.7009812173611 A 244.45999999999998,244.45999999999998 0 0,1 615.3386955849559,382.88740753080975 L 499.0568902652735,371.7115032510063 A 127.64236826199634,127.64236826199634 0 0 0 499.6389118419257,358.5606601572288 Z "/><path class="wedge" fill="url(#hiddenPattern)" d=" M 499.6389118419257,358.5606601572288 L 616.4533802822529,357.7009812173611 A 244.45999999999998,244.45999999999998 0 0,1 615.3386955849559,382.88740753080975 L 499.0568902652735,371.7115032510063 A 127.64236826199634,127.64236826199634 0 0 0 499.6389118419257,358.5606601572288 Z "/><path class="wedge" fill="rgb(211,166,123)" d=" M 499.0568902652735,371.7115032510063 L 615.3386955849559,382.88740753080975 A 244.45999999999998,244.45999999999998 0 0,1 610.7261579511514,412.1356638590402 L 496.64849941492423,386.98319066518144 A 127.64236826199634,127.64236826199634 0 0 0 499.0568902652735,371.7115032510063 Z "/><path class="wedge" fill="url(#hiddenPattern)" d=" M 499.0568902652735,371.7115032510063 L 615.3386955849559,382.88740753080975 A 244.45999999999998,244.45999999999998 0 0,1 610.7261579511514,412.1356638590402 L 496.64849941492423,386.98319066518144 A 127.64236826199634,127.64236826199634 0 0 0 499.0568902652735,371.7115032510063 Z "/><path class="wedge" fill="rgb(207,159,112)" d=" M 467.38099333629907,380.53012902682445 L 610.7261579511514,412.1356638590402 A 244.45999999999998,244.45999999999998 0 0,1 603.1537998949843,439.0525762883234 L 464.3555224809304,391.28455102684904 A 97.67190085538428,97.67190085538428 0 0 0 467.38099333629907,380.53012902682445 Z "/><path class="wedge" fill="url(#hiddenPattern)" d=" M 467.38099333629907,380.53012902682445 L 610.7261579511514,412.1356638590402 A 244.45999999999998,244.45999999999998 0 0,1 603.1537998949843,439.0525762883234 L 464.3555224809304,391.28455102684904 A 97.67190085538428,97.67190085538428 0 0 0 467.38099333629907,380.53012902682445 Z "/><path class="wedge" fill="rgb(112,207,207)" d=" M 429.7884499737461,379.3881440720809 L 603.1537998949843,439.0525762883234 A 244.45999999999998,244.45999999999998 0 0,1 372.00000000000006,603.96 L 372,420.615 A 61.114999999999995,61.114999999999995 0 0 0 429.7884499737461,379.3881440720809 Z "/><path class="wedge" fill="rgb(112,207,207)" d=" M 429.7884499737461,379.3881440720809 L 603.1537998949843,439.0525762883234 A 244.45999999999998,244.45999999999998 0 0,1 372.00000000000006,603.96 L 372,420.615 A 61.114999999999995,61.114999999999995 0 0 0 429.7884499737461,379.3881440720809 Z "/><path class="wedge" fill="rgb(112,207,207)" d=" M 429.7884499737461,379.3881440720809 L 603.1537998949843,439.0525762883234 A 244.45999999999998,244.45999999999998 0 0,1 372.00000000000006,603.96 L 372,420.615 A 61.114999999999995,61.114999999999995 0 0 0 429.7884499737461,379.3881440720809 Z "/><path class="wedge" fill="rgb(112,207,207)" d=" M 429.7884499737461,379.3881440720809 L 603.1537998949843,439.0525762883234 A 244.45999999999998,244.45999999999998 0 0,1 372.00000000000006,603.96 L 372,420.615 A 61.114999999999995,61.114999999999995 0 0 0 429.7884499737461,379.3881440720809 Z "/><path class="wedge" fill="rgb(112,207,207)" d=" M 429.7884499737461,379.3881440720809 L 603.1537998949843,439.0525762883234 A 244.45999999999998,244.45999999999998 0 0,1 372.00000000000006,603.96 L 372,420.615 A 61.114999999999995,61.114999999999995 0 0 0 429.7884499737461,379.3881440720809 Z "/><path class="wedge" fill="rgb(112,207,207)" d=" M 429.7884499737461,379.3881440720809 L 603.1537998949843,439.0525762883234 A 244.45999999999998,244.45999999999998 0 0,1 372.00000000000006,603.96 L 372,420.615 A 61.114999999999995,61.114999999999995 0 0 0 429.7884499737461,379.3881440720809 Z "/><circle cx="372" cy="359.5" r="61.114999999999995"/><circle cx="372" cy="359.5" r="244.45999999999998"/><text x="372" y="359.5" text-anchor="middle" style="font-color:black;font-weight:bold" transform="rotate(360,372,359.5)">all</text><path class="line" d=" M 429.7884499737461,379.3881440720809 A 61.114999999999995,61.114999999999995 0 1 0 372,420.615"/><line x1="603.1537998949843" y1="439.0525762883234" x2="429.7884499737461" y2="379.3881440720809"/><text x="372" y="280.10654957230787" text-anchor="middle" style="font-color:black;font-weight:normal" transform="rotate(324.49556120479684,372,359.5)">Fungi</text><path class="line" d=" M 369.28038845025856,261.8659694075753 A 97.67190085538428,97.67190085538428 0 0 0 372,457.17190085538425"/><line x1="365.1931678033565" y1="115.134784317721" x2="369.28038845025856" y2="261.8659694075753"/><text x="372" y="472.1571345586903" text-anchor="middle" style="font-color:black;font-weight:normal" transform="rotate(89.20221473919581,372,359.5)">Basidiomycota</text><path class="line" d=" M 362.23445853086315,232.23174639626086 A 127.64236826199634,127.64236826199634 0 0 0 372,487.14236826199635"/><line x1="353.29708575568657" y1="115.75650244822972" x2="362.23445853086315" y2="232.23174639626086"/><text x="372" y="499.6489441752717" text-anchor="middle" style="font-color:black;font-weight:normal" transform="rotate(87.80609053278852,372,359.5)">Agaricomycetes</text><path class="line" d=" M 225.1364552693042,401.1510149052786 A 152.65552008854715,152.65552008854715 0 0 0 372,512.1555200885472"/><line x1="136.81517259224597" y1="426.1992395547726" x2="225.1364552693042" y2="401.1510149052786"/><text x="372" y="522.7503191125779" text-anchor="middle" style="font-color:black;font-weight:normal" transform="rotate(37.083239056073886,372,359.5)">Agaricales</text><line x1="221.2652232528593" y1="551.9570567139319" x2="264.8065733825491" y2="496.3637804166634"/><path class="line" d=" M 264.8065733825491,496.3637804166634 A 173.84511813660885,173.84511813660885 0 0 0 372,533.3451181366088"/><text x="162.8474409316956" y="359.5" text-anchor="end" style="font-color:black;font-weight:normal" transform="rotate(-70.96575406279531,372,359.5)">Laccaria&#160;&#160;&#160;11%</text><path class="line" d=" M 221.31624626380432,446.19793227004334 A 173.84511813660885,173.84511813660885 0 0 0 264.8065733825491,496.3637804166634"/><line x1="160.10937670735018" y1="481.41413109501434" x2="221.31624626380432" y2="446.19793227004334"/><path class="line" d=" M 210.72405673181083,463.7275287697185 A 192.02423709127626,192.02423709127626 0 0 0 253.5972735498914,510.6757321783739"/><line x1="166.68468309757634" y1="492.1887796509461" x2="210.72405673181083" y2="463.7275287697185"/><text x="153.75788145436186" y="359.5" text-anchor="end" style="font-color:black;font-weight:normal" transform="rotate(-42.402406399318544,372,359.5)">Leucoagaricus&#160;&#160;&#160;5%</text><path class="line" d=" M 205.55912916401007,455.26400234871136 A 192.02423709127626,192.02423709127626 0 0 0 210.72405673181083,463.7275287697185"/><path class="line" d=" M 212.63442536273118,428.960339190538 A 173.84511813660885,173.84511813660885 0 0 0 221.31624626380432,446.19793227004334"/><line x1="147.9010503521138" y1="457.174727369541" x2="212.63442536273118" y2="428.960339190538"/><path class="line" d=" M 197.45420922650837,439.5442037485736 A 192.02423709127626,192.02423709127626 0 0 0 205.55912916401007,455.26400234871136"/><line x1="149.79125875550088" y1="461.4017512829648" x2="197.45420922650837" y2="439.5442037485736"/><text x="153.75788145436186" y="359.5" text-anchor="end" style="font-color:black;font-weight:normal" transform="rotate(-27.275032276097065,372,359.5)">unidentified&#160;&#160;&#160;1%</text><path class="line" d=" M 195.969443511856,436.2238607798189 A 192.02423709127626,192.02423709127626 0 0 0 197.45420922650837,439.5442037485736"/><path class="line" d=" M 206.80487741627687,413.6543772421045 A 173.84511813660885,173.84511813660885 0 0 0 212.63442536273118,428.960339190538"/><line x1="139.70357373462042" y1="435.6515721724316" x2="206.80487741627687" y2="413.6543772421045"/><text x="162.8474409316956" y="359.5" text-anchor="end" style="font-color:black;font-weight:normal" transform="rotate(-20.850225599936124,372,359.5)">Omphalotaceae&#160;&#160;&#160;2%</text><path class="line" d=" M 204.7508217923629,406.93245185315146 A 173.84511813660885,173.84511813660885 0 0 0 206.80487741627687,413.6543772421045"/><path class="line" d=" M 226.85488010529662,312.2072734529188 A 152.65552008854715,152.65552008854715 0 0 0 225.1364552693042,401.1510149052786"/><line x1="139.56702942102643" y1="283.7662176579434" x2="226.85488010529662" y2="312.2072734529188"/><text x="372" y="196.24968088742202" text-anchor="middle" style="font-color:black;font-weight:normal" transform="rotate(271.1068372086833,372,359.5)">Boletales</text><path class="line" d=" M 199.896412626127,334.9545256111203 A 173.84511813660885,173.84511813660885 0 0 0 204.7508217923629,406.93245185315146"/><line x1="129.9889304895169" y1="324.98429582940383" x2="199.896412626127" y2="334.9545256111203"/><path class="line" d=" M 181.22458367257113,337.6356876261141 A 192.02423709127626,192.02423709127626 0 0 0 187.26144539631247,411.8925001639265"/><line x1="129.1298343279709" y1="331.66523349404326" x2="181.22458367257113" y2="337.6356876261141"/><text x="153.75788145436186" y="359.5" text-anchor="end" style="font-color:black;font-weight:normal" transform="rotate(-4.647757975856136,372,359.5)">Scleroderma&#160;&#160;&#160;6%</text><path class="line" d=" M 181.8994068952207,332.3877863003072 A 192.02423709127626,192.02423709127626 0 0 0 181.22458367257113,337.6356876261141"/><path class="line" d=" M 205.32586637649877,310.08483754163365 A 173.84511813660885,173.84511813660885 0 0 0 199.896412626127,334.9545256111203"/><line x1="137.62379696171138" y1="290.0126842556507" x2="205.32586637649877" y2="310.08483754163365"/><path class="line" d=" M 187.71281275319754,305.54130980881166 A 192.02423709127626,192.02423709127626 0 0 0 181.8994068952207,332.3877863003072"/><line x1="137.38979413864834" y1="290.8068933174938" x2="187.71281275319754" y2="305.54130980881166"/><text x="153.75788145436186" y="359.5" text-anchor="end" style="font-color:black;font-weight:normal" transform="rotate(12.21833282312699,372,359.5)">unidentified&#160;&#160;&#160;2%</text><path class="line" d=" M 187.89662283900253,304.91745564374827 A 192.02423709127626,192.02423709127626 0 0 0 187.71281275319754,305.54130980881166"/><path class="line" d=" M 206.70777538597483,305.64272953371903 A 173.84511813660885,173.84511813660885 0 0 0 205.32586637649877,310.08483754163365"/><path class="line" d=" M 265.13693443741744,250.48627135964938 A 152.65552008854715,152.65552008854715 0 0 0 226.85488010529662,312.2072734529188"/><line x1="200.8712717871193" y1="184.92723585781775" x2="265.13693443741744" y2="250.48627135964938"/><text x="372" y="196.24968088742202" text-anchor="middle" style="font-color:black;font-weight:normal" transform="rotate(301.80899205409077,372,359.5)">Thel...ales</text><path class="line" d=" M 250.30363260764184,235.35444323925373 A 173.84511813660885,173.84511813660885 0 0 0 206.70777538597483,305.64272953371903"/><path class="line" d=" M 236.4186405003481,223.51837408416964 A 192.02423709127626,192.02423709127626 0 0 0 189.42303914633698,300.0108329531613"/><line x1="199.39564731336375" y1="186.3860807629055" x2="236.4186405003481" y2="223.51837408416964"/><text x="153.75788145436186" y="359.5" text-anchor="end" style="font-color:black;font-weight:normal" transform="rotate(31.565823273395182,372,359.5)">Tomentella&#160;&#160;&#160;8%</text><path class="line" d=" M 237.57774899992316,222.37244599804524 A 192.02423709127626,192.02423709127626 0 0 0 236.4186405003481,223.51837408416964"/><path class="line" d=" M 250.30363260764184,235.35444323925373 A 173.84511813660885,173.84511813660885 0 0 0 250.30363260764184,235.35444323925373"/><path class="line" d=" M 325.32978477302044,214.1535214593342 A 152.65552008854715,152.65552008854715 0 0 0 265.13693443741744,250.48627135964938"/><line x1="297.263096887884" y1="126.74457704876096" x2="325.32978477302044" y2="214.1535214593342"/><text x="372" y="196.24968088742202" text-anchor="middle" style="font-color:black;font-weight:normal" transform="rotate(328.88457801498674,372,359.5)">Tr...es</text><path class="line" d=" M 318.85164955129636,193.97846682526992 A 173.84511813660885,173.84511813660885 0 0 0 250.30363260764184,235.35444323925373"/><path class="line" d=" M 306.80779860972103,178.88083017471266 A 192.02423709127626,192.02423709127626 0 0 0 237.57774899992316,222.37244599804524"/><line x1="289.00586450296794" y1="129.55943143259762" x2="306.80779860972103" y2="178.88083017471266"/><text x="153.75788145436186" y="359.5" text-anchor="end" style="font-color:black;font-weight:normal" transform="rotate(57.862191047875136,372,359.5)">unidentified&#160;&#160;&#160;7%</text><path class="line" d=" M 313.2938852872916,176.6697516114333 A 192.02423709127626,192.02423709127626 0 0 0 306.80779860972103,178.88083017471266"/><path class="line" d=" M 318.85164955129636,193.97846682526992 A 173.84511813660885,173.84511813660885 0 0 0 318.85164955129636,193.97846682526992"/><path class="line" d=" M 341.0880610006835,210.00699066241472 A 152.65552008854715,152.65552008854715 0 0 0 325.32978477302044,214.1535214593342"/><line x1="322.4981372217025" y1="120.10439189183401" x2="341.0880610006835" y2="210.00699066241472"/><text x="372" y="196.24968088742202" text-anchor="middle" style="font-color:black;font-weight:normal" transform="rotate(345.25774293586034,372,359.5)">R...s</text><path class="line" d=" M 336.52681957369697,189.31251934888266 A 173.84511813660885,173.84511813660885 0 0 0 318.85164955129636,193.97846682526992"/><line x1="322.1178187805096" y1="120.18334868466442" x2="336.52681957369697" y2="189.31251934888266"/><text x="162.8474409316956" y="359.5" text-anchor="end" style="font-color:black;font-weight:normal" transform="rotate(75.2122236567154,372,359.5)">Russulaceae&#160;&#160;&#160;2%</text><path class="line" d=" M 336.7972789713027,189.25637006892973 A 173.84511813660885,173.84511813660885 0 0 0 336.52681957369697,189.31251934888266"/><line x1="604.46" y1="359.5" x2="628.46" y2="359.5" class="tick" transform="rotate(261.9646493551435,372,359.5)"/><text x="111.54000000000002" y="359.5" text-anchor="end" style="font-color:black;font-weight:normal" transform="rotate(81.96464935514351,372,359.5)">6 more</text><path class="line" d=" M 360.32077599142127,207.29190711377316 A 152.65552008854715,152.65552008854715 0 0 0 341.0880610006835,210.00699066241472"/><path class="line" d=" M 368.4458799724226,231.90712243091048 A 127.64236826199634,127.64236826199634 0 0 0 362.23445853086315,232.23174639626086"/><path class="line" d=" M 467.38099333629907,380.53012902682445 A 97.67190085538428,97.67190085538428 0 0 0 369.28038845025856,261.8659694075753"/><line x1="610.7261579511514" y1="412.1356638590402" x2="467.38099333629907" y2="380.53012902682445"/><text x="372" y="246.8428654413097" text-anchor="middle" style="font-color:black;font-weight:normal" transform="rotate(410.4191899697869,372,359.5)">Ascomycota</text><path class="line" d=" M 481.7381832218384,294.3071681954119 A 127.64236826199634,127.64236826199634 0 0 0 368.4458799724226,231.90712243091048"/><line x1="582.1699979065481" y1="234.64302750762565" x2="481.7381832218384" y2="294.3071681954119"/><text x="372" y="219.35105582472826" text-anchor="middle" style="font-color:black;font-weight:normal" transform="rotate(388.84544740659896,372,359.5)">Eurot...cetes</text><path class="line" d=" M 497.77121652169717,272.9823202567406 A 152.65552008854715,152.65552008854715 0 0 0 367.74940477323867,206.90366893754273"/><line x1="573.407925327954" y1="220.9520328005881" x2="497.77121652169717" y2="272.9823202567406"/><text x="372" y="196.24968088742202" text-anchor="middle" style="font-color:black;font-weight:normal" transform="rotate(386.940225999228,372,359.5)">Eurotiales</text><path class="line" d=" M 490.36024203322035,232.16980638603826 A 173.84511813660885,173.84511813660885 0 0 0 367.15939398117666,185.72228671863007"/><line x1="538.437488021402" y1="180.44901792750295" x2="490.36024203322035" y2="232.16980638603826"/><path class="line" d=" M 494.0555555528156,211.25780293998528 A 192.02423709127626,192.02423709127626 0 0 0 366.65320805216066,167.5502163419995"/><line x1="527.3850782714388" y1="170.7775343246628" x2="494.0555555528156" y2="211.25780293998528"/><text x="590.2421185456382" y="359.5" text-anchor="start" style="font-color:black;font-weight:normal" transform="rotate(288.9354211864294,372,359.5)">11%&#160;&#160;&#160;Penicillium</text><path class="line" d=" M 502.73726442239285,218.85478919694415 A 192.02423709127626,192.02423709127626 0 0 0 494.0555555528156,211.25780293998528"/><line x1="572.5174485814268" y1="219.6663688006536" x2="514.5958420072386" y2="260.05880661326444"/><path class="line" d=" M 514.5958420072386,260.05880661326444 A 173.84511813660885,173.84511813660885 0 0 0 490.36024203322035,232.16980638603826"/><text x="581.1525590683044" y="359.5" text-anchor="start" style="font-color:black;font-weight:normal" transform="rotate(319.00929019205944,372,359.5)">3%&#160;&#160;&#160;Talaromyces</text><path class="line" d=" M 515.2290950351282,260.9730928357655 A 173.84511813660885,173.84511813660885 0 0 0 514.5958420072386,260.05880661326444"/><path class="line" d=" M 503.24278138522857,281.53180040699976 A 152.65552008854715,152.65552008854715 0 0 0 497.77121652169717,272.9823202567406"/><path class="line" d=" M 496.69144023711567,332.212293846406 A 127.64236826199634,127.64236826199634 0 0 0 481.7381832218384,294.3071681954119"/><line x1="610.8083979905354" y1="307.2387270611015" x2="496.69144023711567" y2="332.212293846406"/><text x="372" y="219.35105582472826" text-anchor="middle" style="font-color:black;font-weight:normal" transform="rotate(428.4711777780735,372,359.5)">L...s</text><path class="line" d=" M 519.613082258959,320.58874507915976 A 152.65552008854715,152.65552008854715 0 0 0 503.24278138522857,281.53180040699976"/><line x1="608.385124285672" y1="297.1881663209357" x2="519.613082258959" y2="320.58874507915976"/><text x="372" y="196.24968088742202" text-anchor="middle" style="font-color:black;font-weight:normal" transform="rotate(427.25952643978013,372,359.5)">He...es</text><line x1="606.5497967746521" y1="290.6009112326629" x2="538.7975829551133" y2="310.50314887399816"/><path class="line" d=" M 538.7975829551133,310.50314887399816 A 173.84511813660885,173.84511813660885 0 0 0 521.460149369364,270.7092975001385"/><text x="581.1525590683044" y="359.5" text-anchor="start" style="font-color:black;font-weight:normal" transform="rotate(336.45814755167504,372,359.5)">4%&#160;&#160;&#160;Oidiodendron</text><path class="line" d=" M 540.1027565130477,315.18760497731466 A 173.84511813660885,173.84511813660885 0 0 0 538.7975829551133,310.50314887399816"/><path class="line" d=" M 521.1263200390981,326.8649194102222 A 152.65552008854715,152.65552008854715 0 0 0 519.613082258959,320.58874507915976"/><path class="line" d=" M 499.6389118419257,358.5606601572288 A 127.64236826199634,127.64236826199634 0 0 0 496.69144023711567,332.212293846406"/><line x1="616.4533802822529" y1="357.7009812173611" x2="499.6389118419257" y2="358.5606601572288"/><text x="372" y="219.35105582472826" text-anchor="middle" style="font-color:black;font-weight:normal" transform="rotate(443.6171189756831,372,359.5)">A...s</text><path class="line" d=" M 524.6513863388313,358.3765845213417 A 152.65552008854715,152.65552008854715 0 0 0 521.1263200390981,326.8649194102222"/><text x="372" y="196.24968088742202" text-anchor="middle" style="font-color:black;font-weight:normal" transform="rotate(443.6171189756831,372,359.5)">A...e</text><path class="line" d=" M 545.8404105950324,358.22064700647206 A 173.84511813660885,173.84511813660885 0 0 0 541.8260417273948,322.33495390643714"/><text x="581.1525590683044" y="359.5" text-anchor="start" style="font-color:black;font-weight:normal" transform="rotate(353.6171189756831,372,359.5)">3%&#160;&#160;&#160;Archaeorhizomyces</text><path class="line" d=" M 545.8404105950324,358.22064700647206 A 173.84511813660885,173.84511813660885 0 0 0 545.8404105950324,358.22064700647206"/><path class="line" d=" M 524.6513863388313,358.3765845213417 A 152.65552008854715,152.65552008854715 0 0 0 524.6513863388313,358.3765845213417"/><path class="line" d=" M 499.0568902652735,371.7115032510063 A 127.64236826199634,127.64236826199634 0 0 0 499.6389118419257,358.5606601572288"/><line x1="615.3386955849559" y1="382.88740753080975" x2="499.0568902652735" y2="371.7115032510063"/><text x="558.0511841309982" y="359.5" text-anchor="start" style="font-color:black;font-weight:normal" transform="rotate(362.5341061850319,372,359.5)">2%&#160;&#160;&#160;Sordariomycetes</text><line x1="604.46" y1="359.5" x2="628.46" y2="359.5" class="tick" transform="rotate(368.96190755061025,372,359.5)"/><text x="632.46" y="359.5" text-anchor="start" style="font-color:black;font-weight:normal" transform="rotate(368.96190755061025,372,359.5)">5 more</text><path class="line" d=" M 496.64849941492423,386.98319066518144 A 127.64236826199634,127.64236826199634 0 0 0 499.0568902652735,371.7115032510063"/><line x1="604.46" y1="359.5" x2="628.46" y2="359.5" class="tick" transform="rotate(375.7125364353879,372,359.5)"/><text x="632.46" y="359.5" text-anchor="start" style="font-color:black;font-weight:normal" transform="rotate(375.7125364353879,372,359.5)">3 more</text><path class="line" d=" M 464.3555224809304,391.28455102684904 A 97.67190085538428,97.67190085538428 0 0 0 467.38099333629907,380.53012902682445"/><line x1="372.00000000000006" y1="603.96" x2="372" y2="420.615"/><path class="line" d=" M 372,420.615 A 61.114999999999995,61.114999999999995 0 0 0 429.7884499737461,379.3881440720809"/><text x="524.7875" y="359.5" text-anchor="start" style="font-color:black;font-weight:normal" transform="rotate(414.49556120479684,372,359.5)">20%&#160;&#160;&#160;unidentified</text></svg>