<?xml version="1.0" standalone="no"?><!DOCTYPE svg PUBLIC "-//W3C//DTD SVG 1.1//EN" 	"http://www.w3.org/Graphics/SVG/1.1/DTD/svg11.dtd"><svg width="1263" height="1212" version="1.1"	xmlns="http://www.w3.org/2000/svg"><title>Krona (snapshot) - all</title><defs>	<style type="text/css">	text {font-size: 13px; font-family: sans-serif; dominant-baseline:central}	path {stroke-width:0.325;}	path.wedge {stroke:none}	path.line {fill:none;stroke:black;}	line {stroke:black;stroke-width:0.325;}	line.tick {stroke-width:0.65;}	line.pattern {stroke-width:0.21666666666666667;}	circle {fill:none;stroke:black;stroke-width:0.325;}	rect {stroke:black;stroke-width:0.325;}	.highlight {stroke:black;stroke-width:1.625;}	.searchHighlight {fill:rgb(255, 255, 100);stroke:none;}	</style><pattern id="hiddenPattern" patternUnits="userSpaceOnUse" x="0" y="0" width="7.8" height="7.8"><line class="pattern" x1="0" y1="0" x2="3.9" y2="3.9"/><line class="pattern" x1="3.9" y1="7.8" x2="7.8" y2="3.9"/></pattern></defs><path class="wedge" fill="rgb(207,112,112)" d=" M 556.5,710 L 556.5,1051.2 A 445.2,445.2 0 1,1 977.4673227245646,750.8777180870554 L 654.8391769167896,639.8438514848467 A 104,104 0 1 0 556.5,710 Z "/><path class="wedge" fill="rgb(211,123,123)" d=" M 556.5,778.8389103620029 L 556.5,1051.2 A 445.2,445.2 0 0,1 544.1036910171575,160.97261710811335 L 551.687411192486,433.22810435694623 A 172.8389103620029,172.8389103620029 0 0 0 556.5,778.8389103620029 Z "/><path class="wedge" fill="rgb(214,134,134)" d=" M 556.5,835.2751582669516 L 556.5,1051.2 A 445.2,445.2 0 0,1 522.4390598806826,162.10486333122742 L 538.9588332511732,377.396838019625 A 229.2751582669516,229.2751582669516 0 0 0 556.5,835.2751582669516 Z "/><path class="wedge" fill="rgb(218,145,145)" d=" M 556.5,882.3764736457001 L 556.5,1051.2 A 445.2,445.2 0 0,1 128.1915439665708,727.4697760360989 L 290.6096569830333,681.4074311666442 A 276.3764736457002,276.3764736457002 0 0 0 556.5,882.3764736457001 Z "/><path class="wedge" fill="rgb(222,156,156)" d=" M 556.5,922.2778002490617 L 556.5,1051.2 A 445.2,445.2 0 0,1 281.98833098328134,956.4944843698049 L 361.48215000155824,854.9973596493959 A 316.27780024906167,316.27780024906167 0 0 0 556.5,922.2778002490617 Z "/><path class="wedge" fill="rgb(222,156,156)" d=" M 556.5,922.2778002490617 L 556.5,1051.2 A 445.2,445.2 0 0,1 281.98833098328134,956.4944843698049 L 361.48215000155824,854.9973596493959 A 316.27780024906167,316.27780024906167 0 0 0 556.5,922.2778002490617 Z "/><path class="wedge" fill="rgb(222,160,156)" d=" M 361.48215000155824,854.9973596493959 L 281.98833098328134,956.4944843698049 A 445.2,445.2 0 0,1 170.61394301772185,828.0247531845716 L 282.35985343859164,763.7302348114492 A 316.27780024906167,316.27780024906167 0 0 0 361.48215000155824,854.9973596493959 Z "/><path class="wedge" fill="rgb(225,171,167)" d=" M 340.3743435861933,881.947651971142 L 281.98833098328134,956.4944843698049 A 445.2,445.2 0 0,1 182.5886071956188,847.647078052038 L 262.115992573613,796.2510503525966 A 350.5102081091011,350.5102081091011 0 0 0 340.3743435861933,881.947651971142 Z "/><path class="wedge" fill="rgb(225,173,167)" d=" M 262.115992573613,796.2510503525966 L 182.5886071956188,847.647078052038 A 445.2,445.2 0 0,1 173.76173412922657,833.4081349429548 L 255.1665111822074,785.0405945744781 A 350.5102081091011,350.5102081091011 0 0 0 262.115992573613,796.2510503525966 Z "/><path class="wedge" fill="rgb(225,173,167)" d=" M 255.1665111822074,785.0405945744781 L 173.76173412922657,833.4081349429548 A 445.2,445.2 0 0,1 170.61394301772185,828.0247531845716 L 252.68822520382133,780.8022067477449 A 350.5102081091011,350.5102081091011 0 0 0 255.1665111822074,785.0405945744781 Z "/><path class="wedge" fill="url(#hiddenPattern)" d=" M 255.1665111822074,785.0405945744781 L 173.76173412922657,833.4081349429548 A 445.2,445.2 0 0,1 170.61394301772185,828.0247531845716 L 252.68822520382133,780.8022067477449 A 350.5102081091011,350.5102081091011 0 0 0 255.1665111822074,785.0405945744781 Z "/><path class="wedge" fill="rgb(222,163,156)" d=" M 282.35985343859164,763.7302348114492 L 170.61394301772185,828.0247531845716 A 445.2,445.2 0 0,1 148.38066602618449,783.8809974021094 L 266.56494791475626,732.3697452031631 A 316.27780024906167,316.27780024906167 0 0 0 282.35985343859164,763.7302348114492 Z "/><path class="wedge" fill="rgb(225,173,167)" d=" M 252.68822520382133,780.8022067477449 L 170.61394301772185,828.0247531845716 A 445.2,445.2 0 0,1 151.82303198048345,791.5790708957536 L 237.89396164087873,752.108173316182 A 350.5102081091011,350.5102081091011 0 0 0 252.68822520382133,780.8022067477449 Z "/><path class="wedge" fill="rgb(225,173,167)" d=" M 237.89396164087873,752.108173316182 L 151.82303198048345,791.5790708957536 A 445.2,445.2 0 0,1 148.38066602618449,783.8809974021094 L 235.18375407792047,746.0474065994335 A 350.5102081091011,350.5102081091011 0 0 0 237.89396164087873,752.108173316182 Z "/><path class="wedge" fill="url(#hiddenPattern)" d=" M 237.89396164087873,752.108173316182 L 151.82303198048345,791.5790708957536 A 445.2,445.2 0 0,1 148.38066602618449,783.8809974021094 L 235.18375407792047,746.0474065994335 A 350.5102081091011,350.5102081091011 0 0 0 237.89396164087873,752.108173316182 Z "/><path class="wedge" fill="rgb(222,163,156)" d=" M 266.56494791475626,732.3697452031631 L 148.38066602618449,783.8809974021094 A 445.2,445.2 0 0,1 133.45177545059727,744.6839561939236 L 255.95920516676506,704.5234874098189 A 316.27780024906167,316.27780024906167 0 0 0 266.56494791475626,732.3697452031631 Z "/><path class="wedge" fill="rgb(225,174,167)" d=" M 235.18375407792047,746.0474065994335 L 148.38066602618449,783.8809974021094 A 445.2,445.2 0 0,1 136.13294736483954,752.6103033856359 L 225.54100830781772,721.42769081455 A 350.5102081091011,350.5102081091011 0 0 0 235.18375407792047,746.0474065994335 Z "/><path class="wedge" fill="rgb(225,174,167)" d=" M 225.54100830781772,721.42769081455 L 136.13294736483954,752.6103033856359 A 445.2,445.2 0 0,1 133.45177545059727,744.6839561939236 L 223.43009607592796,715.1872020371195 A 350.5102081091011,350.5102081091011 0 0 0 225.54100830781772,721.42769081455 Z "/><path class="wedge" fill="url(#hiddenPattern)" d=" M 225.54100830781772,721.42769081455 L 136.13294736483954,752.6103033856359 A 445.2,445.2 0 0,1 133.45177545059727,744.6839561939236 L 223.43009607592796,715.1872020371195 A 350.5102081091011,350.5102081091011 0 0 0 225.54100830781772,721.42769081455 Z "/><path class="wedge" fill="rgb(218,154,145)" d=" M 255.95920516676506,704.5234874098189 L 133.45177545059727,744.6839561939236 A 445.2,445.2 0 0,1 128.1915439665708,727.4697760360989 L 252.2222455024148,692.2942353132155 A 316.27780024906167,316.27780024906167 0 0 0 255.95920516676506,704.5234874098189 Z "/><path class="wedge" fill="url(#hiddenPattern)" d=" M 255.95920516676506,704.5234874098189 L 133.45177545059727,744.6839561939236 A 445.2,445.2 0 0,1 128.1915439665708,727.4697760360989 L 252.2222455024148,692.2942353132155 A 316.27780024906167,316.27780024906167 0 0 0 255.95920516676506,704.5234874098189 Z "/><path class="wedge" fill="rgb(218,154,145)" d=" M 290.6096569830333,681.4074311666442 L 128.1915439665708,727.4697760360989 A 445.2,445.2 0 0,1 133.20310684055045,468.07690461145546 L 293.7207937183527,520.3784844164747 A 276.3764736457002,276.3764736457002 0 0 0 290.6096569830333,681.4074311666442 Z "/><path class="wedge" fill="rgb(222,164,156)" d=" M 252.2222455024148,692.2942353132155 L 128.1915439665708,727.4697760360989 A 445.2,445.2 0 0,1 115.75988650058463,543.1414894185167 L 243.39058046020472,561.3442240484189 A 316.27780024906167,316.27780024906167 0 0 0 252.2222455024148,692.2942353132155 Z "/><path class="wedge" fill="rgb(225,174,167)" d=" M 219.28866563529863,701.6343137407433 L 128.1915439665708,727.4697760360989 A 445.2,445.2 0 0,1 114.19533765365554,555.3085247138513 L 208.26931885300343,566.0901178079395 A 350.5102081091011,350.5102081091011 0 0 0 219.28866563529863,701.6343137407433 Z "/><path class="wedge" fill="rgb(225,177,167)" d=" M 208.26931885300343,566.0901178079395 L 114.19533765365554,555.3085247138513 A 445.2,445.2 0 0,1 115.75988650058463,543.1414894185167 L 209.5011030891534,556.5108948217793 A 350.5102081091011,350.5102081091011 0 0 0 208.26931885300343,566.0901178079395 Z "/><path class="wedge" fill="url(#hiddenPattern)" d=" M 208.26931885300343,566.0901178079395 L 114.19533765365554,555.3085247138513 A 445.2,445.2 0 0,1 115.75988650058463,543.1414894185167 L 209.5011030891534,556.5108948217793 A 350.5102081091011,350.5102081091011 0 0 0 208.26931885300343,566.0901178079395 Z "/><path class="wedge" fill="rgb(222,167,156)" d=" M 243.39058046020472,561.3442240484189 L 115.75988650058463,543.1414894185167 A 445.2,445.2 0 0,1 129.66417576435367,479.4526999534308 L 253.26842866858635,516.0986035799936 A 316.27780024906167,316.27780024906167 0 0 0 243.39058046020472,561.3442240484189 Z "/><path class="wedge" fill="rgb(225,177,167)" d=" M 209.5011030891534,556.5108948217793 L 115.75988650058463,543.1414894185167 A 445.2,445.2 0 0,1 129.23801992361217,480.8990792152018 L 220.11256614177603,507.50685135013526 A 350.5102081091011,350.5102081091011 0 0 0 209.5011030891534,556.5108948217793 Z "/><path class="wedge" fill="rgb(225,178,167)" d=" M 220.11256614177603,507.50685135013526 L 129.23801992361217,480.8990792152018 A 445.2,445.2 0 0,1 129.66417576435367,479.4526999534308 L 220.4480827015811,506.3681031559573 A 350.5102081091011,350.5102081091011 0 0 0 220.11256614177603,507.50685135013526 Z "/><path class="wedge" fill="url(#hiddenPattern)" d=" M 220.11256614177603,507.50685135013526 L 129.23801992361217,480.8990792152018 A 445.2,445.2 0 0,1 129.66417576435367,479.4526999534308 L 220.4480827015811,506.3681031559573 A 350.5102081091011,350.5102081091011 0 0 0 220.11256614177603,507.50685135013526 Z "/><path class="wedge" fill="rgb(218,158,145)" d=" M 253.26842866858635,516.0986035799936 L 129.66417576435367,479.4526999534308 A 445.2,445.2 0 0,1 133.20310684055045,468.07690461145546 L 255.7825466740054,508.01704130047085 A 316.27780024906167,316.27780024906167 0 0 0 253.26842866858635,516.0986035799936 Z "/><path class="wedge" fill="url(#hiddenPattern)" d=" M 253.26842866858635,516.0986035799936 L 129.66417576435367,479.4526999534308 A 445.2,445.2 0 0,1 133.20310684055045,468.07690461145546 L 255.7825466740054,508.01704130047085 A 316.27780024906167,316.27780024906167 0 0 0 253.26842866858635,516.0986035799936 Z "/><path class="wedge" fill="rgb(218,159,145)" d=" M 293.7207937183527,520.3784844164747 L 133.20310684055045,468.07690461145546 A 445.2,445.2 0 0,1 244.8477468691218,288.0756172948558 L 363.0288618058193,408.63517570073276 A 276.3764736457002,276.3764736457002 0 0 0 293.7207937183527,520.3784844164747 Z "/><path class="wedge" fill="rgb(222,168,156)" d=" M 255.7825466740054,508.01704130047085 L 133.20310684055045,468.07690461145546 A 445.2,445.2 0 0,1 244.8477468691218,288.0756172948558 L 335.0968349889984,380.1410053739357 A 316.27780024906167,316.27780024906167 0 0 0 255.7825466740054,508.01704130047085 Z "/><path class="wedge" fill="rgb(225,178,167)" d=" M 223.23431690643622,497.4118309351075 L 133.20310684055045,468.07690461145546 A 445.2,445.2 0 0,1 242.16040327214898,290.73240266565296 L 309.01743606017527,357.78681232767684 A 350.5102081091011,350.5102081091011 0 0 0 223.23431690643622,497.4118309351075 Z "/><path class="wedge" fill="rgb(225,180,167)" d=" M 309.01743606017527,357.78681232767684 L 242.16040327214898,290.73240266565296 A 445.2,445.2 0 0,1 244.8477468691218,288.0756172948558 L 311.13320731676913,355.6950998541384 A 350.5102081091011,350.5102081091011 0 0 0 309.01743606017527,357.78681232767684 Z "/><path class="wedge" fill="url(#hiddenPattern)" d=" M 309.01743606017527,357.78681232767684 L 242.16040327214898,290.73240266565296 A 445.2,445.2 0 0,1 244.8477468691218,288.0756172948558 L 311.13320731676913,355.6950998541384 A 350.5102081091011,350.5102081091011 0 0 0 309.01743606017527,357.78681232767684 Z "/><path class="wedge" fill="rgb(222,171,156)" d=" M 335.0968349889984,380.1410053739357 L 244.8477468691218,288.0756172948558 A 445.2,445.2 0 0,1 244.8477468691218,288.0756172948558 L 335.0968349889984,380.1410053739357 A 316.27780024906167,316.27780024906167 0 0 0 335.0968349889984,380.1410053739357 Z "/><path class="wedge" fill="url(#hiddenPattern)" d=" M 335.0968349889984,380.1410053739357 L 244.8477468691218,288.0756172948558 A 445.2,445.2 0 0,1 244.8477468691218,288.0756172948558 L 335.0968349889984,380.1410053739357 A 316.27780024906167,316.27780024906167 0 0 0 335.0968349889984,380.1410053739357 Z "/><path class="wedge" fill="rgb(218,162,145)" d=" M 363.0288618058193,408.63517570073276 L 244.8477468691218,288.0756172948558 A 445.2,445.2 0 0,1 420.392378035204,182.11587049868433 L 472.00551528541695,342.8562422597688 A 276.3764736457002,276.3764736457002 0 0 0 363.0288618058193,408.63517570073276 Z "/><path class="wedge" fill="rgb(222,171,156)" d=" M 335.0968349889984,380.1410053739357 L 244.8477468691218,288.0756172948558 A 445.2,445.2 0 0,1 420.392378035204,182.11587049868433 L 459.8067851029727,304.865363793431 A 316.27780024906167,316.27780024906167 0 0 0 335.0968349889984,380.1410053739357 Z "/><path class="wedge" fill="rgb(225,180,167)" d=" M 311.13320731676913,355.6950998541384 L 244.8477468691218,288.0756172948558 A 445.2,445.2 0 0,1 405.3546628353159,187.24216180067276 L 437.50183381780397,276.30795818831206 A 350.5102081091011,350.5102081091011 0 0 0 311.13320731676913,355.6950998541384 Z "/><path class="wedge" fill="rgb(225,183,167)" d=" M 437.50183381780397,276.30795818831206 L 405.3546628353159,187.24216180067276 A 445.2,445.2 0 0,1 420.392378035204,182.11587049868433 L 449.3411704849157,272.27198013106175 A 350.5102081091011,350.5102081091011 0 0 0 437.50183381780397,276.30795818831206 Z "/><path class="wedge" fill="url(#hiddenPattern)" d=" M 437.50183381780397,276.30795818831206 L 405.3546628353159,187.24216180067276 A 445.2,445.2 0 0,1 420.392378035204,182.11587049868433 L 449.3411704849157,272.27198013106175 A 350.5102081091011,350.5102081091011 0 0 0 437.50183381780397,276.30795818831206 Z "/><path class="wedge" fill="rgb(222,174,156)" d=" M 459.8067851029727,304.865363793431 L 420.392378035204,182.11587049868433 A 445.2,445.2 0 0,1 420.392378035204,182.11587049868433 L 459.8067851029727,304.865363793431 A 316.27780024906167,316.27780024906167 0 0 0 459.8067851029727,304.865363793431 Z "/><path class="wedge" fill="url(#hiddenPattern)" d=" M 459.8067851029727,304.865363793431 L 420.392378035204,182.11587049868433 A 445.2,445.2 0 0,1 420.392378035204,182.11587049868433 L 459.8067851029727,304.865363793431 A 316.27780024906167,316.27780024906167 0 0 0 459.8067851029727,304.865363793431 Z "/><path class="wedge" fill="rgb(218,165,145)" d=" M 472.00551528541695,342.8562422597688 L 420.392378035204,182.11587049868433 A 445.2,445.2 0 0,1 466.3493442326023,170.02305191133308 L 500.5352193669344,335.34912061194916 A 276.3764736457002,276.3764736457002 0 0 0 472.00551528541695,342.8562422597688 Z "/><path class="wedge" fill="rgb(222,174,156)" d=" M 459.8067851029727,304.865363793431 L 420.392378035204,182.11587049868433 A 445.2,445.2 0 0,1 465.65672470376694,170.16684461430333 L 491.96336190900155,296.3765685961464 A 316.27780024906167,316.27780024906167 0 0 0 459.8067851029727,304.865363793431 Z "/><path class="wedge" fill="rgb(225,183,167)" d=" M 449.3411704849157,272.27198013106175 L 420.392378035204,182.11587049868433 A 445.2,445.2 0 0,1 451.4387070037973,173.37410535895327 L 473.7842415267065,265.3895050224184 A 350.5102081091011,350.5102081091011 0 0 0 449.3411704849157,272.27198013106175 Z "/><path class="wedge" fill="rgb(225,184,167)" d=" M 473.7842415267065,265.3895050224184 L 451.4387070037973,173.37410535895327 A 445.2,445.2 0 0,1 465.65672470376694,170.16684461430333 L 484.97822253055926,262.8643980343964 A 350.5102081091011,350.5102081091011 0 0 0 473.7842415267065,265.3895050224184 Z "/><path class="wedge" fill="url(#hiddenPattern)" d=" M 473.7842415267065,265.3895050224184 L 451.4387070037973,173.37410535895327 A 445.2,445.2 0 0,1 465.65672470376694,170.16684461430333 L 484.97822253055926,262.8643980343964 A 350.5102081091011,350.5102081091011 0 0 0 473.7842415267065,265.3895050224184 Z "/><path class="wedge" fill="rgb(218,166,145)" d=" M 491.96336190900155,296.3765685961464 L 465.65672470376694,170.16684461430333 A 445.2,445.2 0 0,1 466.3493442326023,170.02305191133308 L 492.45541083305716,296.2744157664355 A 316.27780024906167,316.27780024906167 0 0 0 491.96336190900155,296.3765685961464 Z "/><path class="wedge" fill="url(#hiddenPattern)" d=" M 491.96336190900155,296.3765685961464 L 465.65672470376694,170.16684461430333 A 445.2,445.2 0 0,1 466.3493442326023,170.02305191133308 L 492.45541083305716,296.2744157664355 A 316.27780024906167,316.27780024906167 0 0 0 491.96336190900155,296.3765685961464 Z "/><path class="wedge" fill="rgb(218,166,145)" d=" M 500.5352193669344,335.34912061194916 L 466.3493442326023,170.02305191133308 A 445.2,445.2 0 0,1 494.36030359970727,165.15796691867115 L 517.9241910051048,332.32891613248256 A 276.3764736457002,276.3764736457002 0 0 0 500.5352193669344,335.34912061194916 Z "/><path class="wedge" fill="rgb(218,166,145)" d=" M 500.5352193669344,335.34912061194916 L 466.3493442326023,170.02305191133308 A 445.2,445.2 0 0,1 494.36030359970727,165.15796691867115 L 517.9241910051048,332.32891613248256 A 276.3764736457002,276.3764736457002 0 0 0 500.5352193669344,335.34912061194916 Z "/><path class="wedge" fill="rgb(218,166,145)" d=" M 500.5352193669344,335.34912061194916 L 466.3493442326023,170.02305191133308 A 445.2,445.2 0 0,1 494.36030359970727,165.15796691867115 L 517.9241910051048,332.32891613248256 A 276.3764736457002,276.3764736457002 0 0 0 500.5352193669344,335.34912061194916 Z "/><path class="wedge" fill="rgb(214,158,134)" d=" M 517.9241910051048,332.32891613248256 L 494.36030359970727,165.15796691867115 A 445.2,445.2 0 0,1 522.4390598806826,162.10486333122742 L 535.3552504060326,330.43357470576933 A 276.3764736457002,276.3764736457002 0 0 0 517.9241910051048,332.32891613248256 Z "/><path class="wedge" fill="url(#hiddenPattern)" d=" M 517.9241910051048,332.32891613248256 L 494.36030359970727,165.15796691867115 A 445.2,445.2 0 0,1 522.4390598806826,162.10486333122742 L 535.3552504060326,330.43357470576933 A 276.3764736457002,276.3764736457002 0 0 0 517.9241910051048,332.32891613248256 Z "/><path class="wedge" fill="rgb(211,150,123)" d=" M 538.9588332511732,377.396838019625 L 522.4390598806826,162.10486333122742 A 445.2,445.2 0 0,1 544.1036910171575,160.97261710811335 L 550.1159800000736,376.81373844190347 A 229.2751582669516,229.2751582669516 0 0 0 538.9588332511732,377.396838019625 Z "/><path class="wedge" fill="url(#hiddenPattern)" d=" M 538.9588332511732,377.396838019625 L 522.4390598806826,162.10486333122742 A 445.2,445.2 0 0,1 544.1036910171575,160.97261710811335 L 550.1159800000736,376.81373844190347 A 229.2751582669516,229.2751582669516 0 0 0 538.9588332511732,377.396838019625 Z "/><path class="wedge" fill="rgb(211,150,123)" d=" M 551.687411192486,433.22810435694623 L 544.1036910171575,160.97261710811335 A 445.2,445.2 0 0,1 991.2577743592107,701.8577990266084 L 725.2849505652639,643.2146395630253 A 172.8389103620029,172.8389103620029 0 0 0 551.687411192486,433.22810435694623 Z "/><path class="wedge" fill="rgb(214,159,134)" d=" M 550.1159800000736,376.81373844190347 L 544.1036910171575,160.97261710811335 A 445.2,445.2 0 0,1 939.2525282990888,378.61587108891 L 753.6151089462028,488.8986250146382 A 229.2751582669516,229.2751582669516 0 0 0 550.1159800000736,376.81373844190347 Z "/><path class="wedge" fill="rgb(218,168,145)" d=" M 548.8044740276268,329.7306856257088 L 544.1036910171575,160.97261710811335 A 445.2,445.2 0 0,1 923.2954199296618,353.6824224937488 L 784.2035595452688,449.36333712937255 A 276.3764736457002,276.3764736457002 0 0 0 548.8044740276268,329.7306856257088 Z "/><path class="wedge" fill="rgb(222,176,156)" d=" M 547.6934471331961,289.8448299379092 L 544.1036910171575,160.97261710811335 A 445.2,445.2 0 0,1 859.6087689893159,279.9200801003203 L 771.833725723589,374.34717032511026 A 316.27780024906167,316.27780024906167 0 0 0 547.6934471331961,289.8448299379092 Z "/><path class="wedge" fill="rgb(225,185,167)" d=" M 546.7402676519298,255.62569498723315 L 544.1036910171575,160.97261710811335 A 445.2,445.2 0 0,1 839.4805974247098,262.30679162783224 L 779.2933245601366,335.40705751973684 A 350.5102081091011,350.5102081091011 0 0 0 546.7402676519298,255.62569498723315 Z "/><path class="wedge" fill="rgb(225,189,167)" d=" M 779.2933245601366,335.40705751973684 L 839.4805974247098,262.30679162783224 A 445.2,445.2 0 0,1 858.9605268749209,279.31870319446625 L 794.6300588942428,348.80069782421685 A 350.5102081091011,350.5102081091011 0 0 0 779.2933245601366,335.40705751973684 Z "/><path class="wedge" fill="rgb(225,189,167)" d=" M 794.6300588942428,348.80069782421685 L 858.9605268749209,279.31870319446625 A 445.2,445.2 0 0,1 859.6087689893159,279.9200801003203 L 795.1404260964478,349.27416760054865 A 350.5102081091011,350.5102081091011 0 0 0 794.6300588942428,348.80069782421685 Z "/><path class="wedge" fill="url(#hiddenPattern)" d=" M 794.6300588942428,348.80069782421685 L 858.9605268749209,279.31870319446625 A 445.2,445.2 0 0,1 859.6087689893159,279.9200801003203 L 795.1404260964478,349.27416760054865 A 350.5102081091011,350.5102081091011 0 0 0 794.6300588942428,348.80069782421685 Z "/><path class="wedge" fill="rgb(222,181,156)" d=" M 771.833725723589,374.34717032511026 L 859.6087689893159,279.9200801003203 A 445.2,445.2 0 0,1 921.6737221158932,351.34102671214504 L 815.9257446980612,425.0858493145388 A 316.27780024906167,316.27780024906167 0 0 0 771.833725723589,374.34717032511026 Z "/><path class="wedge" fill="rgb(222,181,156)" d=" M 771.833725723589,374.34717032511026 L 859.6087689893159,279.9200801003203 A 445.2,445.2 0 0,1 921.6737221158932,351.34102671214504 L 815.9257446980612,425.0858493145388 A 316.27780024906167,316.27780024906167 0 0 0 771.833725723589,374.34717032511026 Z "/><path class="wedge" fill="rgb(218,175,145)" d=" M 815.9257446980612,425.0858493145388 L 921.6737221158932,351.34102671214504 A 445.2,445.2 0 0,1 923.2954199296618,353.6824224937488 L 817.0778269469547,426.749217480123 A 316.27780024906167,316.27780024906167 0 0 0 815.9257446980612,425.0858493145388 Z "/><path class="wedge" fill="url(#hiddenPattern)" d=" M 815.9257446980612,425.0858493145388 L 921.6737221158932,351.34102671214504 A 445.2,445.2 0 0,1 923.2954199296618,353.6824224937488 L 817.0778269469547,426.749217480123 A 316.27780024906167,316.27780024906167 0 0 0 815.9257446980612,425.0858493145388 Z "/><path class="wedge" fill="rgb(218,175,145)" d=" M 784.2035595452688,449.36333712937255 L 923.2954199296618,353.6824224937488 A 445.2,445.2 0 0,1 935.2004424476191,371.9294659937362 L 791.5940989482017,460.69095064461555 A 276.3764736457002,276.3764736457002 0 0 0 784.2035595452688,449.36333712937255 Z "/><path class="wedge" fill="rgb(222,183,156)" d=" M 817.0778269469547,426.749217480123 L 923.2954199296618,353.6824224937488 A 445.2,445.2 0 0,1 934.0754529238784,370.11906107248075 L 824.7361493234667,438.4260905555277 A 316.27780024906167,316.27780024906167 0 0 0 817.0778269469547,426.749217480123 Z "/><path class="wedge" fill="rgb(222,183,156)" d=" M 817.0778269469547,426.749217480123 L 923.2954199296618,353.6824224937488 A 445.2,445.2 0 0,1 934.0754529238784,370.11906107248075 L 824.7361493234667,438.4260905555277 A 316.27780024906167,316.27780024906167 0 0 0 817.0778269469547,426.749217480123 Z "/><path class="wedge" fill="rgb(218,175,145)" d=" M 824.7361493234667,438.4260905555277 L 934.0754529238784,370.11906107248075 A 445.2,445.2 0 0,1 935.2004424476191,371.9294659937362 L 825.5353613896661,439.71223360596514 A 316.27780024906167,316.27780024906167 0 0 0 824.7361493234667,438.4260905555277 Z "/><path class="wedge" fill="url(#hiddenPattern)" d=" M 824.7361493234667,438.4260905555277 L 934.0754529238784,370.11906107248075 A 445.2,445.2 0 0,1 935.2004424476191,371.9294659937362 L 825.5353613896661,439.71223360596514 A 316.27780024906167,316.27780024906167 0 0 0 824.7361493234667,438.4260905555277 Z "/><path class="wedge" fill="rgb(214,167,134)" d=" M 791.5940989482017,460.69095064461555 L 935.2004424476191,371.9294659937362 A 445.2,445.2 0 0,1 939.2525282990888,378.61587108891 L 794.1096002926286,464.84181556278895 A 276.3764736457002,276.3764736457002 0 0 0 791.5940989482017,460.69095064461555 Z "/><path class="wedge" fill="url(#hiddenPattern)" d=" M 791.5940989482017,460.69095064461555 L 935.2004424476191,371.9294659937362 A 445.2,445.2 0 0,1 939.2525282990888,378.61587108891 L 794.1096002926286,464.84181556278895 A 276.3764736457002,276.3764736457002 0 0 0 791.5940989482017,460.69095064461555 Z "/><path class="wedge" fill="rgb(214,167,134)" d=" M 753.6151089462028,488.8986250146382 L 939.2525282990888,378.61587108891 A 445.2,445.2 0 0,1 991.4075463690843,510.824025556747 L 780.4746103442574,556.9849806745549 A 229.2751582669516,229.2751582669516 0 0 0 753.6151089462028,488.8986250146382 Z "/><path class="wedge" fill="rgb(218,175,145)" d=" M 794.1096002926286,464.84181556278895 L 939.2525282990888,378.61587108891 A 445.2,445.2 0 0,1 986.9943848972478,492.52037816444647 L 823.7473495556517,535.5527904008134 A 276.3764736457002,276.3764736457002 0 0 0 794.1096002926286,464.84181556278895 Z "/><path class="wedge" fill="rgb(222,183,156)" d=" M 828.4140334460974,444.462371735066 L 939.2525282990888,378.61587108891 A 445.2,445.2 0 0,1 983.6519656552201,480.52395353342683 L 859.9561636781127,516.8596406999173 A 316.27780024906167,316.27780024906167 0 0 0 828.4140334460974,444.462371735066 Z "/><path class="wedge" fill="rgb(222,183,156)" d=" M 828.4140334460974,444.462371735066 L 939.2525282990888,378.61587108891 A 445.2,445.2 0 0,1 983.6519656552201,480.52395353342683 L 859.9561636781127,516.8596406999173 A 316.27780024906167,316.27780024906167 0 0 0 828.4140334460974,444.462371735066 Z "/><path class="wedge" fill="rgb(218,177,145)" d=" M 859.9561636781127,516.8596406999173 L 983.6519656552201,480.52395353342683 A 445.2,445.2 0 0,1 986.9943848972478,492.52037816444647 L 862.3306762688105,525.3821087887595 A 316.27780024906167,316.27780024906167 0 0 0 859.9561636781127,516.8596406999173 Z "/><path class="wedge" fill="url(#hiddenPattern)" d=" M 859.9561636781127,516.8596406999173 L 983.6519656552201,480.52395353342683 A 445.2,445.2 0 0,1 986.9943848972478,492.52037816444647 L 862.3306762688105,525.3821087887595 A 316.27780024906167,316.27780024906167 0 0 0 859.9561636781127,516.8596406999173 Z "/><path class="wedge" fill="rgb(214,170,134)" d=" M 823.7473495556517,535.5527904008134 L 986.9943848972478,492.52037816444647 A 445.2,445.2 0 0,1 991.4075463690843,510.824025556747 L 826.4870036554164,546.9155431437117 A 276.3764736457002,276.3764736457002 0 0 0 823.7473495556517,535.5527904008134 Z "/><path class="wedge" fill="url(#hiddenPattern)" d=" M 823.7473495556517,535.5527904008134 L 986.9943848972478,492.52037816444647 A 445.2,445.2 0 0,1 991.4075463690843,510.824025556747 L 826.4870036554164,546.9155431437117 A 276.3764736457002,276.3764736457002 0 0 0 823.7473495556517,535.5527904008134 Z "/><path class="wedge" fill="rgb(214,170,134)" d=" M 780.4746103442574,556.9849806745549 L 991.4075463690843,510.824025556747 A 445.2,445.2 0 0,1 1001.6879444557758,602.7237046468508 L 785.7689497386273,604.3127288058793 A 229.2751582669516,229.2751582669516 0 0 0 780.4746103442574,556.9849806745549 Z "/><path class="wedge" fill="rgb(218,178,145)" d=" M 826.4870036554164,546.9155431437117 L 991.4075463690843,510.824025556747 A 445.2,445.2 0 0,1 1001.6879444557758,602.7237046468508 L 832.8689896636683,603.966102973214 A 276.3764736457002,276.3764736457002 0 0 0 826.4870036554164,546.9155431437117 Z "/><path class="wedge" fill="rgb(218,178,145)" d=" M 826.4870036554164,546.9155431437117 L 991.4075463690843,510.824025556747 A 445.2,445.2 0 0,1 1001.6879444557758,602.7237046468508 L 832.8689896636683,603.966102973214 A 276.3764736457002,276.3764736457002 0 0 0 826.4870036554164,546.9155431437117 Z "/><path class="wedge" fill="rgb(222,185,156)" d=" M 865.4658627073917,538.3853373012737 L 991.4075463690843,510.824025556747 A 445.2,445.2 0 0,1 1001.6879444557758,602.7237046468508 L 872.7692357813887,603.6724629666212 A 316.27780024906167,316.27780024906167 0 0 0 865.4658627073917,538.3853373012737 Z "/><path class="wedge" fill="rgb(222,187,156)" d=" M 872.7692357813887,603.6724629666212 L 1001.6879444557758,602.7237046468508 A 445.2,445.2 0 0,1 1001.6879444557758,602.7237046468508 L 872.7692357813887,603.6724629666212 A 316.27780024906167,316.27780024906167 0 0 0 872.7692357813887,603.6724629666212 Z "/><path class="wedge" fill="url(#hiddenPattern)" d=" M 872.7692357813887,603.6724629666212 L 1001.6879444557758,602.7237046468508 A 445.2,445.2 0 0,1 1001.6879444557758,602.7237046468508 L 872.7692357813887,603.6724629666212 A 316.27780024906167,316.27780024906167 0 0 0 872.7692357813887,603.6724629666212 Z "/><path class="wedge" fill="rgb(218,179,145)" d=" M 832.8689896636683,603.966102973214 L 1001.6879444557758,602.7237046468508 A 445.2,445.2 0 0,1 1001.6879444557758,602.7237046468508 L 832.8689896636683,603.966102973214 A 276.3764736457002,276.3764736457002 0 0 0 832.8689896636683,603.966102973214 Z "/><path class="wedge" fill="url(#hiddenPattern)" d=" M 832.8689896636683,603.966102973214 L 1001.6879444557758,602.7237046468508 A 445.2,445.2 0 0,1 1001.6879444557758,602.7237046468508 L 832.8689896636683,603.966102973214 A 276.3764736457002,276.3764736457002 0 0 0 832.8689896636683,603.966102973214 Z "/><path class="wedge" fill="rgb(214,172,134)" d=" M 785.7689497386273,604.3127288058793 L 1001.6879444557758,602.7237046468508 A 445.2,445.2 0 0,1 999.6579287998951,648.5921370887528 L 784.7235046335364,627.9346787330447 A 229.2751582669516,229.2751582669516 0 0 0 785.7689497386273,604.3127288058793 Z "/><path class="wedge" fill="rgb(214,172,134)" d=" M 832.8689896636683,603.966102973214 L 1001.6879444557758,602.7237046468508 A 445.2,445.2 0 0,1 1001.2057679485127,626.9718848300176 L 832.5696584804874,619.0191724506379 A 276.3764736457002,276.3764736457002 0 0 0 832.8689896636683,603.966102973214 Z "/><path class="wedge" fill="url(#hiddenPattern)" d=" M 832.8689896636683,603.966102973214 L 1001.6879444557758,602.7237046468508 A 445.2,445.2 0 0,1 1001.2057679485127,626.9718848300176 L 832.5696584804874,619.0191724506379 A 276.3764736457002,276.3764736457002 0 0 0 832.8689896636683,603.966102973214 Z "/><path class="wedge" fill="rgb(214,172,134)" d=" M 832.5696584804874,619.0191724506379 L 1001.2057679485127,626.9718848300176 A 445.2,445.2 0 0,1 999.6579287998951,648.5921370887528 L 831.6087727534755,632.4408460323983 A 276.3764736457002,276.3764736457002 0 0 0 832.5696584804874,619.0191724506379 Z "/><path class="wedge" fill="url(#hiddenPattern)" d=" M 832.5696584804874,619.0191724506379 L 1001.2057679485127,626.9718848300176 A 445.2,445.2 0 0,1 999.6579287998951,648.5921370887528 L 831.6087727534755,632.4408460323983 A 276.3764736457002,276.3764736457002 0 0 0 832.5696584804874,619.0191724506379 Z "/><path class="wedge" fill="rgb(214,172,134)" d=" M 784.7235046335364,627.9346787330447 L 999.6579287998951,648.5921370887528 A 445.2,445.2 0 0,1 994.4363989753222,686.0921372703182 L 782.0344501031577,647.2469394622431 A 229.2751582669516,229.2751582669516 0 0 0 784.7235046335364,627.9346787330447 Z "/><path class="wedge" fill="rgb(214,172,134)" d=" M 784.7235046335364,627.9346787330447 L 999.6579287998951,648.5921370887528 A 445.2,445.2 0 0,1 994.4363989753222,686.0921372703182 L 782.0344501031577,647.2469394622431 A 229.2751582669516,229.2751582669516 0 0 0 784.7235046335364,627.9346787330447 Z "/><path class="wedge" fill="rgb(214,172,134)" d=" M 784.7235046335364,627.9346787330447 L 999.6579287998951,648.5921370887528 A 445.2,445.2 0 0,1 994.4363989753222,686.0921372703182 L 782.0344501031577,647.2469394622431 A 229.2751582669516,229.2751582669516 0 0 0 784.7235046335364,627.9346787330447 Z "/><path class="wedge" fill="rgb(218,180,145)" d=" M 831.6087727534755,632.4408460323983 L 999.6579287998951,648.5921370887528 A 445.2,445.2 0 0,1 996.689294945041,672.6064907932227 L 829.7658694373258,647.3487579679822 A 276.3764736457002,276.3764736457002 0 0 0 831.6087727534755,632.4408460323983 Z "/><path class="wedge" fill="rgb(218,180,145)" d=" M 829.7658694373258,647.3487579679822 L 996.689294945041,672.6064907932227 A 445.2,445.2 0 0,1 994.4363989753222,686.0921372703182 L 828.3672902738004,655.7205356368327 A 276.3764736457002,276.3764736457002 0 0 0 829.7658694373258,647.3487579679822 Z "/><path class="wedge" fill="url(#hiddenPattern)" d=" M 829.7658694373258,647.3487579679822 L 996.689294945041,672.6064907932227 A 445.2,445.2 0 0,1 994.4363989753222,686.0921372703182 L 828.3672902738004,655.7205356368327 A 276.3764736457002,276.3764736457002 0 0 0 829.7658694373258,647.3487579679822 Z "/><path class="wedge" fill="rgb(211,166,123)" d=" M 782.0344501031577,647.2469394622431 L 994.4363989753222,686.0921372703182 A 445.2,445.2 0 0,1 991.2577743592107,701.8577990266084 L 780.3974787151744,655.366154633754 A 229.2751582669516,229.2751582669516 0 0 0 782.0344501031577,647.2469394622431 Z "/><path class="wedge" fill="url(#hiddenPattern)" d=" M 782.0344501031577,647.2469394622431 L 994.4363989753222,686.0921372703182 A 445.2,445.2 0 0,1 991.2577743592107,701.8577990266084 L 780.3974787151744,655.366154633754 A 229.2751582669516,229.2751582669516 0 0 0 782.0344501031577,647.2469394622431 Z "/><path class="wedge" fill="rgb(211,166,123)" d=" M 725.2849505652639,643.2146395630253 L 991.2577743592107,701.8577990266084 A 445.2,445.2 0 0,1 980.4637332530497,741.859460053899 L 721.0944063083198,658.7443868780008 A 172.8389103620029,172.8389103620029 0 0 0 725.2849505652639,643.2146395630253 Z "/><path class="wedge" fill="rgb(214,173,134)" d=" M 780.3974787151744,655.366154633754 L 991.2577743592107,701.8577990266084 A 445.2,445.2 0 0,1 981.34647592483,739.0733327690142 L 775.2932232857638,674.5319169625482 A 229.2751582669516,229.2751582669516 0 0 0 780.3974787151744,655.366154633754 Z "/><path class="wedge" fill="rgb(214,173,134)" d=" M 780.3974787151744,655.366154633754 L 991.2577743592107,701.8577990266084 A 445.2,445.2 0 0,1 981.34647592483,739.0733327690142 L 775.2932232857638,674.5319169625482 A 229.2751582669516,229.2751582669516 0 0 0 780.3974787151744,655.366154633754 Z "/><path class="wedge" fill="rgb(214,173,134)" d=" M 780.3974787151744,655.366154633754 L 991.2577743592107,701.8577990266084 A 445.2,445.2 0 0,1 981.34647592483,739.0733327690142 L 775.2932232857638,674.5319169625482 A 229.2751582669516,229.2751582669516 0 0 0 780.3974787151744,655.366154633754 Z "/><path class="wedge" fill="rgb(214,173,134)" d=" M 780.3974787151744,655.366154633754 L 991.2577743592107,701.8577990266084 A 445.2,445.2 0 0,1 981.34647592483,739.0733327690142 L 775.2932232857638,674.5319169625482 A 229.2751582669516,229.2751582669516 0 0 0 780.3974787151744,655.366154633754 Z "/><path class="wedge" fill="rgb(211,167,123)" d=" M 775.2932232857638,674.5319169625482 L 981.34647592483,739.0733327690142 A 445.2,445.2 0 0,1 980.4637332530497,741.859460053899 L 774.8386164443859,675.9667547302791 A 229.2751582669516,229.2751582669516 0 0 0 775.2932232857638,674.5319169625482 Z "/><path class="wedge" fill="url(#hiddenPattern)" d=" M 775.2932232857638,674.5319169625482 L 981.34647592483,739.0733327690142 A 445.2,445.2 0 0,1 980.4637332530497,741.859460053899 L 774.8386164443859,675.9667547302791 A 229.2751582669516,229.2751582669516 0 0 0 775.2932232857638,674.5319169625482 Z "/><path class="wedge" fill="rgb(207,160,112)" d=" M 721.0944063083198,658.7443868780008 L 980.4637332530497,741.859460053899 A 445.2,445.2 0 0,1 977.4673227245646,750.8777180870554 L 719.9311171557129,662.2455232028304 A 172.8389103620029,172.8389103620029 0 0 0 721.0944063083198,658.7443868780008 Z "/><path class="wedge" fill="url(#hiddenPattern)" d=" M 721.0944063083198,658.7443868780008 L 980.4637332530497,741.859460053899 A 445.2,445.2 0 0,1 977.4673227245646,750.8777180870554 L 719.9311171557129,662.2455232028304 A 172.8389103620029,172.8389103620029 0 0 0 721.0944063083198,658.7443868780008 Z "/><path class="wedge" fill="rgb(112,207,207)" d=" M 654.8391769167896,639.8438514848467 L 977.4673227245646,750.8777180870554 A 445.2,445.2 0 0,1 556.5000000000001,1051.2 L 556.5,710 A 104,104 0 0 0 654.8391769167896,639.8438514848467 Z "/><path class="wedge" fill="rgb(112,207,207)" d=" M 654.8391769167896,639.8438514848467 L 977.4673227245646,750.8777180870554 A 445.2,445.2 0 0,1 556.5000000000001,1051.2 L 556.5,710 A 104,104 0 0 0 654.8391769167896,639.8438514848467 Z "/><path class="wedge" fill="rgb(112,207,207)" d=" M 654.8391769167896,639.8438514848467 L 977.4673227245646,750.8777180870554 A 445.2,445.2 0 0,1 556.5000000000001,1051.2 L 556.5,710 A 104,104 0 0 0 654.8391769167896,639.8438514848467 Z "/><path class="wedge" fill="rgb(112,207,207)" d=" M 654.8391769167896,639.8438514848467 L 977.4673227245646,750.8777180870554 A 445.2,445.2 0 0,1 556.5000000000001,1051.2 L 556.5,710 A 104,104 0 0 0 654.8391769167896,639.8438514848467 Z "/><path class="wedge" fill="rgb(112,207,207)" d=" M 654.8391769167896,639.8438514848467 L 977.4673227245646,750.8777180870554 A 445.2,445.2 0 0,1 556.5000000000001,1051.2 L 556.5,710 A 104,104 0 0 0 654.8391769167896,639.8438514848467 Z "/><path class="wedge" fill="rgb(112,207,207)" d=" M 654.8391769167896,639.8438514848467 L 977.4673227245646,750.8777180870554 A 445.2,445.2 0 0,1 556.5000000000001,1051.2 L 556.5,710 A 104,104 0 0 0 654.8391769167896,639.8438514848467 Z "/><circle cx="556.5" cy="606" r="104"/><circle cx="556.5" cy="606" r="445.2"/><text x="556.5" y="606" text-anchor="middle" style="font-color:black;font-weight:bold" transform="rotate(360,556.5,606)">all</text><path class="line" d=" M 654.8391769167896,639.8438514848467 A 104,104 0 1 0 556.5,710"/><line x1="977.4673227245646" y1="750.8777180870554" x2="654.8391769167896" y2="639.8438514848467"/><text x="556.5" y="467.58054481899853" text-anchor="middle" style="font-color:black;font-weight:normal" transform="rotate(324.49556120479684,556.5,606)">Fungi</text><path class="line" d=" M 551.687411192486,433.22810435694623 A 172.8389103620029,172.8389103620029 0 0 0 556.5,778.8389103620029"/><line x1="544.1036910171575" y1="160.97261710811335" x2="551.687411192486" y2="433.22810435694623"/><text x="556.5" y="795.7697847334875" text-anchor="middle" style="font-color:black;font-weight:normal" transform="rotate(89.20221473919581,556.5,606)">Basidiomycota</text><path class="line" d=" M 538.9588332511732,377.396838019625 A 229.2751582669516,229.2751582669516 0 0 0 556.5,835.2751582669516"/><line x1="522.4390598806826" y1="162.10486333122742" x2="538.9588332511732" y2="377.396838019625"/><text x="556.5" y="849.4055528805761" text-anchor="middle" style="font-color:black;font-weight:normal" transform="rotate(87.80609053278852,556.5,606)">Agaricomycetes</text><path class="line" d=" M 290.6096569830333,681.4074311666442 A 276.3764736457002,276.3764736457002 0 0 0 556.5,882.3764736457001"/><line x1="128.1915439665708" y1="727.4697760360989" x2="290.6096569830333" y2="681.4074311666442"/><text x="556.5" y="894.3468716267087" text-anchor="middle" style="font-color:black;font-weight:normal" transform="rotate(37.083239056073886,556.5,606)">Agaricales</text><line x1="281.98833098328134" y1="956.4944843698049" x2="361.48215000155824" y2="854.9973596493959"/><path class="line" d=" M 361.48215000155824,854.9973596493959 A 316.27780024906167,316.27780024906167 0 0 0 556.5,922.2778002490617"/><text x="175.76109987546914" y="606" text-anchor="end" style="font-color:black;font-weight:normal" transform="rotate(-70.96575406279531,556.5,606)">Laccaria&#160;&#160;&#160;11%</text><path class="line" d=" M 282.35985343859164,763.7302348114492 A 316.27780024906167,316.27780024906167 0 0 0 361.48215000155824,854.9973596493959"/><line x1="170.61394301772185" y1="828.0247531845716" x2="282.35985343859164" y2="763.7302348114492"/><text x="556.5" y="932.5475226070735" text-anchor="middle" style="font-color:black;font-weight:normal" transform="rotate(49.076970172893404,556.5,606)">Agaricaceae</text><path class="line" d=" M 262.115992573613,796.2510503525966 A 350.5102081091011,350.5102081091011 0 0 0 340.3743435861933,881.947651971142"/><line x1="182.5886071956188" y1="847.647078052038" x2="262.115992573613" y2="796.2510503525966"/><text x="158.6448959454495" y="606" text-anchor="end" style="font-color:black;font-weight:normal" transform="rotate(-42.402406399318544,556.5,606)">Leucoagaricus&#160;&#160;&#160;5%</text><path class="line" d=" M 255.1665111822074,785.0405945744781 A 350.5102081091011,350.5102081091011 0 0 0 262.115992573613,796.2510503525966"/><line x1="173.76173412922657" y1="833.4081349429548" x2="255.1665111822074" y2="785.0405945744781"/><text x="158.6448959454495" y="606" text-anchor="end" style="font-color:black;font-weight:normal" transform="rotate(-31.795216482770567,556.5,606)">Lepiota&#160;&#160;&#160;0.6%</text><path class="line" d=" M 252.68822520382133,780.8022067477449 A 350.5102081091011,350.5102081091011 0 0 0 255.1665111822074,785.0405945744781"/><path class="line" d=" M 266.56494791475626,732.3697452031631 A 316.27780024906167,316.27780024906167 0 0 0 282.35985343859164,763.7302348114492"/><line x1="148.38066602618449" y1="783.8809974021094" x2="266.56494791475626" y2="732.3697452031631"/><text x="556.5" y="946.2404857510892" text-anchor="middle" style="font-color:black;font-weight:normal" transform="rotate(63.267605446341825,556.5,606)">Cortinariaceae</text><path class="line" d=" M 237.89396164087873,752.108173316182 A 350.5102081091011,350.5102081091011 0 0 0 252.68822520382133,780.8022067477449"/><line x1="151.82303198048345" y1="791.5790708957536" x2="237.89396164087873" y2="752.108173316182"/><text x="158.6448959454495" y="606" text-anchor="end" style="font-color:black;font-weight:normal" transform="rotate(-27.275032276097065,556.5,606)">unidentified&#160;&#160;&#160;1%</text><path class="line" d=" M 235.18375407792047,746.0474065994335 A 350.5102081091011,350.5102081091011 0 0 0 237.89396164087873,752.108173316182"/><path class="line" d=" M 255.95920516676506,704.5234874098189 A 316.27780024906167,316.27780024906167 0 0 0 266.56494791475626,732.3697452031631"/><line x1="133.45177545059727" y1="744.6839561939236" x2="255.95920516676506" y2="704.5234874098189"/><text x="556.5" y="932.5475226070735" text-anchor="middle" style="font-color:black;font-weight:normal" transform="rotate(69.14977440006388,556.5,606)">Omphalotaceae</text><path class="line" d=" M 225.54100830781772,721.42769081455 A 350.5102081091011,350.5102081091011 0 0 0 235.18375407792047,746.0474065994335"/><line x1="136.13294736483954" y1="752.6103033856359" x2="225.54100830781772" y2="721.42769081455"/><text x="158.6448959454495" y="606" text-anchor="end" style="font-color:black;font-weight:normal" transform="rotate(-21.388670757190585,556.5,606)">Gymnopus&#160;&#160;&#160;1%</text><path class="line" d=" M 223.43009607592796,715.1872020371195 A 350.5102081091011,350.5102081091011 0 0 0 225.54100830781772,721.42769081455"/><line x1="991.95" y1="606" x2="1011.45" y2="606" class="tick" transform="rotate(163.00813224548466,556.5,606)"/><text x="98.30000000000001" y="606" text-anchor="end" style="font-color:black;font-weight:normal" transform="rotate(-16.991867754515344,556.5,606)">3 more</text><path class="line" d=" M 252.2222455024148,692.2942353132155 A 316.27780024906167,316.27780024906167 0 0 0 255.95920516676506,704.5234874098189"/><path class="line" d=" M 293.7207937183527,520.3784844164747 A 276.3764736457002,276.3764736457002 0 0 0 290.6096569830333,681.4074311666442"/><line x1="133.20310684055045" y1="468.07690461145546" x2="293.7207937183527" y2="520.3784844164747"/><text x="556.5" y="301.69259773194676" text-anchor="middle" style="font-color:black;font-weight:normal" transform="rotate(271.1068372086833,556.5,606)">Boletales</text><path class="line" d=" M 243.39058046020472,561.3442240484189 A 316.27780024906167,316.27780024906167 0 0 0 252.2222455024148,692.2942353132155"/><line x1="115.75988650058463" y1="543.1414894185167" x2="243.39058046020472" y2="561.3442240484189"/><text x="556.5" y="946.2404857510892" text-anchor="middle" style="font-color:black;font-weight:normal" transform="rotate(86.1416421545792,556.5,606)">Sclerodermataceae</text><path class="line" d=" M 208.26931885300343,566.0901178079395 A 350.5102081091011,350.5102081091011 0 0 0 219.28866563529863,701.6343137407433"/><line x1="114.19533765365554" y1="555.3085247138513" x2="208.26931885300343" y2="566.0901178079395"/><text x="158.6448959454495" y="606" text-anchor="end" style="font-color:black;font-weight:normal" transform="rotate(-4.647757975856136,556.5,606)">Scleroderma&#160;&#160;&#160;6%</text><path class="line" d=" M 209.5011030891534,556.5108948217793 A 350.5102081091011,350.5102081091011 0 0 0 208.26931885300343,566.0901178079395"/><path class="line" d=" M 253.26842866858635,516.0986035799936 A 316.27780024906167,316.27780024906167 0 0 0 243.39058046020472,561.3442240484189"/><line x1="129.66417576435367" y1="479.4526999534308" x2="253.26842866858635" y2="516.0986035799936"/><text x="556.5" y="279.4524773929265" text-anchor="middle" style="font-color:black;font-weight:normal" transform="rotate(282.31536076025185,556.5,606)">Boletaceae</text><path class="line" d=" M 220.11256614177603,507.50685135013526 A 350.5102081091011,350.5102081091011 0 0 0 209.5011030891534,556.5108948217793"/><line x1="129.23801992361217" y1="480.8990792152018" x2="220.11256614177603" y2="507.50685135013526"/><text x="158.6448959454495" y="606" text-anchor="end" style="font-color:black;font-weight:normal" transform="rotate(12.21833282312699,556.5,606)">unidentified&#160;&#160;&#160;2%</text><path class="line" d=" M 220.4480827015811,506.3681031559573 A 350.5102081091011,350.5102081091011 0 0 0 220.11256614177603,507.50685135013526"/><path class="line" d=" M 255.7825466740054,508.01704130047085 A 316.27780024906167,316.27780024906167 0 0 0 253.26842866858635,516.0986035799936"/><path class="line" d=" M 363.0288618058193,408.63517570073276 A 276.3764736457002,276.3764736457002 0 0 0 293.7207937183527,520.3784844164747"/><line x1="244.8477468691218" y1="288.0756172948558" x2="363.0288618058193" y2="408.63517570073276"/><text x="556.5" y="317.6531283732914" text-anchor="middle" style="font-color:black;font-weight:normal" transform="rotate(301.80899205409077,556.5,606)">Thelephorales</text><path class="line" d=" M 335.0968349889984,380.1410053739357 A 316.27780024906167,316.27780024906167 0 0 0 255.7825466740054,508.01704130047085"/><text x="556.5" y="265.75951424891076" text-anchor="middle" style="font-color:black;font-weight:normal" transform="rotate(301.80899205409077,556.5,606)">Thelephoraceae</text><path class="line" d=" M 309.01743606017527,357.78681232767684 A 350.5102081091011,350.5102081091011 0 0 0 223.23431690643622,497.4118309351075"/><line x1="242.16040327214898" y1="290.73240266565296" x2="309.01743606017527" y2="357.78681232767684"/><text x="158.6448959454495" y="606" text-anchor="end" style="font-color:black;font-weight:normal" transform="rotate(31.565823273395182,556.5,606)">Tomentella&#160;&#160;&#160;8%</text><path class="line" d=" M 311.13320731676913,355.6950998541384 A 350.5102081091011,350.5102081091011 0 0 0 309.01743606017527,357.78681232767684"/><path class="line" d=" M 335.0968349889984,380.1410053739357 A 316.27780024906167,316.27780024906167 0 0 0 335.0968349889984,380.1410053739357"/><path class="line" d=" M 472.00551528541695,342.8562422597688 A 276.3764736457002,276.3764736457002 0 0 0 363.0288618058193,408.63517570073276"/><line x1="420.392378035204" y1="182.11587049868433" x2="472.00551528541695" y2="342.8562422597688"/><text x="556.5" y="301.69259773194676" text-anchor="middle" style="font-color:black;font-weight:normal" transform="rotate(328.88457801498674,556.5,606)">Trechisporales</text><path class="line" d=" M 459.8067851029727,304.865363793431 A 316.27780024906167,316.27780024906167 0 0 0 335.0968349889984,380.1410053739357"/><text x="556.5" y="279.4524773929265" text-anchor="middle" style="font-color:black;font-weight:normal" transform="rotate(328.88457801498674,556.5,606)">Hydnodontaceae</text><path class="line" d=" M 437.50183381780397,276.30795818831206 A 350.5102081091011,350.5102081091011 0 0 0 311.13320731676913,355.6950998541384"/><line x1="405.3546628353159" y1="187.24216180067276" x2="437.50183381780397" y2="276.30795818831206"/><text x="158.6448959454495" y="606" text-anchor="end" style="font-color:black;font-weight:normal" transform="rotate(57.862191047875136,556.5,606)">unidentified&#160;&#160;&#160;7%</text><line x1="991.95" y1="606" x2="1011.45" y2="606" class="tick" transform="rotate(251.17598125989912,556.5,606)"/><text x="98.30000000000001" y="606" text-anchor="end" style="font-color:black;font-weight:normal" transform="rotate(71.17598125989912,556.5,606)">2 more</text><path class="line" d=" M 449.3411704849157,272.27198013106175 A 350.5102081091011,350.5102081091011 0 0 0 437.50183381780397,276.30795818831206"/><path class="line" d=" M 459.8067851029727,304.865363793431 A 316.27780024906167,316.27780024906167 0 0 0 459.8067851029727,304.865363793431"/><path class="line" d=" M 500.5352193669344,335.34912061194916 A 276.3764736457002,276.3764736457002 0 0 0 472.00551528541695,342.8562422597688"/><line x1="466.3493442326023" y1="170.02305191133308" x2="500.5352193669344" y2="335.34912061194916"/><text x="556.5" y="317.6531283732914" text-anchor="middle" style="font-color:black;font-weight:normal" transform="rotate(345.25774293586034,556.5,606)">Russulales</text><path class="line" d=" M 491.96336190900155,296.3765685961464 A 316.27780024906167,316.27780024906167 0 0 0 459.8067851029727,304.865363793431"/><line x1="465.65672470376694" y1="170.16684461430333" x2="491.96336190900155" y2="296.3765685961464"/><text x="556.5" y="265.75951424891076" text-anchor="middle" style="font-color:black;font-weight:normal" transform="rotate(345.2122236567154,556.5,606)">Russulaceae</text><path class="line" d=" M 473.7842415267065,265.3895050224184 A 350.5102081091011,350.5102081091011 0 0 0 449.3411704849157,272.27198013106175"/><line x1="451.4387070037973" y1="173.37410535895327" x2="473.7842415267065" y2="265.3895050224184"/><text x="158.6448959454495" y="606" text-anchor="end" style="font-color:black;font-weight:normal" transform="rotate(74.27428693117538,556.5,606)">Lactarius&#160;&#160;&#160;1%</text><path class="line" d=" M 484.97822253055926,262.8643980343964 A 350.5102081091011,350.5102081091011 0 0 0 473.7842415267065,265.3895050224184"/><path class="line" d=" M 492.45541083305716,296.2744157664355 A 316.27780024906167,316.27780024906167 0 0 0 491.96336190900155,296.3765685961464"/><line x1="494.36030359970727" y1="165.15796691867115" x2="517.9241910051048" y2="332.32891613248256"/><path class="line" d=" M 517.9241910051048,332.32891613248256 A 276.3764736457002,276.3764736457002 0 0 0 500.5352193669344,335.34912061194916"/><text x="195.71176317714992" y="606" text-anchor="end" style="font-color:black;font-weight:normal" transform="rotate(80.14687287876167,556.5,606)">Piloderma&#160;&#160;&#160;1%</text><line x1="991.95" y1="606" x2="1011.45" y2="606" class="tick" transform="rotate(263.7944045891952,556.5,606)"/><text x="98.30000000000001" y="606" text-anchor="end" style="font-color:black;font-weight:normal" transform="rotate(83.7944045891952,556.5,606)">5 more</text><path class="line" d=" M 535.3552504060326,330.43357470576933 A 276.3764736457002,276.3764736457002 0 0 0 517.9241910051048,332.32891613248256"/><line x1="991.95" y1="606" x2="1011.45" y2="606" class="tick" transform="rotate(267.00830527198434,556.5,606)"/><text x="98.30000000000001" y="606" text-anchor="end" style="font-color:black;font-weight:normal" transform="rotate(87.00830527198437,556.5,606)">2 more</text><path class="line" d=" M 550.1159800000736,376.81373844190347 A 229.2751582669516,229.2751582669516 0 0 0 538.9588332511732,377.396838019625"/><path class="line" d=" M 725.2849505652639,643.2146395630253 A 172.8389103620029,172.8389103620029 0 0 0 551.687411192486,433.22810435694623"/><line x1="991.2577743592107" y1="701.8577990266084" x2="725.2849505652639" y2="643.2146395630253"/><text x="556.5" y="393.655716104533" text-anchor="middle" style="font-color:black;font-weight:normal" transform="rotate(410.4191899697869,556.5,606)">Ascomycota</text><path class="line" d=" M 753.6151089462028,488.8986250146382 A 229.2751582669516,229.2751582669516 0 0 0 550.1159800000736,376.81373844190347"/><line x1="939.2525282990888" y1="378.61587108891" x2="753.6151089462028" y2="488.8986250146382"/><text x="556.5" y="343.7539209679244" text-anchor="middle" style="font-color:black;font-weight:normal" transform="rotate(388.84544740659896,556.5,606)">Eurotiomycetes</text><path class="line" d=" M 784.2035595452688,449.36333712937255 A 276.3764736457002,276.3764736457002 0 0 0 548.8044740276268,329.7306856257088"/><line x1="923.2954199296618" y1="353.6824224937488" x2="784.2035595452688" y2="449.36333712937255"/><text x="556.5" y="301.69259773194676" text-anchor="middle" style="font-color:black;font-weight:normal" transform="rotate(386.940225999228,556.5,606)">Eurotiales</text><path class="line" d=" M 771.833725723589,374.34717032511026 A 316.27780024906167,316.27780024906167 0 0 0 547.6934471331961,289.8448299379092"/><line x1="859.6087689893159" y1="279.9200801003203" x2="771.833725723589" y2="374.34717032511026"/><text x="556.5" y="279.4524773929265" text-anchor="middle" style="font-color:black;font-weight:normal" transform="rotate(380.6567686635699,556.5,606)">Aspergillaceae</text><path class="line" d=" M 779.2933245601366,335.40705751973684 A 350.5102081091011,350.5102081091011 0 0 0 546.7402676519298,255.62569498723315"/><line x1="839.4805974247098" y1="262.30679162783224" x2="779.2933245601366" y2="335.40705751973684"/><text x="954.3551040545506" y="606" text-anchor="start" style="font-color:black;font-weight:normal" transform="rotate(288.9354211864294,556.5,606)">11%&#160;&#160;&#160;Penicillium</text><path class="line" d=" M 794.6300588942428,348.80069782421685 A 350.5102081091011,350.5102081091011 0 0 0 779.2933245601366,335.40705751973684"/><line x1="858.9605268749209" y1="279.31870319446625" x2="794.6300588942428" y2="348.80069782421685"/><text x="954.3551040545506" y="606" text-anchor="start" style="font-color:black;font-weight:normal" transform="rotate(311.13086127267644,556.5,606)">0.9%&#160;&#160;&#160;Aspergillus</text><path class="line" d=" M 795.1404260964478,349.27416760054865 A 350.5102081091011,350.5102081091011 0 0 0 794.6300588942428,348.80069782421685"/><line x1="921.6737221158932" y1="351.34102671214504" x2="815.9257446980612" y2="425.0858493145388"/><path class="line" d=" M 815.9257446980612,425.0858493145388 A 316.27780024906167,316.27780024906167 0 0 0 771.833725723589,374.34717032511026"/><text x="937.2389001245308" y="606" text-anchor="start" style="font-color:black;font-weight:normal" transform="rotate(319.00929019205944,556.5,606)">3%&#160;&#160;&#160;Talaromyces</text><path class="line" d=" M 817.0778269469547,426.749217480123 A 316.27780024906167,316.27780024906167 0 0 0 815.9257446980612,425.0858493145388"/><path class="line" d=" M 791.5940989482017,460.69095064461555 A 276.3764736457002,276.3764736457002 0 0 0 784.2035595452688,449.36333712937255"/><line x1="935.2004424476191" y1="371.9294659937362" x2="791.5940989482017" y2="460.69095064461555"/><text x="556.5" y="317.6531283732914" text-anchor="middle" style="font-color:black;font-weight:normal" transform="rotate(416.87813610530657,556.5,606)">Onygenales</text><line x1="934.0754529238784" y1="370.11906107248075" x2="824.7361493234667" y2="438.4260905555277"/><path class="line" d=" M 824.7361493234667,438.4260905555277 A 316.27780024906167,316.27780024906167 0 0 0 817.0778269469547,426.749217480123"/><text x="937.2389001245308" y="606" text-anchor="start" style="font-color:black;font-weight:normal" transform="rotate(326.74097932998814,556.5,606)">0.7%&#160;&#160;&#160;Spiromastix</text><path class="line" d=" M 825.5353613896661,439.71223360596514 A 316.27780024906167,316.27780024906167 0 0 0 824.7361493234667,438.4260905555277"/><path class="line" d=" M 794.1096002926286,464.84181556278895 A 276.3764736457002,276.3764736457002 0 0 0 791.5940989482017,460.69095064461555"/><path class="line" d=" M 780.4746103442574,556.9849806745549 A 229.2751582669516,229.2751582669516 0 0 0 753.6151089462028,488.8986250146382"/><line x1="991.4075463690843" y1="510.824025556747" x2="780.4746103442574" y2="556.9849806745549"/><text x="556.5" y="362.5944471194239" text-anchor="middle" style="font-color:black;font-weight:normal" transform="rotate(428.4711777780735,556.5,606)">Leotiomycetes</text><path class="line" d=" M 823.7473495556517,535.5527904008134 A 276.3764736457002,276.3764736457002 0 0 0 794.1096002926286,464.84181556278895"/><line x1="986.9943848972478" y1="492.52037816444647" x2="823.7473495556517" y2="535.5527904008134"/><text x="556.5" y="301.69259773194676" text-anchor="middle" style="font-color:black;font-weight:normal" transform="rotate(427.25952643978013,556.5,606)">Helotiales</text><line x1="983.6519656552201" y1="480.52395353342683" x2="859.9561636781127" y2="516.8596406999173"/><path class="line" d=" M 859.9561636781127,516.8596406999173 A 316.27780024906167,316.27780024906167 0 0 0 828.4140334460974,444.462371735066"/><text x="937.2389001245308" y="606" text-anchor="start" style="font-color:black;font-weight:normal" transform="rotate(336.45814755167504,556.5,606)">4%&#160;&#160;&#160;Oidiodendron</text><path class="line" d=" M 862.3306762688105,525.3821087887595 A 316.27780024906167,316.27780024906167 0 0 0 859.9561636781127,516.8596406999173"/><line x1="991.95" y1="606" x2="1011.45" y2="606" class="tick" transform="rotate(346.4442388830474,556.5,606)"/><text x="1014.7" y="606" text-anchor="start" style="font-color:black;font-weight:normal" transform="rotate(346.4442388830474,556.5,606)">2 more</text><path class="line" d=" M 826.4870036554164,546.9155431437117 A 276.3764736457002,276.3764736457002 0 0 0 823.7473495556517,535.5527904008134"/><path class="line" d=" M 785.7689497386273,604.3127288058793 A 229.2751582669516,229.2751582669516 0 0 0 780.4746103442574,556.9849806745549"/><line x1="1001.6879444557758" y1="602.7237046468508" x2="785.7689497386273" y2="604.3127288058793"/><text x="556.5" y="343.7539209679244" text-anchor="middle" style="font-color:black;font-weight:normal" transform="rotate(443.6171189756831,556.5,606)">Arc...tes</text><path class="line" d=" M 832.8689896636683,603.966102973214 A 276.3764736457002,276.3764736457002 0 0 0 826.4870036554164,546.9155431437117"/><text x="556.5" y="317.6531283732914" text-anchor="middle" style="font-color:black;font-weight:normal" transform="rotate(443.6171189756831,556.5,606)">Archaeor...cetaceae</text><path class="line" d=" M 872.7692357813887,603.6724629666212 A 316.27780024906167,316.27780024906167 0 0 0 865.4658627073917,538.3853373012737"/><text x="937.2389001245308" y="606" text-anchor="start" style="font-color:black;font-weight:normal" transform="rotate(353.6171189756831,556.5,606)">3%&#160;&#160;&#160;Archaeorhizomyces</text><path class="line" d=" M 872.7692357813887,603.6724629666212 A 316.27780024906167,316.27780024906167 0 0 0 872.7692357813887,603.6724629666212"/><path class="line" d=" M 832.8689896636683,603.966102973214 A 276.3764736457002,276.3764736457002 0 0 0 832.8689896636683,603.966102973214"/><path class="line" d=" M 784.7235046335364,627.9346787330447 A 229.2751582669516,229.2751582669516 0 0 0 785.7689497386273,604.3127288058793"/><line x1="999.6579287998951" y1="648.5921370887528" x2="784.7235046335364" y2="627.9346787330447"/><text x="556.5" y="849.4055528805761" text-anchor="middle" style="font-color:black;font-weight:normal" transform="rotate(272.5341061850319,556.5,606)">Sordariomycetes</text><path class="line" d=" M 832.5696584804874,619.0191724506379 A 276.3764736457002,276.3764736457002 0 0 0 832.8689896636683,603.966102973214"/><line x1="1001.2057679485127" y1="626.9718848300176" x2="832.5696584804874" y2="619.0191724506379"/><text x="917.2882368228501" y="606" text-anchor="start" style="font-color:black;font-weight:normal" transform="rotate(361.13917985439156,556.5,606)">0.9%&#160;&#160;&#160;Hypocreales</text><line x1="991.95" y1="606" x2="1011.45" y2="606" class="tick" transform="rotate(364.094938309398,556.5,606)"/><text x="1014.7" y="606" text-anchor="start" style="font-color:black;font-weight:normal" transform="rotate(364.094938309398,556.5,606)">4 more</text><path class="line" d=" M 831.6087727534755,632.4408460323983 A 276.3764736457002,276.3764736457002 0 0 0 832.5696584804874,619.0191724506379"/><line x1="994.4363989753222" y1="686.0921372703182" x2="782.0344501031577" y2="647.2469394622431"/><path class="line" d=" M 782.0344501031577,647.2469394622431 A 229.2751582669516,229.2751582669516 0 0 0 784.7235046335364,627.9346787330447"/><text x="556.5" y="868.2460790320756" text-anchor="middle" style="font-color:black;font-weight:normal" transform="rotate(277.92694288794536,556.5,606)">Pez...eae</text><path class="line" d=" M 829.7658694373258,647.3487579679822 A 276.3764736457002,276.3764736457002 0 0 0 831.6087727534755,632.4408460323983"/><line x1="996.689294945041" y1="672.6064907932227" x2="829.7658694373258" y2="647.3487579679822"/><text x="917.2882368228501" y="606" text-anchor="start" style="font-color:black;font-weight:normal" transform="rotate(367.0471031371035,556.5,606)">0.9%&#160;&#160;&#160;Peziza</text><path class="line" d=" M 828.3672902738004,655.7205356368327 A 276.3764736457002,276.3764736457002 0 0 0 829.7658694373258,647.3487579679822"/><line x1="991.95" y1="606" x2="1011.45" y2="606" class="tick" transform="rotate(371.39898579851734,556.5,606)"/><text x="1014.7" y="606" text-anchor="start" style="font-color:black;font-weight:normal" transform="rotate(371.39898579851734,556.5,606)">4 more</text><path class="line" d=" M 780.3974787151744,655.366154633754 A 229.2751582669516,229.2751582669516 0 0 0 782.0344501031577,647.2469394622431"/><path class="line" d=" M 721.0944063083198,658.7443868780008 A 172.8389103620029,172.8389103620029 0 0 0 725.2849505652639,643.2146395630253"/><line x1="980.4637332530497" y1="741.859460053899" x2="721.0944063083198" y2="658.7443868780008"/><text x="556.5" y="795.7697847334875" text-anchor="middle" style="font-color:black;font-weight:normal" transform="rotate(285.10102085634804,556.5,606)">Mucoromycota</text><line x1="981.34647592483" y1="739.0733327690142" x2="775.2932232857638" y2="674.5319169625482"/><path class="line" d=" M 775.2932232857638,674.5319169625482 A 229.2751582669516,229.2751582669516 0 0 0 780.3974787151744,655.366154633754"/><text x="893.7375791334757" y="606" text-anchor="start" style="font-color:black;font-weight:normal" transform="rotate(374.91295436093327,556.5,606)">1%&#160;&#160;&#160;Umbelopsis</text><path class="line" d=" M 774.8386164443859,675.9667547302791 A 229.2751582669516,229.2751582669516 0 0 0 775.2932232857638,674.5319169625482"/><path class="line" d=" M 719.9311171557129,662.2455232028304 A 172.8389103620029,172.8389103620029 0 0 0 721.0944063083198,658.7443868780008"/><line x1="556.5000000000001" y1="1051.2" x2="556.5" y2="710"/><path class="line" d=" M 556.5,710 A 104,104 0 0 0 654.8391769167896,639.8438514848467"/><text x="831.1" y="606" text-anchor="start" style="font-color:black;font-weight:normal" transform="rotate(414.49556120479684,556.5,606)">20%&#160;&#160;&#160;unidentified</text></svg>